<?xml version="1.0" encoding="utf-8"?>
<!-- Generator: Adobe Illustrator 27.7.0, SVG Export Plug-In . SVG Version: 6.00 Build 0)  -->
<svg version="1.1" id="Layer_1" xmlns="http://www.w3.org/2000/svg" xmlns:xlink="http://www.w3.org/1999/xlink" x="0px" y="0px"
	 viewBox="0 0 715 668" style="enable-background:new 0 0 715 668;" xml:space="preserve">
<style type="text/css">
	.st0{fill:#BF5A3B;stroke:#333031;stroke-width:4;stroke-miterlimit:10;}
	.st1{fill:#803C27;stroke:#333031;stroke-width:4;stroke-miterlimit:10;}
	.st2{fill:#FF784E;}
	.st3{fill:#BF5A3B;stroke:#333031;stroke-width:4;stroke-linecap:round;stroke-miterlimit:10;}
	.st4{fill:#FF9371;}
	.st5{fill:#FFC9B8;}
	.st6{fill:#8D4750;}
	.st7{fill:none;stroke:#C7B299;stroke-width:2;stroke-linecap:round;stroke-miterlimit:10;}
	.st8{fill:none;stroke:#000000;stroke-width:4;stroke-linecap:round;stroke-miterlimit:10;}
	.st9{fill:none;}
	.st10{fill:#09594E;stroke:#000000;stroke-width:0.5;stroke-miterlimit:10;}
	.st11{fill:#09594E;}
	.st12{fill:#FFFFFF;stroke:#000000;stroke-width:0.5;stroke-linecap:round;stroke-linejoin:round;stroke-miterlimit:10;}
	.st13{fill:#13B29C;stroke:#000000;stroke-width:0.5;stroke-miterlimit:10;}
	.st14{fill:#F1675C;}
	.st15{fill:none;stroke:#000000;stroke-width:4;stroke-miterlimit:10;}
	.st16{fill:none;stroke:#000000;stroke-width:5;stroke-miterlimit:10;}
</style>
<g>
	<path class="st0" d="M57,275C82.1,152.9,191.3,75.8,301.2,58.5c-25.1,20.9-28.8,21.3-34.3,37.7c-8.2,24.9-23.7,16.6-23.5,17.2
		c0.1,0.3,21.3,5.8,40.8,26.9c10.5,11.3,18.6,28.9,22.6,49.6c1.4,7.1,3.9,11.4,13.6,29.6c7.8,14.7,13.7,24.2,4.6,35.6
		c-7.9,9.9-11.9,3.5-19.4,4.9c-11.2,2.1-22.2,3.7-34.5-0.4c-2.1-0.7-15.4-9.7-20.2-13.9c0,0-23.5-3.4-48.2-4c0,0,5.9,1.2,22.5,8.4
		c0,0-40.2,59.8,0.9,88l3.4,1.4c48.8,10.1,93.4,8,115.6,12.6c26.3,5.4,96.7,26.1,128,103c31.4,77-11,163-103.3,180
		c0,0-14.5,3-35.5,5.8C191.6,639.3,67.3,520.3,49,366C49,366,41.6,324.4,57,275"/>
	<path class="st1" d="M276.2,82.2l32.6-10.8c0,0-17.1,12.3-26.3,36.7s-26,13.6-26,13.6l-13.1-8.4c0,0,22.9,7.5,23.5-17.2
		S276.2,82.2,276.2,82.2z"/>
	<path class="st2" d="M274.2,84l24.7-7.2c0,0-21.8,10.6-25.9,15.3c-4.2,4.8-4.2,4.8-4.2,4.8L274.2,84z"/>
	<path class="st2" d="M178.1,105.8C227,74,292,63,292,63c-25.9,9.8-80,15.4-72,48c0,0-59.4,1.2-121.1,92.8
		c-15.7,23.3-27.4,49-34.9,76C58,301.4,49,335,49,335s2-76,43-141C111.8,162.7,141.1,129.9,178.1,105.8z"/>
	<path class="st3" d="M173.6,235.9c14,7.4,99.3,22.6,92.7,21c-6.6-1.6-20-19.8-20-19.8"/>
	<path class="st4" d="M248,236.8c0,0,15.2,33.5,59.6,20.7c0,0,14.2-2.7,18.1-25l-6.1-11.2C319.6,221.3,284.9,198.1,248,236.8z"/>
	<path class="st5" d="M257.8,249.6c0,0,16,18.7,50.3,7.4c0,0,13.7-2.2,17.6-24.5l-1.8-0.8C323.9,231.8,288.5,218,257.8,249.6z"/>
	<path class="st6" d="M325.7,232.6c0,0,2,2.9,2.6,11.9c0.1,2.2-3.7,11.5-9,13.6c-5,2-11.7-0.6-11.7-0.6S313.2,239.2,325.7,232.6z"/>
	<path class="st7" d="M284.2,241.1c0,0-26.2-9.9-79,12.4"/>
	<path class="st7" d="M279.6,245.9c0,0-27.5-5.2-75.6,26"/>
	<path class="st7" d="M283.1,252.2c0,0-27.5-5.2-75.6,26"/>
	<path class="st2" d="M249.7,170.2c-35.7,13.3-45.1-3.7-45.1-3.7l0.2,0.2C209.1,164.1,252.5,169.2,249.7,170.2z"/>
	<path class="st8" d="M249.1,172.2c-34.2,11.7-45.1-3.7-45.1-3.7"/>
</g>
<path class="st0" d="M155,141.9"/>
<path class="st9" d="M288,531c16.2,1.2,32,1.4,45.2,1.2"/>
<path class="st4" d="M387.8,527.9c-0.1,2-0.4,4-0.8,6c-4.4,23.5-23.8,43.2-51.8,55.3c-23.7,10.3-53.5,15.3-85.4,12.7
	c-24.8-2-47.7-8.2-66.9-17.4c-11.3-6.1-21.6-12.8-30.9-19.9c-15.8-12.1-28.6-25.4-37.4-39c-5.1-9.7-9.3-19.6-12.7-29.4
	c-17.6-51.1-12.1-100.5,18.4-126c43.8-36.5,116.8-14.1,170.1,55.1c2.9,3.8,11.1,18.2,13.8,22.1C355.3,463,390.5,490.8,387.8,527.9z"
	/>
<path class="st5" d="M350.6,528.6c-0.1,1.5-0.3,3.1-0.6,4.6c-3.3,17.8-18,32.7-39.2,41.9c-17.9,7.8-40.4,11.6-64.5,9.7
	c-18.7-1.5-36-6.2-50.6-13.2c-8.5-4.6-16.3-9.7-23.4-15.1c-12-9.2-21.6-19.3-28.3-29.6c-3.8-7.4-7-14.8-9.6-22.3
	c-13.3-38.7-9.2-76.2,13.9-95.5c33.1-27.7,88.3-10.6,128.5,41.8c2.2,2.9,8.4,13.8,10.4,16.7C326,479.3,352.6,500.5,350.6,528.6z"/>
<path class="st0" d="M450.7,486.3"/>
<path class="st2" d="M402,376c0,0-19.6,28.8,30,98s20,113,20,113s56-70,8-150C430.8,388.3,423,391,402,376z"/>
<path class="st1" d="M254,385c0,0,12.5,16.9-12,37c-39.9,32.6-27.2,62.2-3.3,63c21.3,0.7,34.3-20,52.3-48
	C306.4,413.1,254,385,254,385z"/>
<path class="st1" d="M71,452c4,12,9,25.1,15,33c6.1,8,7.1,9.1,13,17.2c8.5,11.6,16.9,16.4,30,22.8c11,5.4,21.4,7.1,32,3
	c4.1-1.6,10.3-2.8,13.5-5.6c9-7.8,7-18.3,4.1-27.6c-2.6-8.7-7-17.1-14.4-23.1c-7.5-6.1-15.4-7.7-24.2-3.7
	c-5.4,2.4-11.1,5.4-16.2,8.4c-13.3,7.5-25.2,5.7-33.8-3.4C80.8,464.8,76,456.5,71,452z"/>
<g>
	<g>
		<g>
			<g>
				<path class="st10" d="M369.6,75c0.4-1,0.8-2,1.3-3.1c-0.9-0.7-1.7-1.3-2.6-2L369.6,75z"/>
				<g>
					<path class="st11" d="M479.8,176.5c-3.5,1.3-7,2.4-10.6,3.5c-0.2,0.1-0.2,0.5,0,0.6c1.6,0,3.2,0,4.8,0
						C476,179.2,477.9,177.9,479.8,176.5z"/>
					<g>
						<path class="st10" d="M480.2,176.5c-6.8-6.8-15.5-12.8-24-17.4c-8.5-4.7-16.7-7.9-22.4-10c-8.3-3-12.7-5.2-15-6.9
							c-1.2-0.8-1.8-1.5-2.1-1.9c-0.3-0.5-0.4-0.8-0.4-0.8s-0.3,0.5-0.5,1.1c-0.2,0.6-0.4,1.4-0.2,1.8c0.2,0.5,1.2,2.5,4.1,5.3
							c3,2.9,7.9,6.7,16.2,11c4.4,2.3,10,5.1,15.8,8.7c2.9,1.8,5.9,3.7,8.9,5.8c1.5,1.1,3,2.2,4.4,3.3c1.5,1.2,2.9,2.3,4.3,3.7"/>
						<path class="st10" d="M494.1,153.4c1.7-3.1,1.1-7.5-0.1-11.1c-1.2-3.6-2.9-6.3-2.9-6.3c-2.3-3-6.7-6.7-12.5-10.1
							c-5.7-3.4-12.8-6.5-20.2-8.6c-7.4-2.1-15-3.1-21.6-2.8c-6.6,0.2-12.3,1.6-16.1,3c-1.9,0.7-3.6,1.4-5,2
							c-1.4,0.7-2.6,1.2-3.6,1.7c-1,0.5-1.7,0.9-2.4,1.2c-0.3,0.2-0.6,0.3-0.9,0.4c-0.3,0.1-0.5,0.3-0.7,0.3
							c-0.8,0.3-1.2,0.4-1.5,0.4c-0.2-0.1-0.3-0.2-0.3-0.2c0,0,0,0.5-0.1,1.1c0,0.3,0,0.6,0,0.8c0,0.2,0,0.4,0.1,0.4
							c0.1,0,0.3,0.1,0.8,0.1c0.3,0,0.6-0.1,1-0.1c0.4-0.1,0.9-0.2,1.5-0.3c2.5-0.6,7.2-1.6,16-2.4c3.8-0.3,9-0.4,14.8,0.3
							c5.8,0.7,12.2,2.2,18.3,4.2c12.2,4.1,23,10.5,26.5,14c3.5,3.6,5,5.1,5.9,6.3c0.9,1.1,1.2,1.8,2.1,3.8L494.1,153.4z"/>
						<path class="st10" d="M365.6,58.5c0,0,0.7-0.7,1.9-1.9c0.6-0.6,1.3-1.2,2.2-1.9c0.8-0.7,1.8-1.5,2.8-2.2
							c4.2-3.1,10.4-6.4,17.2-7.1c0,0,0.4-0.2,1.7,0c0.7,0.1,1.5,0.2,2.7,0.5c1.2,0.3,2.7,0.8,4.5,1.5c0,0-0.8,0.1-2.3,0.3
							c-1.5,0.3-3.5,0.9-5.9,1.9c-4.7,2.1-10.7,6.3-15.1,13.9C372.3,61.7,369.2,59.9,365.6,58.5z"/>
						<path class="st12" d="M386,50.1l2.2,31c0,0.5-0.4,0.9-0.9,0.9c-0.5,0-0.9-0.3-1-0.8l-2.8-30.9c0-0.5,0.5-0.9,1.1-0.9
							C385.4,49.3,386,49.7,386,50.1z"/>
						<path class="st12" d="M409,51.1l-7.2,53.7c-0.1,0.5-0.4,0.8-0.7,0.8s-0.6-0.4-0.5-0.9l5.8-53.8c0-0.5,0.7-0.8,1.4-0.7
							C408.5,50.2,409.1,50.6,409,51.1z"/>
						<path class="st12" d="M425.6,69.4l-19.8,50.4c-0.2,0.4-0.4,0.7-0.6,0.7c-0.2-0.1-0.2-0.5,0-0.9l18.1-51
							c0.2-0.4,0.8-0.6,1.5-0.4C425.4,68.4,425.8,69,425.6,69.4z"/>
						<path class="st12" d="M431.3,96.5l-22.7,28.1c-0.3,0.4-0.6,0.6-0.7,0.5c-0.1-0.1,0-0.4,0.3-0.8l21.7-28.9
							c0.3-0.4,0.8-0.4,1.2-0.1C431.6,95.6,431.6,96.1,431.3,96.5z"/>
						<path class="st12" d="M447.7,120l-30.4,13.4c-0.4,0.2-0.9,0.1-1-0.1c-0.1-0.2,0.1-0.6,0.5-0.8l30.1-14.1
							c0.4-0.2,0.9,0,1.1,0.4C448.3,119.3,448.2,119.8,447.7,120z"/>
						<path class="st12" d="M469.7,130.1l-51.2,13.2c-0.4,0.1-0.9,0-1-0.4c-0.1-0.3,0.2-0.7,0.7-0.8l50.9-14
							c0.4-0.1,0.9,0.2,1.1,0.8S470.2,130,469.7,130.1z"/>
						<path class="st12" d="M488.6,145.5l-52.4,6.7c-0.5,0.1-0.9-0.2-0.9-0.6c-0.1-0.4,0.3-0.8,0.7-0.9l52.3-7.4
							c0.5-0.1,0.9,0.4,1,1C489.4,144.9,489.1,145.4,488.6,145.5z"/>
						<path class="st12" d="M491.8,164.5l-33.8,0.8c-0.5,0-0.9-0.4-0.9-0.9c0-0.5,0.3-0.9,0.8-0.9l33.8-1.2c0.5,0,0.9,0.5,0.9,1.1
							C492.6,164,492.2,164.5,491.8,164.5z"/>
						<path class="st13" d="M425.8,56.7c0,0,0.3,0.3,0.8,1c0.5,0.6,1.3,1.6,2.1,2.8c1.7,2.4,3.9,6,5.6,10.2c1.7,4.2,2.9,9,3.2,13.8
							c0.1,2.4,0,4.7-0.3,7.1c-0.3,2.3-0.9,4.5-1.7,6.5c-1.5,4.1-3.1,8.4-4.7,12.4c-1.6,4-3.4,7.6-5.1,10.6
							c-1.7,3.1-3.2,5.5-4.3,7.2c-1.1,1.7-1.8,2.7-1.8,2.7c-2.1,5.1-3.4,7.9-3.8,9.6c-0.5,1.6-0.3,2.1-0.3,2.1c-0.4-0.4-1-2.6-1.3-5
							c-0.3-2.5-0.3-5.1,0.5-7.3c0.8-2.3,3.9-6.9,6.5-13.2c0.7-1.6,1.3-3.2,1.8-4.9c0.5-1.7,1.1-3.5,1.6-5.2
							c0.5-1.8,0.9-3.6,1.3-5.3c0.4-1.8,0.7-3.5,1.1-5.1c0.7-3.3,0.9-6.8,0.7-10.3c-0.1-1.7-0.3-3.4-0.6-5.1
							c-0.3-1.6-0.7-3.2-1.1-4.7c-0.9-2.9-1.9-5.5-2.7-7.3c-0.8-1.8-1.4-2.8-1.4-2.8c-0.5-0.8-1.2-1.7-2-2.6c-0.8-1-1.8-2.1-2.8-3.1
							c-1.1-1.1-2.2-2.2-3.5-3.3c-1.2-1.1-2.5-2.1-3.8-3.1c-2.5-1.9-5-3.6-6.8-4.8c-1.8-1.2-3-1.9-3-1.9s-1-0.6-2.6-1.3
							c-0.8-0.3-1.8-0.7-2.9-0.9c-1.1-0.2-2.3-0.4-3.5-0.3c0,0,1.4-0.1,3.6-0.1c2.3,0,5.5,0.2,9.2,0.8c1.8,0.3,3.8,0.8,5.8,1.4
							c2,0.6,4,1.4,6,2.2C419.5,51.3,423.2,53.7,425.8,56.7z"/>
						<path class="st13" d="M368,69.7c0.7,0.5,1.8,1.3,3,2.2c1.2,1,2.6,2.2,4,3.7c1.5,1.5,3,3.2,4.6,5.2c1.6,2,3.1,4.2,4.6,6.7
							c3.4,5.7,8.3,12.5,11.7,18.7c0.4,0.8,0.8,1.5,1.2,2.2c0.4,0.7,0.7,1.5,1.1,2.2c0.3,0.7,0.7,1.4,1,2c0.3,0.7,0.5,1.3,0.8,1.9
							c0.2,0.6,0.5,1.1,0.7,1.7c0.2,0.5,0.4,1,0.5,1.5c0.3,0.9,0.6,1.6,0.8,2.1c1,2.1,2.1,3.6,2.8,4.6c0.7,1,1.3,1.4,1.7,1.3
							c0,0-0.2,0-0.2-1.1c0-0.6,0-1.4-0.1-2.7c-0.1-1.3-0.3-3.1-1-5.5c0,0-0.1-1.1-0.5-3c-0.4-1.9-1.1-4.7-2.3-7.9
							c-0.6-1.6-1.3-3.3-2.1-5.2c-0.8-1.8-1.8-3.7-2.7-5.7c-1-1.9-2-3.9-3-5.9c-1-2-2-4-3-6c-1.5-3.3-3.5-6.4-5.8-9.3
							c-2.3-2.8-4.8-5.4-7.4-7.5c-1.3-1.1-2.6-2.1-3.8-3c-1.2-0.9-2.4-1.7-3.5-2.4c-2.2-1.5-4.3-2.4-5.7-3.1"/>
						<path class="st13" d="M473.8,180.6c2.4-1.6,6.2-5.2,9.7-9.4c3.5-4.2,6.8-9,8.5-12.1c1.1-2,1.9-4.1,2.5-6.5
							c0.4-1.9,0.8-4.1,0.8-5.1c0,0,0.1,1.5,0.1,3.9c0,2.4-0.2,5.7-0.7,9.3c-0.5,3.6-1.3,7.5-2.6,11.1c-0.6,1.8-1.4,3.6-2.3,5.2
							c-0.9,1.7-1.9,3.1-3,4.7"/>
					</g>
				</g>
			</g>
			<g>
				<polygon class="st10" points="353.1,220.6 350,220.2 348.4,222.9 				"/>
				<g>
					<path class="st11" d="M361.9,66.9c1.2,1.4,2.4,2.9,3.5,4.4c1.1,1.5,2.2,3,3.3,4.5c0.1,0.2,0.5,0,0.4-0.2l-1.4-4.6
						c-0.9-0.7-1.9-1.4-2.8-2.2C363.9,68.2,362.9,67.6,361.9,66.9z"/>
					<g>
						<path class="st10" d="M361.8,66.5c-2.5,4.3-4.6,9.3-6.1,14.3c-0.8,2.6-1.4,5.1-1.7,7.6c-0.2,1.3-0.3,2.5-0.3,3.8
							c-0.1,1.2-0.1,2.4,0,3.6c0.1,2.4,0.4,4.6,0.9,6.8c0.5,2.2,1.1,4.1,1.9,5.9c0.8,1.8,1.6,3.4,2.5,4.9c0.9,1.5,1.8,2.7,2.6,3.8
							c1.3,1.6,2.5,2.9,3.6,4c1.1,1.1,2.1,1.9,3,2.6c1.8,1.3,3,2,3.8,2.4c1.7,0.8,1.6,0.7,1.6,0.8c0,0,1.6,0.2,1.5,0.2
							c-0.1,0-0.2-0.1-0.5-0.2c-0.3-0.2-1-0.5-1.9-1.2c-1.8-1.5-5.3-4.9-8-12.7c-0.4-1-0.7-2.2-1-3.4c-0.3-1.2-0.5-2.5-0.7-3.9
							c-0.4-2.8-0.4-5.8-0.1-9.2c0.2-1.7,0.5-3.3,0.9-5.1c0.4-1.7,0.8-3.5,1.3-5.3c1-3.5,2.4-7.1,4-10.5"/>
						<path class="st10" d="M327.7,67.2c-2.4,0.6-4.9,2.1-7.2,4c-1.1,1-2.2,2.1-3.1,3.3c-0.5,0.6-1,1.2-1.4,1.7
							c-0.4,0.6-0.8,1.2-1.2,1.8c-0.8,1.2-1.4,2.4-2,3.5c-0.6,1.1-1,2.1-1.3,3c-0.7,1.7-1,2.8-1,2.8c-1.1,5.2-0.8,12.7,2,20.2
							c1.4,3.8,3.2,7.5,5.6,10.9c1.1,1.7,2.4,3.3,3.8,4.9c0.7,0.8,1.4,1.5,2.1,2.2c0.7,0.7,1.5,1.3,2.2,1.9
							c5.9,5,12.6,8.5,18.8,11.1c3.1,1.3,6.1,2.4,8.8,3.3c2.7,0.9,5.3,1.6,7.4,2.2c8.5,2.4,12.9,4.7,15.1,6.7c1.1,1,1.7,1.9,2,2.6
							c0.3,0.7,0.3,1.1,0.3,1.1s0.3-0.8,0.5-1.8c0.2-1,0.3-2.1,0.1-2.7c-0.1-0.3-0.4-1.1-1.1-2.1c-0.7-1-1.6-2.3-3.2-3.7
							c-0.7-0.7-1.6-1.4-2.6-2.2c-1-0.7-2.2-1.4-3.5-2.2c-1.4-0.8-2.8-1.5-4.5-2.2c-1.7-0.8-3.6-1.5-5.7-2.3
							c-1.9-0.7-3.9-1.5-6.3-2.5c-2.3-1-4.8-2.2-7.3-3.6c-1.3-0.7-2.5-1.5-3.8-2.3c-1.3-0.8-2.5-1.7-3.8-2.6c-0.6-0.5-1.3-1-1.9-1.5
							c-0.6-0.5-1.2-1.1-1.8-1.6c-1.2-1.1-2.4-2.4-3.4-3.7c-4.4-5.2-7.5-11.4-9.2-17.3c-0.4-1.4-0.7-2.9-1-4.3
							c-0.1-0.7-0.2-1.4-0.3-2c-0.1-0.7-0.1-1.3-0.2-1.9c-0.1-2.4-0.1-4.6,0.2-6.2c0.6-3.1,1.1-5.5,1.7-7.2c0.5-1.7,0.9-2.9,1.3-3.8
							c0.4-0.9,0.7-1.6,1.3-2.4c0.5-0.8,1.2-1.6,2.2-3C326.5,68.6,327.1,67.9,327.7,67.2z"/>
						<path class="st10" d="M337.6,227.7c0,0-3-1.3-6.7-3.8c-3.6-2.4-7.9-5.9-10.3-10.1c0,0-0.3-0.2-0.5-1.1
							c-0.2-0.9-0.4-2.6-0.2-5.5c0,0,1.2,2.1,4.4,4.6c3.2,2.5,8.5,5.3,16.5,6.9L337.6,227.7z"/>
						<path class="st12" d="M326.1,214.6l28.4-12.6c0.4-0.2,0.9,0,1.1,0.5c0.2,0.4,0,1-0.4,1.2l-28.4,12.6c-0.4,0.2-0.9,0-1.1-0.5
							C325.5,215.4,325.7,214.8,326.1,214.6z"/>
						<path class="st12" d="M319.7,199.1l50-20.8c0.4-0.2,0.9,0,1.1,0.5c0.2,0.4,0,0.9-0.4,1.1l-49.9,21c-0.4,0.2-0.9-0.1-1.1-0.5v0
							C319.1,199.8,319.3,199.3,319.7,199.1z"/>
						<path class="st12" d="M326.9,180l50.7-19c0.4-0.2,0.9,0,1.1,0.5s-0.1,0.9-0.5,1l-50.6,19.3c-0.4,0.2-0.9-0.1-1.1-0.6
							C326.3,180.7,326.5,180.1,326.9,180z"/>
						<path class="st12" d="M341.4,158l34.6-10.4c0.4-0.1,0.9,0.1,1,0.4c0.1,0.4-0.1,0.8-0.6,0.9l-34.5,10.7
							c-0.4,0.1-0.9-0.1-1.1-0.6C340.7,158.6,341,158.1,341.4,158z"/>
						<path class="st12" d="M337,129.3l33.3-0.7c0.5,0,0.8,0.1,0.8,0.4c0,0.2-0.3,0.5-0.8,0.5l-33.2,1.5c-0.5,0-0.9-0.4-0.9-0.8
							C336.1,129.8,336.5,129.3,337,129.3z"/>
						<path class="st12" d="M322.3,108.5l50.1,17.7c0.4,0.2,0.8,0.3,0.8,0.3s-0.4-0.1-0.8-0.2L321.5,111c-0.4-0.1-0.6-0.8-0.4-1.5
							C321.3,108.8,321.8,108.4,322.3,108.5z"/>
						<path class="st12" d="M321.5,79.2l39.6,35.4c0.4,0.3,0.5,0.7,0.4,0.9c-0.1,0.2-0.5,0.1-0.9-0.2l-41.1-33.6
							c-0.4-0.3-0.2-1.1,0.4-1.8C320.4,79.1,321.2,78.9,321.5,79.2z"/>
						<path class="st12" d="M343.6,61.1l14.7,30.4c0.2,0.4,0,0.9-0.4,1.1c-0.4,0.2-1,0-1.2-0.4l-15.9-29.8c-0.2-0.4,0.3-1.1,1.1-1.5
							C342.6,60.6,343.4,60.7,343.6,61.1z"/>
						<path class="st13" d="M316.8,187c0,0,0.5-1.4,1.4-3.6c0.9-2.2,2.4-5.3,4.2-8.7c3.7-6.9,9.4-15,16.3-20.4
							c3.5-2.7,6.8-5.9,10-8.9c1.6-1.5,3.1-3,4.7-4.4c1.5-1.4,2.9-2.8,4.3-3.9c1.4-1.2,2.6-2.3,3.7-3.2c1.1-0.9,2.1-1.6,3-2.3
							c0.8-0.6,1.5-1,2-1.3c0.5-0.3,0.7-0.4,0.7-0.4c0.9-1,1.9-1.6,2.6-2.2c0.2-0.1,0.4-0.3,0.6-0.4l0.1-0.1l0.1,0l0.3-0.1
							c0.4-0.1,0.7-0.1,0.9-0.1c1.1-0.2,1.9,0,2.3,0c0.5,0.1,0.7,0.1,0.8,0.1c0.1,0,0.1,0,0.1,0c0.1,0,0.2,0.1,0.2,0.1
							c-0.1,0-0.2,0-0.4,0.1c-0.1,0-0.2,0-0.3,0.1c-0.1,0.2-0.2,0.4-0.3,0.6c-0.2,0.4-0.5,0.8-0.7,1.4c-0.2,0.5-0.6,1-0.9,1.6
							c-0.3,0.6-0.7,1.1-1.1,1.6c-0.4,0.5-1,1.2-1.7,1.9c-0.7,0.8-1.6,1.6-2.5,2.6c-1,1-2,2.1-3.1,3.3c-1.1,1.2-2.3,2.5-3.5,3.9
							c-4.9,5.4-10.4,11.8-15.4,16.3c-5,4.5-9.6,10.2-13,14.9c-3.3,4.7-5.4,8.3-5.4,8.3c-1.4,2.8-3.1,8.4-4.5,13.3
							c-0.7,2.4-1.3,4.7-1.7,6.4c-0.4,1.7-0.7,2.7-0.7,2.7s-0.3,0.9-0.4,2.2c-0.1,1.3,0,3,0.7,4.7c0,0-0.5-0.9-1.1-2.4
							c-0.6-1.5-1.4-3.6-2.1-6.1C315.7,199.6,314.8,192.9,316.8,187z"/>
						<path class="st13" d="M348.2,223.2c1.7-3,5.9-10.6,13.7-19.4c4.5-5,9-12.3,12.7-19c3.7-6.8,6.5-13,7.1-16.4
							c0.3-1.7,0.4-3.6,0.2-5.6c-0.1-2-0.5-4-0.8-5.8c-0.2-0.9-0.4-1.8-0.6-2.5c-0.2-0.8-0.4-1.5-0.6-2.1c-0.4-1.2-0.7-2.1-1-2.3
							c0,0,0.3,0.5,0,2.6c-0.1,1.1-0.4,2.5-0.9,4.6c-0.5,2.1-1.1,4.8-2,8.2c0,0-0.6,1.2-1.7,3.3c-1.1,2.1-2.6,5-4.6,8.3
							c-3.8,6.6-9,15.1-15.1,21.4c-10.1,10.4-16.1,24.8-18.1,29.7"/>
						<path class="st13" d="M367.8,71.3c-2-1.9-6.9-4.3-12.8-5.9c-1.5-0.4-3-0.7-4.6-1l-0.6-0.1l-0.6-0.1c-0.4,0-0.9-0.1-1.3-0.1
							c-0.9-0.1-1.7-0.1-2.5-0.1c-3.3-0.2-6.6,0.2-9.1,0.5c-0.8,0.1-1.6,0.3-2.4,0.4c-0.8,0.2-1.6,0.4-2.4,0.7
							c-1.6,0.5-3.3,1.2-4.9,2c-2.6,1.4-5.6,3.1-6.7,4.1c0,0,0.1-0.1,0.3-0.3c0.2-0.2,0.5-0.5,0.9-0.8c0.8-0.7,2-1.6,3.5-2.7
							c1.5-1.1,3.4-2.3,5.5-3.5c2.1-1.3,4.6-2.4,7.2-3.5c0.6-0.3,1.3-0.5,2-0.8c0.7-0.3,1.3-0.5,2-0.7c1.3-0.4,2.7-0.8,4.1-1.2
							c0.7-0.2,1.4-0.4,2-0.5c0.6-0.1,1.2-0.2,1.8-0.3c1.2-0.2,2.4-0.3,3.6-0.4c0.6,0,1.2-0.1,1.7-0.1c0.6,0,1.1,0,1.6,0
							c1.1,0,2.1,0.1,3.2,0.2c2.1,0.2,3.9,0.7,5.5,1.4"/>
					</g>
				</g>
			</g>
			<g>
				<polygon class="st10" points="337.4,322.4 338.4,319.4 336.3,317.3 				"/>
				<g>
					<path class="st11" d="M346,228.7l8-7.5c0.2-0.2,0-0.4-0.2-0.3l-4.2,2.2L346,228.7z"/>
					<g>
						<path class="st10" d="M345.6,228.9c8.7,2.1,18.9,3.8,28.5,5.4c9.6,1.6,18.6,3.2,24.9,4.7c9.2,2.3,14.5,5.9,17.4,8.9
							c1.5,1.5,2.3,2.8,2.9,3.8c0.5,1,0.7,1.6,0.7,1.6s0.1-0.9,0.2-2c0-1.1,0-2.4-0.4-3.3c-0.2-0.4-0.7-1.7-1.7-3.2
							c-1-1.6-2.4-3.7-4.5-5.7c-4.1-4.2-10.5-8.6-20.2-10.9c-10.3-2.5-25.4-4.3-39.6-6.9"/>
						<path class="st10" d="M339.9,251.7c-0.5,1.4-0.4,2.8,0.1,4.2c0.4,1.3,1.2,2.6,2,3.7c1.6,2.2,3.5,3.7,3.5,3.7
							c4.9,3.2,17.6,6.1,31.3,10.7c6.8,2.3,13.8,5,20.1,8.4c1.6,0.9,3.1,1.7,4.6,2.7c1.5,1,2.8,2.1,4.2,3.2c2.7,2.2,4.9,4.6,6.8,6.8
							c1.9,2.2,3.3,4.5,4.6,6.7c1.1,2.2,2,4.5,2.6,6.6c0.5,2.1,0.9,4.1,1,6c0.1,1.8,0,3.5-0.1,5.1c-0.1,1.5-0.5,2.8-0.8,3.9
							c-0.3,1.1-0.6,2.1-1,2.8c-0.7,1.5-1.2,2.2-1.2,2.2s0.3-0.3,0.8-0.7c0.5-0.5,1.1-1.1,1.8-1.9c1.3-1.6,2.7-3.5,3.2-5
							c0.2-0.7,0.9-2.6,1.4-5.5c0.2-1.4,0.4-3.1,0.5-5c0.1-1.9,0-4-0.2-6.2c-0.2-2.2-0.7-4.6-1.4-7c-0.7-2.4-1.7-4.9-2.9-7.3
							c-0.6-1.2-1.3-2.4-2.1-3.6c-0.8-1.2-1.5-2.3-2.5-3.3c-0.2-0.2-0.5-0.5-0.7-0.8c-0.2-0.2-0.5-0.4-0.7-0.6
							c-0.5-0.4-0.9-0.8-1.4-1.2c-1-0.8-2.1-1.5-3.2-2.2c-2-1.2-4.2-2.5-6.8-3.7c-1.3-0.6-2.6-1.2-3.9-1.8c-1.4-0.6-2.8-1.2-4.2-1.7
							c-5.7-2.3-12-4.2-18-5.8c-12-3.2-23-5.3-26.9-7.1c-7.8-3.5-6.8-2.7-9.4-5.1L339.9,251.7z"/>
						<path class="st10" d="M334.1,305.7c0,0,0.4-0.6,1.1-1.6c0.7-1,1.6-2.4,2.7-3.8c1.1-1.4,2.2-3,3.4-4.3c0.6-0.6,1.1-1.3,1.7-1.8
							c0.6-0.5,1.2-1,1.8-1.3c0,0,0.1-0.2,0.6-0.2c0.5,0,1.6,0.2,3.3,0.8c0,0-0.2,0.2-0.6,0.7c-0.3,0.5-1,1.3-1.6,2.6
							c-0.2,0.3-0.3,0.7-0.5,1.1c-0.2,0.4-0.4,0.8-0.6,1.2c-0.4,0.9-0.8,1.9-1.3,3.1c-0.4,1.2-1,2.5-1.5,4c-0.5,1.5-1,3.2-1.6,5
							c-1.2-0.9-2.4-1.8-3.5-2.7C336.4,307.6,335.2,306.6,334.1,305.7z"/>
						<path class="st12" d="M344.7,297.7l9.7,29.5c0.1,0.4-0.1,0.9-0.6,1.1c-0.5,0.1-0.9-0.1-1.1-0.5l-9.2-29.6
							c-0.1-0.4,0-0.9,0.3-1C344.2,296.9,344.6,297.2,344.7,297.7z"/>
						<path class="st12" d="M352.5,294.8l28.1,46.3c0.2,0.4-0.1,1-0.8,1.4c-0.7,0.4-1.4,0.3-1.6-0.1l-25.9-47.6
							c-0.2-0.4-0.4-0.8-0.3-0.8C352,294.1,352.2,294.4,352.5,294.8z"/>
						<path class="st12" d="M365.1,302.5l42.8,34.2c0.4,0.3,0.2,1.1-0.4,1.8c-0.6,0.7-1.4,0.9-1.8,0.6l-41.2-36
							c-0.4-0.3-0.5-0.7-0.3-0.8C364.3,302.1,364.7,302.2,365.1,302.5z"/>
						<path class="st12" d="M388.9,302l34.6,10.5c0.4,0.1,0.6,1,0.4,1.9c-0.2,0.9-0.8,1.5-1.3,1.4l-34.1-12
							c-0.4-0.2-0.7-0.7-0.6-1.1C388,302.2,388.4,301.9,388.9,302z"/>
						<path class="st12" d="M387.7,272.7l32.3-8.1c0.4-0.1,0.9,0.3,1.1,0.9c0.2,0.6-0.1,1.2-0.5,1.3l-32.4,7.7
							c-0.5,0.1-0.9-0.2-1-0.7S387.2,272.8,387.7,272.7z"/>
						<path class="st12" d="M366.5,263.6l49.9-17.5c0.4-0.2,1,0.2,1.1,0.7c0.2,0.5,0,1.1-0.5,1.3l-50,17.1c-0.4,0.1-0.9-0.1-1.1-0.5
							C365.9,264.2,366.1,263.8,366.5,263.6z"/>
						<path class="st12" d="M346.7,255.7l48.9-19.9c0.4-0.2,0.9,0.1,1.1,0.6c0.2,0.5,0,1-0.4,1.2l-49,19.7c-0.4,0.2-0.9,0-1.1-0.4
							C346.1,256.4,346.3,255.9,346.7,255.7z"/>
						<path class="st12" d="M339.3,242.7l31-13.6c0.4-0.2,0.9,0,1.1,0.5c0.2,0.5,0,1-0.4,1.2l-31,13.5c-0.4,0.2-0.9,0-1.1-0.4
							S338.8,242.9,339.3,242.7z"/>
						<path class="st13" d="M355.1,295.1c0,0,0.2,0.1,0.6,0.4c0.4,0.2,1,0.6,1.8,1c1.6,0.8,4,1.8,7.1,2.4c0.8,0.2,1.6,0.3,2.5,0.4
							c0.9,0.1,1.7,0.2,2.6,0.3c1.9,0.1,3.8,0.1,5.8,0c2-0.1,4-0.4,6.2-0.7c2.1-0.3,4.2-0.8,6.3-1.2c2.2-0.4,4.1-1.1,6.2-2.1
							c2.1-1,4-2.2,5.9-3.7c1.9-1.5,3.6-3.2,5.2-5.1c1.6-1.9,3-3.9,4.3-5.6c1.3-1.8,2.4-3.4,3.4-5c1-1.6,1.8-3,2.5-4.2
							c0.7-1.2,1.2-2.2,1.5-2.8c0.3-0.7,0.5-1,0.5-1c2.2-8.6,2.5-13.6,2.6-16.6c0-2.9-0.3-3.8-0.4-3.8c0.3,0.4,0.8,1.6,1.3,3.4
							c0.5,1.8,1.1,4.1,1.5,6.7c0.9,5.1,1.3,11.6,0.2,16.2c-0.3,1.2-0.7,2.5-1.3,4c-0.3,0.7-0.7,1.5-1.1,2.4
							c-0.2,0.4-0.4,0.8-0.6,1.2c-0.2,0.5-0.4,1-0.6,1.5c-0.9,2-2,4.2-3.3,6.2c-1.2,2-2.7,4-4.3,5.8c-1.5,1.8-3.3,3.4-5,4.9
							c-1.8,1.4-3.7,2.6-5.5,3.6c-1.9,1-3.8,1.7-5.6,2.3c-1.8,0.5-3.6,0.8-5.3,1c-1.6,0.1-3.3,0.3-5.1,0.3c-1.7,0-3.4,0-5.1-0.1
							c-1.7-0.1-3.3-0.2-4.8-0.5c-1.5-0.2-3-0.5-4.3-0.8c-2.7-0.7-4.7-1.4-6.2-2c-1.5-0.6-2.2-1-2.2-1c-0.9-0.4-2.1-0.9-3.3-1.5
							c-1.2-0.6-2.5-1.4-3.6-2.3c-1.1-0.9-2.1-1.7-2.8-2.7c-0.2-0.2-0.3-0.5-0.5-0.7c-0.3-0.2-0.5-0.3-0.8-0.4
							c-0.5-0.3-0.9-0.5-1.3-0.7c-0.7-0.4-1.2-0.7-1.2-0.7s-0.6-0.4-1.4-0.7c-0.7-0.3-1.8-0.6-2.7-0.3c0,0,0.3-0.2,1-0.4
							c0.7-0.2,1.4-0.6,2.4-0.8c0.5-0.1,1-0.2,1.5-0.3c0.2,0,0.2,0,0.2,0.1l0.1,0.2c0,0.1,0.1,0.2,0.2,0.4c0.4,0.5,1,1.1,2.1,1.9
							C353.3,293.9,354.1,294.5,355.1,295.1z"/>
						<path class="st13" d="M336.1,317c1.1,1.2,3.2,3.3,5.9,6.2c1.3,1.4,2.9,3.1,4.5,5c1.6,1.8,3.4,3.9,5.3,6.1
							c2.2,2.6,5.1,5.1,8.4,7.5c1.7,1.2,3.5,2.2,5.4,3.3c1.9,1,3.9,2,5.9,2.7c2,0.8,4.1,1.4,6.2,1.9c1,0.2,2.1,0.4,3.1,0.6
							c0.3,0,0.5,0.1,0.8,0.1c0.3,0,0.6,0,0.9,0c0.6,0,1.2,0,1.8,0c2.4,0,4.5-0.2,6.5-0.5c2-0.3,3.8-0.7,5.3-1.2
							c1.5-0.5,3.1-1.2,4.8-2c2.9-1.5,5.9-3.7,8.7-6c1.4-1.2,2.7-2.6,3.9-3.9c1.2-1.3,2.3-2.8,3.4-4.1c4-5.6,6.1-10.8,6.3-12.2
							c0,0-0.1,0.3-0.5,1.1c-0.4,0.8-1.2,2-2.5,3.8c-0.6,0.9-1.6,1.9-2.6,3c-0.5,0.6-1.1,1.1-1.7,1.8c-0.6,0.6-1.4,1.2-2.2,1.9
							c-0.8,0.6-1.6,1.3-2.5,2c-0.9,0.6-1.9,1.3-3,2c-2.1,1.4-4.7,2.5-7.5,3.8c0,0-0.1,0-0.3,0.1c-0.2,0-0.6,0.1-1,0.2
							c-0.9,0.2-2.2,0.4-3.8,0.6c-2.5,0.2-5.7,0.5-9.3,0.2c-1.8-0.1-3.6-0.3-5.4-0.5c-1.8-0.3-3.8-0.7-5.5-1.3
							c-6.6-2.4-12.8-6.6-17.2-11.5c-2.4-2.6-5-5.2-7.4-7.6c-2.4-2.3-4.8-4.7-7-6.7c-4.3-4.1-7.9-7.2-9.7-8.8"/>
						<path class="st13" d="M349.8,223c-1.5,2.1-3.4,6.6-5.1,11.3c-1.7,4.7-3.3,9.5-4.1,12.4c-0.5,1.8-0.8,3.7-0.8,5.6
							c0,1.5,0,3.2,0.2,3.9c0,0-1.4-4.1-2.4-9.7c-1-5.6-1.6-12.7,0.3-18.2"/>
					</g>
				</g>
			</g>
			<g>
				<polygon class="st10" points="187.6,367.4 187.2,364.1 184,363.6 				"/>
				<g>
					<path class="st11" d="M331.7,313.5c1.6,3.2,3.3,6.4,5,9.6c0.1,0.2,0.4,0.1,0.4-0.1l-1.1-4.6
						C334.5,316.7,333.1,315.1,331.7,313.5z"/>
					<g>
						<path class="st10" d="M331.6,313.1c-3.7,7.8-8.2,17-12.5,25.7c-4.4,8.7-8.5,16.8-11.6,22.4c-2.3,4.1-4.4,7.1-6.4,9.5
							c-1.9,2.3-3.7,3.9-5.2,4.9c-2.9,2.1-4.8,2.2-4.8,2.2s2.7,1.4,4.1,1.1c0.7-0.1,4.1-0.8,8.6-3.6c4.5-2.7,10.3-7.6,15.4-16.1
							c5.4-9.1,12.2-23,17.5-36.2"/>
						<path class="st10" d="M312.6,301c-2.4-1.8-5.6-1.2-8.4-0.3c-2.7,0.9-5,2.3-5,2.3c-2.5,1.9-5.7,5.8-9.2,10.8
							c-3.5,5-7.3,11.1-11,17.6c-3.6,6.5-7,13.2-9.8,19.5c-2.8,6.2-4.9,11.9-6.3,16.2c-2.9,8.5-5.3,12.7-7.1,14.8
							c-0.9,1.1-1.7,1.6-2.3,1.8c-0.3,0.1-0.5,0.2-0.7,0.2c-0.2,0-0.2,0-0.2,0s0.7,0.3,1.6,0.6c0.9,0.3,1.9,0.5,2.4,0.3
							c0.5-0.2,2.8-1,5.7-4c3-2.9,6.8-7.9,10.8-16.5c1.7-3.7,4-8.7,6.6-14.1c2.6-5.4,5.6-11.2,8.7-16.8c3-5.5,6-10.8,8.6-15.1
							c2.6-4.3,4.8-7.6,6.3-9.2c3-3.2,4.2-4.7,5-5.5c0.9-0.9,1.4-1.1,2.9-2L312.6,301z"/>
						<path class="st10" d="M176,355c0,0,0.2-0.9,0.6-2.4c0.4-1.5,1.1-3.7,2-6c0.5-1.2,1-2.4,1.6-3.7c0.6-1.2,1.3-2.5,2.1-3.7
							c0.8-1.3,1.6-2.4,2.5-3.5c0.5-0.6,0.9-1.1,1.4-1.6c0.2-0.3,0.5-0.5,0.8-0.8l0.4-0.4l0.5-0.4c0,0,0.2-0.3,1.4-0.9
							c1.1-0.5,3.2-1.4,6.8-2.1c0,0-0.6,0.5-1.6,1.5c-1,1-2.3,2.6-3.6,4.7c-0.7,1.1-1.2,2.2-1.7,3.5c-0.5,1.3-1,2.7-1.4,4.2
							c-0.8,3.2-1.3,6.8-1.2,11.2C183.1,354.6,179.6,354.8,176,355z"/>
						<path class="st12" d="M187.8,338.3l18.6,24.8c0.3,0.4,0.2,0.9-0.2,1.2c-0.4,0.3-1,0.2-1.2-0.1l-18.9-24.6
							c-0.3-0.4-0.1-1,0.3-1.3C186.9,338,187.6,338,187.8,338.3z"/>
						<path class="st12" d="M205.8,327.1l25.7,47.7c0.2,0.4,0.1,0.9-0.2,1.1c-0.3,0.2-0.8,0-1-0.4l-26.5-47.2
							c-0.2-0.4,0.1-1,0.6-1.3C204.9,326.7,205.6,326.7,205.8,327.1z"/>
						<path class="st12" d="M227.5,332.3l19.5,50.5c0.2,0.4,0,0.9-0.3,1c-0.3,0.1-0.7-0.1-0.9-0.5l-20.2-50.2
							c-0.2-0.4,0.1-1,0.7-1.2S227.4,331.9,227.5,332.3z"/>
						<path class="st12" d="M249.8,347l9.1,34.9c0.1,0.4-0.1,0.9-0.5,1c-0.4,0.1-0.8-0.2-0.9-0.6l-9.5-34.8c-0.1-0.4,0.2-0.9,0.6-1
							C249.2,346.3,249.7,346.5,249.8,347z"/>
						<path class="st12" d="M278.6,342.5l4.1,33c0.1,0.5-0.3,0.9-0.7,0.9c-0.4,0.1-0.8-0.3-0.9-0.7l-4.2-33
							c-0.1-0.5,0.3-0.9,0.8-0.9C278.1,341.7,278.6,342.1,278.6,342.5z"/>
						<path class="st12" d="M292.4,323.4l4.9,52.6c0,0.5-0.3,0.9-0.8,0.9c-0.5,0-0.9-0.3-0.9-0.8l-5-52.6c0-0.5,0.3-0.9,0.8-0.9
							C291.9,322.6,292.3,322.9,292.4,323.4z"/>
						<path class="st12" d="M306.5,306.3l4.9,52.6c0,0.5-0.3,0.9-0.8,0.9c-0.5,0-0.9-0.3-1-0.8l-4.8-52.6c0-0.5,0.3-0.9,0.8-0.9
							C306.1,305.5,306.5,305.9,306.5,306.3z"/>
						<path class="st12" d="M321,303.1l4.2,33.5c0.1,0.5-0.3,0.9-0.8,0.9s-0.9-0.3-1-0.7l-4-33.6c-0.1-0.5,0.3-0.9,0.7-0.9
							C320.5,302.3,320.9,302.6,321,303.1z"/>
						<path class="st13" d="M219.9,322.4c0,0,1.5,0.4,4,1.2c2.4,0.8,5.8,2.2,9.4,4c1.8,0.9,3.6,2,5.5,3.2c1.8,1.2,3.7,2.5,5.4,3.9
							c3.5,2.9,6.7,6.2,9.3,9.7c2.6,3.6,5.6,7,8.6,10.3c3,3.3,6,6.3,8.7,9c2.7,2.6,5.1,4.9,6.8,6.4c0.9,0.8,1.5,1.4,2,1.8
							c0.5,0.4,0.7,0.6,0.7,0.6c6.1,3.4,9.9,5,12.2,5.7c2.3,0.7,3,0.6,3.1,0.6c-0.7,0.4-4.2,0.7-8,0.5c-2-0.1-4-0.2-5.9-0.6
							c-1.9-0.3-3.7-0.8-5.3-1.6c-1.5-0.7-3.5-2.1-5.8-4c-2.3-1.9-4.9-4.2-7.7-6.7c-5.4-5-11.5-10.9-15.8-16
							c-2.1-2.6-4.6-5.1-7.2-7.3c-2.6-2.2-5.2-4.2-7.7-5.9c-2.4-1.6-4.6-2.9-6.2-3.7c-1.6-0.9-2.6-1.3-2.6-1.3
							c-1.5-0.6-3.8-1.2-6.5-1.7c-1.3-0.3-2.8-0.5-4.2-0.7c-1.5-0.2-2.9-0.3-4.4-0.4c-1.4-0.1-2.9-0.2-4.2-0.3c-1.3,0-2.5,0-3.5,0
							c-2,0-3.3,0-3.3,0s-0.3,0-0.8,0c-0.5,0-1.2,0.1-2,0.3c-1.6,0.3-3.7,1-5.7,2.4c0,0,1-0.8,2.8-2c0.9-0.6,2-1.3,3.2-2
							c1.3-0.7,2.7-1.4,4.2-2.1c0.8-0.4,1.6-0.7,2.4-1c0.8-0.3,1.7-0.6,2.5-0.9c1.7-0.6,3.5-1,5.3-1.4c1.8-0.3,3.7-0.5,5.4-0.5
							C216.5,321.8,218.3,322,219.9,322.4z"/>
						<path class="st13" d="M183.6,363.5c1.8,0.2,4.9,0.6,8.9,1.7c4,1.1,8.8,2.8,14,5.5c3,1.5,6.4,3.1,10,4.5l2.7,1.1
							c0.9,0.4,1.8,0.8,2.6,1.2c1.7,0.8,3.4,1.5,5,2.3c3.2,1.5,6.2,3,8.7,4.2c2.5,1.2,4.5,2.1,5.9,2.5c1.4,0.4,2.9,0.5,4.4,0.5
							c0.8,0,1.6,0,2.4-0.1c0.8-0.1,1.5-0.2,2.3-0.3c1.5-0.2,2.8-0.6,3.9-0.8c1.1-0.3,1.8-0.6,2.1-0.8c0,0-0.4,0.3-2.3-0.1
							c-1-0.2-2.2-0.5-4-1.1c-1.8-0.6-4-1.3-7.1-2.4c0,0-1.1-0.6-2.9-1.7c-0.9-0.6-2.1-1.2-3.3-2c-1.3-0.8-2.7-1.6-4.3-2.5
							c-1.6-0.9-3.3-1.9-5.1-2.8c-1.8-1-3.7-2-5.6-3c-1.9-1-3.9-2.1-5.9-3.1c-2-1.1-3.9-2.2-5.8-3.4c-6.2-3.8-13.3-6.2-19.8-7.4
							c-3.2-0.6-6.3-0.9-8.9-1c-2.6-0.1-4.8,0-6.3,0"/>
						<path class="st13" d="M336,318.6c-0.8-1-2.1-2.2-3.6-3.6c-1.6-1.4-3.3-2.8-5.2-4.3c-3.7-3-7.6-5.9-10.1-7.5
							c-1.6-1-3.2-1.8-5-2.4c-1.5-0.5-3.2-0.9-3.9-1c0,0,1.1,0,3,0c0.9,0,2,0.1,3.1,0.2c1.2,0.1,2.5,0.2,3.8,0.4
							c5.4,0.7,11.4,2.1,15.6,5.4"/>
					</g>
				</g>
			</g>
			<g>
				<polygon class="st10" points="215,509.4 212,509.9 211,512.8 				"/>
				<g>
					<path class="st11" d="M177.2,363.9c3.4,1.5,6.8,3,10.1,4.6c0.2,0.1,0.4-0.2,0.3-0.4l-3.5-3.3
						C181.8,364.5,179.5,364.2,177.2,363.9z"/>
					<g>
						<path class="st10" d="M176.8,363.6c0.3,9.6,2.6,20.3,6.3,29.3c1.9,4.5,4,8.5,6.3,11.9c1.1,1.7,2.2,3.2,3.4,4.6
							c1.1,1.4,2.1,2.6,3.1,3.6c5.8,6.1,9.2,8.2,10.8,9.4c0.9,0.6,1.2,0.9,1.4,1.1c0.2,0.2,0.1,0.3,0.1,0.3s0.4-0.1,0.8-0.2
							c0.4-0.1,0.8-0.3,0.8-0.4c0-0.1-0.1-0.3-0.4-0.7c-0.2-0.2-0.3-0.5-0.6-0.9c-0.3-0.4-0.6-0.8-1.1-1.4c-0.2-0.3-0.4-0.6-0.7-0.9
							c-0.3-0.3-0.5-0.7-0.8-1.1c-0.3-0.4-0.6-0.9-0.9-1.4c-0.3-0.5-0.7-1.1-1-1.6c-0.8-1.2-1.5-2.5-2.5-4.1
							c-0.8-1.5-1.9-3.3-2.9-5.3c-2.3-4.2-4.9-9.7-7-16.2c-2.1-6.4-3.8-13.8-4.6-21.2"/>
						<path class="st10" d="M149.7,374c-3.6,1.9-6.3,6.7-7.7,11.2c-0.7,2.2-1.1,4.4-1.4,6c-0.1,0.8-0.2,1.4-0.2,1.9
							c0,0.4-0.1,0.7-0.1,0.7c0,4.6,1.7,11.3,5.3,17.9c3.5,6.7,9.1,13.1,15.5,17.6c6.4,4.6,13.6,7.3,20,8.6
							c6.5,1.3,12.3,1.3,16.5,1.2c4.2-0.2,7.4-0.3,9.8-0.3c2.4,0.1,4.1,0.3,5.3,0.7c1.2,0.4,1.9,0.8,2.3,1.2
							c0.4,0.4,0.5,0.7,0.5,0.7s0.1-0.8,0-1.6c0-0.8-0.1-1.7-0.4-2.1c-0.3-0.4-1.6-1.8-4.7-2.8c-1.5-0.5-3.6-0.9-6.3-1.3
							c-2.7-0.4-6-0.6-10.4-1.2c-3.8-0.4-8.7-1.4-14-3.5c-5.3-2.1-10.9-5.5-15.7-10.1c-4.8-4.5-8.7-10-11.3-15.2
							c-2.7-5.2-4-9.8-4.4-12.7c-0.3-2.9-0.4-4.9-0.5-6.5c-0.1-1.5-0.1-2.6-0.1-3.4c0-0.8,0.1-1.5,0.3-2.2c0.2-0.7,0.4-1.6,0.8-2.8
							L149.7,374z"/>
						<path class="st10" d="M201.8,520.1c0,0-0.5,0-1.4-0.1c-0.4,0-0.9-0.1-1.5-0.2c-0.3,0-0.6-0.1-0.9-0.1c-0.2,0-0.3,0-0.4,0.1
							c-0.1,0-0.2,0.1-0.3,0.1c-0.6,0.3-1.2,0.7-1.8,1c-0.4,0.5-1.6,0.4-2.7,0.2c-2.3-0.4-5-1.5-7.3-3.1c0,0-0.3-0.1-0.9-0.8
							c-0.6-0.8-1.5-2.2-2.7-5.1c0,0,0.5,0.4,1.6,0.9c1,0.5,2.6,1.1,4.6,1.5c2,0.4,4.5,0.7,7.3,0.5c0.7,0,1.4-0.1,2.2-0.2
							c0.7-0.1,1.5-0.3,2.3-0.4c0.7-0.2,1.6-0.4,2.3-0.7c0.7-0.3,1.4-0.8,2.2-1.2c-0.3,0.8-0.7,1.6-1.1,2.4l-0.3,0.5l-0.1,0.3
							l-0.1,0.3l-0.3,1.4C202.2,518.2,202,519.2,201.8,520.1z"/>
						<path class="st12" d="M190.6,516.4l20.3-23.5c0.3-0.3,0.9-0.4,1.2-0.1c0.4,0.3,0.4,0.9,0.1,1.2l-20.4,23.4
							c-0.3,0.3-0.8,0.4-1.2,0.1C190.3,517.3,190.3,516.7,190.6,516.4z"/>
						<path class="st12" d="M177.7,504.4l37.2-39.3c0.3-0.3,0.8-0.4,1.2-0.1c0.3,0.3,0.3,0.8,0,1.2l-36.9,39.6
							c-0.3,0.3-0.9,0.3-1.3-0.1C177.5,505.3,177.4,504.7,177.7,504.4z"/>
						<path class="st12" d="M176.1,483l40.4-36c0.3-0.3,0.8-0.3,1.1-0.1c0.2,0.3,0.2,0.8-0.2,1.1l-40,36.5c-0.3,0.3-0.9,0.2-1.3-0.2
							C175.7,484,175.7,483.4,176.1,483z"/>
						<path class="st12" d="M182.1,457l30.1-19.9c0.4-0.3,0.8-0.3,1,0c0.2,0.2,0,0.7-0.4,0.9l-29.7,20.5c-0.4,0.3-0.9,0.1-1.2-0.3
							C181.6,457.8,181.7,457.2,182.1,457z"/>
						<path class="st12" d="M172.2,430.1l33-4c0.5-0.1,0.9,0,0.9,0.2c0,0.1-0.4,0.3-0.8,0.4l-32.9,5.2c-0.5,0.1-0.9-0.3-0.9-0.7
							C171.5,430.5,171.8,430.1,172.2,430.1z"/>
						<path class="st12" d="M155.6,411.5l51.8,10.6c0.5,0.1,0.8,0.3,0.8,0.4c0,0.1-0.4,0.1-0.9,0.1l-52.1-8.7
							c-0.5-0.1-0.7-0.7-0.6-1.3C154.7,411.8,155.2,411.4,155.6,411.5z"/>
						<path class="st12" d="M148.6,385.1l46.8,24.6c0.4,0.2,0.6,0.6,0.5,0.9c-0.1,0.3-0.6,0.4-1,0.2l-47.5-23.2
							c-0.4-0.2-0.5-0.9-0.1-1.6C147.5,385.3,148.2,384.9,148.6,385.1z"/>
						<path class="st12" d="M159.7,365.5l26.1,21.5c0.4,0.3,0.4,0.8,0.1,1.2s-0.9,0.4-1.2,0.2l-26.5-21c-0.4-0.3-0.3-0.9,0.1-1.5v0
							C158.7,365.4,159.3,365.2,159.7,365.5z"/>
						<path class="st13" d="M169.4,493.5c0,0-0.1-1.5-0.2-4.1c-0.1-2.5,0-6.1,0.4-10.2c0.4-4.1,1.3-8.6,2.8-12.9
							c1.5-4.4,3.5-8.6,6.2-12.1c2.6-3.5,5.1-7.4,7.6-10.9c2.5-3.5,5.1-6.7,7.4-9.2c2.4-2.5,4.6-4.2,6.1-5.3c0.8-0.6,1.4-1,1.9-1.2
							c0.4-0.3,0.7-0.4,0.7-0.4c1.8-1.5,3.3-2.3,4.4-2.8c0.6-0.3,1.1-0.4,1.4-0.6c0.4-0.1,0.7-0.3,1-0.4c1-0.4,1-0.5,0.9-0.5
							c0.5,0.5-0.5,1.9-3.4,5.2c-0.7,0.8-2.2,2-3.8,3.9c-1.7,1.9-3.6,4.3-5.6,7.2c-3.9,5.7-7.5,13.3-10.9,19
							c-3.4,5.7-5.8,12.8-7.1,18.6c-0.7,2.9-1.1,5.4-1.4,7.1c-0.3,1.8-0.4,2.8-0.4,2.8c-0.1,3.2,0.7,9.4,1.7,14.6
							c0.5,2.6,1,5.1,1.4,6.8c0.4,1.8,0.6,2.8,0.6,2.8s0.2,1,0.7,2.3c0.5,1.3,1.4,2.9,2.7,4.1c0,0-0.2-0.2-0.6-0.4
							c-0.4-0.3-0.9-0.7-1.5-1.3c-1.3-1.1-3-2.8-4.8-5C174.1,506.5,170.1,500.2,169.4,493.5z"/>
						<path class="st13" d="M210.9,513.1c0.2-0.7,0.6-1.7,1-3c0.2-0.6,0.4-1.3,0.7-2c0.1-0.4,0.2-0.8,0.4-1.1
							c0.2-0.4,0.3-0.7,0.5-1.1c0.8-1.8,1.6-3.8,2.4-6.3c0.8-2.4,1.5-5.2,2.4-8.2c2-6.4,2.8-15.1,3.4-22.6
							c0.6-7.6,0.9-14.1,0.5-17.2c-0.5-3.1-2.2-6.5-3.6-9.1c-1.5-2.6-2.7-4.4-3.2-4.6c0,0,0.3,0.3,0.5,2c0.2,1.8,0.2,5,0.6,11.6
							c0,0-0.2,1.3-0.5,3.5c-0.3,2.2-0.8,5.3-1.3,9.1c-1.1,7.4-2.2,17.2-5,25.5c-1.7,5-2.6,10.2-3.4,14.9c-0.2,1.2-0.4,2.3-0.6,3.4
							c-0.2,1.1-0.4,2.2-0.7,3c-0.7,1.7-1.5,3.1-2.3,4.4c-0.1,0.2-0.3,0.5-0.4,0.7c-0.1,0.1-0.1,0.2-0.2,0.4c0,0.1-0.1,0.3-0.1,0.4
							c-0.1,0.6-0.3,1.1-0.4,1.6c-0.2,1-0.4,1.8-0.6,2.4"/>
						<path class="st13" d="M184.3,365c-1.3-0.3-3.3-0.4-5.6-0.4c-2.3,0.1-5.1,0.4-7.9,0.8c-5.6,1-11.6,2.9-15.2,4.6
							c-1.1,0.5-2.3,1.1-3.4,1.9c-1.1,0.8-2.2,1.6-3.3,2.6c-1.7,1.6-3.6,3.5-4.3,4.5c0,0,0.2-0.4,0.7-1.1c0.5-0.7,1.2-1.7,2-2.8
							c0.4-0.6,0.9-1.2,1.5-1.9c0.5-0.6,1.1-1.3,1.7-2c1.2-1.4,2.6-2.9,4.2-4.3c1.5-1.5,3.2-2.8,4.9-4.1c1.7-1.3,3.5-2.4,5.3-3.5
							c1.8-1,3.6-1.8,5.3-2.5c1.8-0.6,3.5-1,5.1-1.2"/>
					</g>
				</g>
			</g>
			<g>
				<path class="st10" d="M359.7,549.7c-0.9,0.5-1.8,1-2.7,1.5l0.1,3L359.7,549.7z"/>
				<g>
					<path class="st11" d="M209.9,518.7c0.5-0.8,1-1.6,1.5-2.3l1.6-2.2c1-1.5,2.1-3,3.1-4.4c0.1-0.2-0.1-0.4-0.3-0.3l-3.6,3.1
						l-1.2,3l-0.6,1.5C210.2,517.6,210,518.2,209.9,518.7z"/>
					<g>
						<path class="st10" d="M209.5,519c0.6,0,1.2,0.1,1.7,0.1c0.3,0,0.6,0,0.9,0c0.3,0.1,0.7,0.1,1,0.2c1.3,0.3,2.7,0.5,4,0.6
							c2.6,0.3,5.2,0.4,7.8,0.3c5-0.3,9.7-1.4,14-3.6c4.3-2.2,8.1-5.5,10.9-8.6c2.8-3.2,4.8-6.3,6.1-8.8c1-1.9,1.7-3.5,2.2-4.9
							c0.1-0.4,0.3-0.7,0.4-1c0.1-0.3,0.2-0.7,0.4-1c0.3-0.6,0.6-1.2,0.8-1.7c0.1-0.3,0.2-0.5,0.4-0.7c0.1-0.1,0.1-0.2,0.2-0.3
							c0.1-0.1,0.2-0.2,0.3-0.3c0.5-0.4,0.9-0.8,1.3-1.2c0.9-0.7,1.6-1.3,2.4-1.7c2.9-1.8,4.8-1.7,4.8-1.7s-2.5-1.6-3.9-1.5
							c-0.3,0-1.4,0.1-2.7,0.5c-0.3,0.1-0.7,0.2-1.1,0.3c-0.2,0.1-0.4,0.1-0.6,0.2c-0.1,0-0.2,0.1-0.3,0.1c-0.1,0-0.1,0.1-0.2,0.1
							c-0.2,0.2-0.3,0.4-0.5,0.6c-0.1,0.1-0.2,0.2-0.3,0.4l-0.2,0.2c0,0.1,0,0.1-0.1,0.2c-0.3,1.2-0.9,2.8-2.2,5
							c-1.3,2.2-3.3,5.1-6.5,8.1c-3.4,3.3-8.2,6.6-14.1,8.4c-3,0.9-6.3,1.5-9.9,1.7c-1.8,0.1-3.6,0.2-5.5,0.3
							c-1.8,0.1-3.6,0.3-5.3,0.5"/>
						<path class="st10" d="M223.3,551.8c1.5,1.9,3.9,3.4,6.6,4.5c2.8,1,5.8,1.6,8.7,1.8c2.9,0.2,5.5,0.1,7.3-0.1
							c0.9-0.1,1.7-0.2,2.2-0.3c0.5-0.1,0.8-0.1,0.8-0.1c1.3-0.3,2.7-0.8,4.2-1.3c1.3-0.6,2.6-1.3,4-2.1c1.6-0.8,2.3-1.7,3.4-2.7
							c1-1,2.1-2.1,3.1-3.2c4.2-4.6,8.5-10.3,12.7-16.4c8.4-12.1,16.6-25.2,21.7-33c2.5-3.9,4.9-6.7,7-8.8c0.3-0.3,0.5-0.5,0.8-0.7
							c0.1-0.1,0.3-0.2,0.4-0.3c0.1-0.1,0.3-0.2,0.5-0.3c0.6-0.4,1.3-0.8,1.9-1.1c1.2-0.6,2.4-1.1,3.4-1.5c2.1-0.8,3.8-0.9,4.9-0.9
							c1.2,0,1.8,0.1,1.8,0.1s-1.1-0.6-2.4-1.2c-0.7-0.3-1.4-0.6-2.2-0.8c-0.7-0.2-1.4-0.3-1.9-0.3c-0.9,0-6.2,0.1-10.1,2.4
							c-4.5,2.2-10.1,6.4-15.7,14.5c-4.8,7-12,18.5-19.1,28.9c-1.8,2.6-3.6,5.1-5.4,7.5c-0.9,1.2-1.8,2.3-2.7,3.4
							c-0.4,0.6-1,1.1-1.5,1.6c-0.5,0.5-1.1,1-1.6,1.5c-2.1,2-4.6,3.5-6.8,4.8c-2.2,1.3-4.2,2.2-5.8,2.7c-1.6,0.5-3,0.9-4.2,1.2
							c-1.2,0.3-2.3,0.5-3.2,0.7c-1.8,0.4-3,0.5-4,0.6c-1,0.1-1.8,0.1-2.7,0c-0.9-0.1-2-0.2-3.6-0.6
							C225.1,552.3,224.2,552.1,223.3,551.8z"/>
						<path class="st10" d="M351,564.3c0,0-0.8,0.2-2,0.4c-1.2,0.3-3,0.5-4.8,0.9c-3.8,0.5-7.9,1.2-10.9,0.4c0,0-0.2,0.1-0.7-0.3
							c-0.2-0.2-0.5-0.5-0.9-1c-0.4-0.5-0.8-1.1-1.3-2c0,0,0.4,0.1,1.1,0c0.7-0.1,1.8-0.2,3.3-0.7c1.5-0.5,3.4-1.1,5.8-2.2
							c2.4-1,5.2-2.5,8.7-4.4C349.9,558.4,350.5,561.4,351,564.3z"/>
						<path class="st12" d="M337,562.6l13.2-28.1c0.2-0.4,0.7-0.6,1.1-0.4c0.4,0.2,0.6,0.7,0.4,1.1l-13.6,27.9
							c-0.2,0.4-0.6,0.6-0.9,0.5C336.9,563.5,336.8,563.1,337,562.6z"/>
						<path class="st12" d="M327,558.5l15.3-51.9c0.1-0.4,0.7-0.7,1.3-0.5c0.6,0.2,0.9,0.7,0.8,1.1l-16.2,51.6
							c-0.1,0.4-0.5,0.7-0.8,0.6C327,559.3,326.9,558.9,327,558.5z"/>
						<path class="st12" d="M320,542.9l7.5-53.6c0.1-0.5,0.7-0.8,1.3-0.7c0.7,0.1,1.1,0.6,1.1,1l-8.5,53.5c-0.1,0.5-0.4,0.8-0.8,0.7
							C320.2,543.8,320,543.4,320,542.9z"/>
						<path class="st12" d="M307.3,521.3l-0.4-36.1c0-0.5,0.5-0.8,1.2-0.8c0.7,0,1.2,0.4,1.2,0.9l-0.2,36.1c0,0.5-0.4,0.8-0.9,0.8
							S307.3,521.8,307.3,521.3z"/>
						<path class="st12" d="M278.1,521l-0.3-33.3c0-0.5,0.4-0.8,0.9-0.9s0.9,0.4,0.9,0.8l0.4,33.3c0,0.5-0.4,0.8-0.9,0.9h0
							C278.5,521.8,278.1,521.4,278.1,521z"/>
						<path class="st12" d="M262.3,538.6l0.8-52.8c0-0.5,0.3-0.8,0.8-0.8c0.4,0,0.8,0.4,0.8,0.8l-0.6,52.8c0,0.5-0.4,0.8-0.9,0.8
							C262.7,539.4,262.3,539,262.3,538.6z"/>
						<path class="st12" d="M236.9,551.8l16.8-50.9c0.2-0.5,0.5-0.8,0.7-0.8c0.2,0,0.3,0.4,0.2,0.9L240,552.4
							c-0.1,0.4-0.9,0.7-1.8,0.5C237.3,552.7,236.7,552.2,236.9,551.8z"/>
						<path class="st12" d="M211.6,539.7l21.9-26.1c0.3-0.4,0.8-0.3,1.1,0c0.3,0.4,0.3,1,0.1,1.3L214,541.9
							c-0.3,0.4-1.1,0.2-1.7-0.4C211.6,540.9,211.3,540.1,211.6,539.7z"/>
						<path class="st13" d="M320.2,555.1c0,0-0.5-1-1.3-2.9c-0.4-0.9-1-2-1.6-3.2c-0.6-1.2-1.3-2.7-2.2-4.2
							c-0.8-1.5-1.7-3.1-2.7-4.9c-1-1.7-2-3.5-3-5.3c-2-3.7-4.5-7.7-6.2-11.7c-3.4-8.1-9.3-16.1-14.3-22.1c-5-6-9-10-9-10
							c-6.2-4-9.8-6-12-7c-2.1-1-2.8-0.9-2.9-0.9c0.7-0.3,4-0.2,8,0.3c4,0.5,8.7,1.6,11.9,3.4c3.1,1.8,8.2,6.7,13.2,12.7
							c2.5,3,5,6.3,7.2,9.5c0.5,0.8,1.1,1.6,1.6,2.5c0.6,0.8,1.1,1.7,1.6,2.5c1,1.6,1.8,3.2,2.5,4.8c1.4,3,2.8,6.3,4.2,9.3
							c0.7,1.5,1.4,3,2,4.4c0.6,1.4,1.2,2.8,1.7,4c1.1,2.5,1.9,4.6,2.4,6.1c0.6,1.5,0.9,2.4,0.9,2.4c0.3,0.6,0.6,1.3,1.1,2.1
							c0.4,0.8,0.8,1.7,1.3,2.6c0.4,0.9,0.9,1.9,1.4,2.8c0.4,1,0.9,1.9,1.3,2.9c0.8,1.8,1.5,3.6,1.9,4.8c0.2,0.6,0.4,1.1,0.5,1.5
							c0.1,0.4,0.2,0.6,0.2,0.6s0.2,0.7,0.7,1.6c0.2,0.4,0.5,0.8,0.8,1.2c0.4,0.4,0.8,0.8,1.3,1c0,0-0.6-0.2-1.5-0.6
							c-0.5-0.2-1-0.4-1.6-0.7c-0.3-0.2-0.6-0.3-0.9-0.5c-0.3-0.2-0.6-0.3-0.9-0.5c-1.3-0.8-2.7-1.8-4-3.2c-0.7-0.7-1.3-1.4-1.9-2.3
							C321.3,557.1,320.7,556.2,320.2,555.1z"/>
						<path class="st13" d="M357.1,554.5c-0.1-1.7-0.3-4.6-0.4-8.6c-0.1-4-0.1-9,0.2-14.8c0.2-3.4-0.2-7.2-0.9-11.2
							c-0.4-2-0.9-4-1.5-6c-0.6-2-1.4-4-2.2-6c-1.6-3.9-3.8-7.5-5.9-10.6c-2.2-2.9-4.4-5.4-6.3-6.8c-1.9-1.4-4.4-2.8-7.2-3.8
							c-1.4-0.5-2.9-1-4.3-1.5c-1.5-0.4-2.9-0.8-4.4-1.1c-2.9-0.7-5.5-0.9-7.6-1.1c-2.1-0.2-3.6-0.1-4.1,0c0,0,0.2,0,0.9,0.1
							c0.6,0.1,1.6,0.3,3.2,0.9c1.5,0.6,3.6,1.4,6.3,2.8c1.3,0.7,2.8,1.6,4.4,2.6c1.6,1,3.4,2.3,5.3,3.6c0,0,0.3,0.3,0.8,0.9
							c0.5,0.6,1.2,1.4,2.1,2.5c1.7,2.2,3.9,5.3,5.9,9c1,1.9,2,3.8,2.9,6c0.9,2.1,1.7,4.3,2.3,6.6c0.6,2.3,1.1,4.5,1.4,6.8
							c0.3,2.3,0.4,4.5,0.4,6.7c-0.2,7.2,0.4,14.4,0.9,20.3c0.3,3,0.5,5.7,0.8,7.9c0.3,2.3,0.6,4.1,0.8,5.3"/>
						<path class="st13" d="M212.3,512.5c-0.3,0.6-0.5,1.3-0.8,2.1c-0.1,0.4-0.2,0.9-0.4,1.3c-0.1,0.5-0.3,0.9-0.3,1.5
							c-0.1,0.6-0.2,1.1-0.2,1.7c-0.1,0.6-0.2,1.1-0.1,2c0.1,1.6,0.3,3.3,0.6,5.1c0.5,3.6,1.4,7.3,2.5,10.6c1.1,3.3,2.6,6.3,3.9,8.4
							c1.6,2.7,3.9,5.2,6.7,7.4c2.3,1.8,5.1,3.5,6.5,4c0,0-0.1,0-0.4-0.1c-0.3-0.1-0.6-0.2-1.1-0.4c-0.9-0.4-2.3-1-3.9-1.8
							c-3.2-1.7-7.6-4.5-11.4-8.5c-3.9-3.9-7.2-9.1-9.6-14.4c-0.6-1.3-1.1-2.6-1.6-3.9l-0.2-0.5l-0.1-0.2c0-0.1,0-0.1,0-0.2
							l-0.1-0.6c-0.1-0.4-0.2-0.9-0.2-1.3c-0.2-0.9-0.1-1.5-0.1-2.2c0.1-0.7,0.1-1.3,0.3-2"/>
					</g>
				</g>
			</g>
			<g>
				<polygon class="st10" points="504.9,527.8 506.4,530.7 509.6,530.1 				"/>
				<g>
					<path class="st11" d="M358.2,560.2c0.9-3.5,1.7-7,2.5-10.6c0-0.2-0.3-0.3-0.4-0.1l-2.2,4.2L358.2,560.2z"/>
					<g>
						<path class="st10" d="M358,560.6c8.1-3.3,17.8-7.2,26.6-11.5c4.4-2.1,8.5-4.3,12.1-6.4c3.6-2.1,6.7-4.1,9.2-5.8
							c0.9-0.6,1.8-1.2,2.6-1.7c0.8-0.5,1.6-1.1,2.3-1.5c1.4-0.9,2.7-1.7,3.7-2.4c1.1-0.7,2-1.2,2.8-1.7c0.8-0.5,1.5-0.9,2-1.1
							c0.3-0.1,0.6-0.2,0.8-0.3c0.2-0.1,0.4-0.2,0.6-0.3c0.4-0.1,0.7-0.2,0.9-0.2c0.5-0.1,0.7,0.1,0.7,0.1s-0.2-0.5-0.5-1
							c-0.3-0.5-0.7-1-1.1-1.1c-0.2,0-0.8-0.2-1.7-0.1c-0.5,0.1-1,0.1-1.7,0.2c-0.7,0.1-1.5,0.3-2.4,0.5c-1.9,0.4-4.3,1.1-7.3,2.1
							c-3.1,1-6.7,2.4-11,4.5c-4.6,2.2-10.3,4.9-16.6,7.8c-6.3,2.9-13.1,6-19.5,9.1"/>
						<path class="st10" d="M367.1,583.2c0.6,1.5,1.9,2.8,3.5,3.8c1.5,1,3.5,1.8,5.2,2.4c1.8,0.6,3.6,1,4.9,1.2
							c0.6,0.1,1.2,0.2,1.6,0.2c0.4,0,0.6,0.1,0.6,0.1c2,0,4.3-0.3,7.2-1c1.4-0.3,2.8-0.8,4.3-1.2c1.5-0.5,3.1-1.1,4.7-1.8
							c6.4-2.7,13.2-6.8,19-11.9c0.7-0.6,1.4-1.3,2.1-1.9c0.7-0.7,1.4-1.4,2-2c1.3-1.4,2.5-2.7,3.7-4.2c2.3-2.9,4.3-5.8,6-8.7
							c0.8-1.4,1.6-2.8,2.3-4.2c0.7-1.4,1.3-2.8,1.9-4.1c0.6-1.3,1.1-2.5,1.5-3.7c0.4-1.2,0.7-2.3,0.9-3.3c0.3-1,0.5-1.9,0.7-2.8
							c0.2-0.9,0.3-1.7,0.5-2.5c0.1-0.7,0.3-1.4,0.4-2.1c0.1-0.7,0.2-1.3,0.3-1.8c0.4-2.1,0.6-3.6,0.8-4.5c0.2-0.9,0.5-1.4,0.8-1.5
							c0.2-0.2,0.4-0.2,0.4-0.2c0,0-0.5-0.3-1-0.7c-0.5-0.3-1-0.6-1.3-0.5c-0.1,0.1-0.4,0.2-0.7,0.7c-0.2,0.3-0.4,0.5-0.6,0.9
							c-0.2,0.4-0.4,0.9-0.7,1.5c-0.3,0.6-0.6,1.4-1,2.2c-0.2,0.4-0.4,0.9-0.6,1.4c-0.1,0.3-0.2,0.5-0.4,0.8
							c-0.2,0.3-0.3,0.6-0.5,0.9c-0.7,1.2-1.5,2.6-2.4,4.2c-0.8,1.5-1.8,3.3-2.8,5.3c-0.9,1.7-2,3.6-3.3,5.8
							c-1.3,2.1-2.9,4.3-4.7,6.6c-1.8,2.2-3.9,4.6-6.1,6.8c-2.3,2.2-4.8,4.4-7.3,6.3c-5.2,3.9-10.8,7.1-15.7,9.3
							c-2.5,1.1-4.7,2-6.7,2.7c-2,0.7-3.6,1.1-4.9,1.3c-2.5,0.3-4.3,0.6-5.6,0.8c-1.3,0.2-2.2,0.3-2.9,0.3c-1.4,0.1-2.1-0.1-4.2-0.5
							L367.1,583.2z"/>
						<path class="st10" d="M520,535.6c0,0,0.1,0.9,0.3,2.5c0.1,1.6,0.2,3.8,0,6.3c-0.3,5.1-1.6,11.9-5.2,17.4c0,0-0.1,0.4-1,1.3
							c-0.5,0.4-1.1,1-2.1,1.7c-0.5,0.3-1,0.7-1.6,1.1c-0.6,0.4-1.4,0.8-2.2,1.3c0,0,0.5-0.7,1.1-1.9c0.6-1.3,1.4-3.2,2.1-5.6
							c1.2-4.9,1.6-12-1.3-20.2c1.6-0.6,3.3-1.2,5-1.8C516.7,537,518.4,536.3,520,535.6z"/>
						<path class="st12" d="M513.7,556L488.4,538c-0.4-0.3-0.4-0.8-0.2-1.2c0.3-0.4,0.8-0.5,1.2-0.3l25.6,17.5
							c0.4,0.3,0.4,0.9,0,1.4C514.7,556,514.1,556.2,513.7,556z"/>
						<path class="st12" d="M499.2,572.7l-38-38.6c-0.3-0.3-0.4-0.8-0.1-1c0.3-0.3,0.7-0.2,1.1,0.1l38.8,37.7c0.3,0.3,0.2,1-0.3,1.5
							C500.2,572.9,499.5,573,499.2,572.7z"/>
						<path class="st12" d="M475.3,574.4L446,528.8c-0.2-0.4-0.3-0.8-0.1-0.9c0.2-0.1,0.5,0.1,0.8,0.5l30.5,44.7
							c0.3,0.4,0,1-0.5,1.4S475.5,574.8,475.3,574.4z"/>
						<path class="st12" d="M450,563.4l-10.6-34.5c-0.1-0.5-0.1-0.8,0-0.9c0.1-0.1,0.4,0.2,0.5,0.7l11.7,34.2
							c0.2,0.4-0.1,0.9-0.6,1.1C450.7,564.1,450.2,563.8,450,563.4z"/>
						<path class="st12" d="M421.3,564.5l4.8-32.9c0.1-0.5,0.3-0.8,0.6-0.8c0.2,0,0.4,0.4,0.3,0.9l-3.9,33c-0.1,0.5-0.5,0.8-1,0.7
							C421.6,565.3,421.2,564.9,421.3,564.5z"/>
						<path class="st12" d="M400.4,577.1l18.4-49.5c0.2-0.4,0.5-0.7,0.7-0.6s0.3,0.5,0.2,1l-17.3,49.9c-0.2,0.4-0.7,0.6-1.3,0.4
							S400.3,577.6,400.4,577.1z"/>
						<path class="st12" d="M376.4,583.2L402,537c0.2-0.4,0.7-0.6,1.1-0.4c0.4,0.2,0.5,0.7,0.3,1.1l-25,46.5
							c-0.2,0.4-0.8,0.5-1.4,0.2S376.2,583.6,376.4,583.2z"/>
						<path class="st12" d="M360.4,575.6l18.1-28.6c0.2-0.4,0.8-0.5,1.2-0.2c0.4,0.3,0.6,0.8,0.3,1.2l-18,28.6
							c-0.3,0.4-0.8,0.5-1.2,0.2C360.3,576.5,360.1,576,360.4,575.6z"/>
						<path class="st13" d="M485.2,582.1c0,0-1.8,0.1-4.6,0c-2.9-0.2-6.9-0.5-11.2-1.6c-2.1-0.5-4.4-1.2-6.5-2.1
							c-2.2-0.8-4.3-2-6.3-3.2c-1-0.6-2-1.3-2.9-2c-0.9-0.7-1.8-1.5-2.7-2.3c-1.7-1.6-3.2-3.2-4.5-5c-1.3-1.8-2.6-3.6-3.9-5.4
							c-1.3-1.8-2.6-3.6-3.8-5.4c-1.2-1.8-2.4-3.5-3.6-5.2c-1.1-1.6-2.1-3.3-3-4.8c-1.8-3-3.1-5.6-3.9-7.4c-0.4-0.9-0.7-1.7-0.9-2.2
							c-0.2-0.5-0.3-0.8-0.3-0.8c-0.4-0.5-0.7-1.1-1-1.6c-0.3-0.5-0.6-1-0.8-1.4c-0.5-0.9-0.9-1.6-1.3-2.3c-0.7-1.4-1.2-2.2-1.6-2.9
							c-0.8-1.2-1.2-1.3-1.2-1.3c0.5-0.1,2.1,0.4,3.8,1.4c1.7,0.9,3.7,2.3,5.2,4.2c0.2,0.2,0.4,0.5,0.6,0.9c0.2,0.3,0.5,0.7,0.8,1.1
							c0.5,0.8,1.2,1.8,1.9,2.9c0.8,1.1,1.6,2.3,2.5,3.5c0.4,0.6,1,1.3,1.4,2c0.4,0.7,0.9,1.3,1.4,2c0.5,0.7,1,1.4,1.5,2.1
							c0.5,0.7,1.1,1.4,1.6,2.1c1.1,1.4,2.3,2.9,3.6,4.2c1.2,1.3,2.5,2.8,3.8,4c1.3,1.3,2.5,2.5,3.6,3.7c1.2,1.2,2.4,2.3,3.8,3.4
							c1.3,1.1,2.8,2.1,4.3,3c2.9,1.8,6.1,3.3,8.9,4.3c1.4,0.5,2.8,1,4.1,1.3c1.2,0.3,2.3,0.6,3.3,0.8c1.9,0.4,3,0.6,3,0.6
							c1.7,0.1,4.3,0,7.3-0.3c2.9-0.4,6.2-0.9,9.2-1.7c3.1-0.7,5.7-1.6,7.8-2.2c1-0.3,1.8-0.6,2.4-0.8c0.6-0.2,0.9-0.3,0.9-0.3
							s1.1-0.3,2.6-1.2c1.5-0.8,3.3-2.1,4.8-4c0,0-0.8,1.1-2.1,2.8c-0.3,0.4-0.7,0.9-1.1,1.4c-0.4,0.5-0.9,1-1.4,1.6
							c-1,1.1-2.2,2.3-3.5,3.5c-2.7,2.4-6,4.8-9.7,6.7C493.1,580.5,489,581.8,485.2,582.1z"/>
						<path class="st13" d="M509.9,530.1c-3.5,0.7-12.5,2.6-24,0.8c-6.6-1-15-1.5-22-2.6c-1.8-0.3-3.4-0.5-5-0.8
							c-1.5-0.3-3-0.6-4.3-0.9c-2.6-0.6-4.5-1.1-5.8-1.3c-1.2-0.1-2.4-0.2-3.5-0.1c-0.5,0-1,0-1.5,0.1c-0.5,0.1-0.9,0.1-1.3,0.2
							c-1.6,0.2-2.5,0.6-2.7,0.9c0,0,0,0,0.2,0c0.2,0,0.4,0.1,1,0.4c0.6,0.3,1.3,0.6,2.6,1.3c0.7,0.3,1.4,0.6,2.3,1
							c0.9,0.3,2,0.7,3.3,1.1c0,0,1,0.5,2.9,1.3c0.9,0.4,2.1,0.8,3.4,1.3c0.7,0.2,1.4,0.5,2.2,0.7c0.8,0.2,1.6,0.5,2.4,0.7
							c0.9,0.2,1.7,0.5,2.7,0.7c0.9,0.2,1.9,0.4,2.9,0.7c2,0.5,4.1,0.9,6.2,1.3c4.3,0.9,8.8,1.7,13.1,2.8c7,1.8,14.7,1.7,21.2,0.6
							c6.6-1.1,11.9-3,14.7-4.1"/>
						<path class="st13" d="M358.3,553.5c0,1.3,0.1,3.1,0.5,5.2c0.4,2.1,0.8,4.4,1.4,6.9c0.3,1.2,0.6,2.4,0.9,3.6
							c0.3,1.2,0.7,2.4,1,3.5c0.7,2.2,1.4,4.3,2.1,5.8c0.7,1.9,2,3.8,3.4,5.5c1.2,1.4,2.7,3,3.4,3.6c0,0-1.2-0.8-3-2.2
							c-1-0.7-1.9-1.5-3-2.4c-1.1-0.9-2.2-2-3.4-3.1c-2.3-2.2-4.5-4.7-6.2-7.3c-0.9-1.3-1.6-2.6-2.2-3.9c-0.6-1.3-1.1-2.6-1.4-4"/>
					</g>
				</g>
			</g>
			<g>
				<path class="st10" d="M536.8,373.5l2.7,1.8c0.9-0.6,1.7-1.2,2.6-1.9L536.8,373.5z"/>
				<g>
					<path class="st11" d="M515.9,527.8c-3.7-0.3-7.3-0.7-11-1.1c-0.2,0-0.3,0.3-0.2,0.4l4.4,1.9
						C511.3,528.7,513.6,528.2,515.9,527.8z"/>
					<g>
						<path class="st10" d="M516.3,527.9c-3.5-8.8-9.1-17.8-14.9-25.6c-5.8-7.8-11.7-14.4-15.8-19.1c-5.9-6.8-8.5-11.6-9.5-14.9
							c-1-3.2-0.5-4.9-0.5-4.9s-2.1,1.9-2.4,3.2c-0.1,0.7-0.5,3.8,0.5,8.4c1.1,4.7,3.6,10.9,9.3,18.4c6.1,8,15.4,19.8,21.9,33.2"/>
						<path class="st10" d="M538.1,513.2c1.4-0.9,2.4-2.4,3.1-4c0.7-1.6,1.1-3.5,1.3-5.2c0.2-1.7,0.2-3.3,0.2-4.4
							c0-1.1-0.1-1.9-0.1-1.9c-0.8-3.4-3.1-8.1-6.6-13.3c-3.4-5.2-7.9-11-12.8-16.6c-9.7-11.2-21.1-21.6-27.9-27.7
							c-6.8-6.1-9.6-10.6-10.7-13.7c-1.1-3.1-0.5-4.7-0.5-4.7s-2.5,2.7-2.5,4.2c0,0.7-0.3,3.7,1.2,8.2c1.5,4.4,4.7,10.3,11.4,17.1
							c5.9,5.9,15.6,15.3,23.9,24.9c8.4,9.5,15.3,19.2,17,23.6c1.7,4.4,2.4,6.4,2.8,7.7c0.4,1.3,0.3,2,0.4,4.1L538.1,513.2z"/>
						<path class="st10" d="M553.8,373.5c0,0,0,0.1,0.1,0.2c0.1,0.1,0.2,0.2,0.3,0.4c0.2,0.3,0.6,0.8,1,1.5c0.8,1.2,1.9,2.9,3,5
							c2.2,4.1,4.4,9.4,4.6,14.4c0,0,0.1,0.3-0.1,1.2c-0.2,0.9-0.9,2.6-2.4,5.1c0,0-0.1-2.4-1.8-6.2c-1.7-3.8-5.1-8.9-11.6-14.2
							c1.2-1.2,2.3-2.4,3.5-3.6C551.5,376.1,552.6,374.9,553.8,373.5z"/>
						<path class="st12" d="M558.3,391.6l-31-1.8c-0.5,0-0.8-0.5-0.8-0.9c0-0.5,0.4-0.9,0.9-0.9l31,1.6c0.5,0,0.8,0.5,0.8,1
							S558.8,391.6,558.3,391.6z"/>
						<path class="st12" d="M556.8,408.7l-53.9-4.7c-0.5,0-0.8-0.5-0.8-0.9v0c0-0.5,0.4-0.8,0.9-0.8l54,4.5c0.5,0,0.8,0.5,0.8,1
							C557.7,408.3,557.2,408.7,556.8,408.7z"/>
						<path class="st12" d="M541.6,422.1l-53.8-6.2c-0.5-0.1-0.8-0.5-0.7-0.9s0.5-0.8,0.9-0.7l53.8,6c0.5,0.1,0.8,0.5,0.7,1
							C542.5,421.7,542.1,422.1,541.6,422.1z"/>
						<path class="st12" d="M518.9,435.1l-35.7-5.3c-0.5-0.1-0.8-0.5-0.7-0.9c0.1-0.4,0.5-0.8,0.9-0.7l35.7,5.1
							c0.5,0.1,0.8,0.5,0.7,1C519.8,434.8,519.4,435.2,518.9,435.1z"/>
						<path class="st12" d="M512.9,463.7l-32.5-7.2c-0.5-0.1-0.7-0.5-0.6-1c0.1-0.4,0.5-0.7,1-0.6l32.5,7c0.5,0.1,0.7,0.6,0.6,1
							C513.8,463.5,513.4,463.8,512.9,463.7z"/>
						<path class="st12" d="M526.2,483.3l-51-13.8c-0.4-0.1-0.7-0.6-0.6-1s0.6-0.7,1-0.5l51.1,13.5c0.4,0.1,0.7,0.6,0.6,1.1
							C527.1,483.1,526.6,483.4,526.2,483.3z"/>
						<path class="st12" d="M536.3,504.2l-50.1-16.8c-0.4-0.1-0.7-0.6-0.5-1c0.1-0.4,0.6-0.7,1.1-0.5l50.2,16.4
							c0.4,0.1,0.7,0.7,0.5,1.2C537.3,504,536.7,504.3,536.3,504.2z"/>
						<path class="st12" d="M531.6,521.8l-31.2-13c-0.4-0.2-0.6-0.7-0.4-1.1s0.7-0.7,1.1-0.5l31.3,12.8c0.4,0.2,0.6,0.8,0.4,1.3
							C532.5,521.7,532,522,531.6,521.8z"/>
						<path class="st13" d="M553.8,420.5c0,0-4.2,3.8-10.6,8c-6.4,4.3-14.9,8.9-23.5,10.9c-8.5,2.1-17.4,6.2-24.3,9.6
							c-6.8,3.4-11.6,6.2-11.6,6.2c-5.2,4.7-8,7.5-9.4,9.3c-1.4,1.7-1.5,2.4-1.6,2.5c-0.1-0.8,0.7-3.8,2.1-7.3
							c1.4-3.5,3.4-7.5,5.8-9.9c2.4-2.4,8.1-6,14.9-9.6c6.7-3.6,14.5-7.2,20.9-9.1c6.4-1.9,13.2-4.9,18.2-7.5
							c5.1-2.6,8.6-4.8,8.6-4.8c2.5-1.8,6.6-5.9,10.1-9.6c3.5-3.7,6.3-7,6.3-7s2.6-2.8,2.9-6.4c0,0,0,4.1-1.1,9.2
							C560.6,410.1,558.3,416.3,553.8,420.5z"/>
						<path class="st13" d="M542.3,373.2c-2.8,2.4-9.9,7.5-20.8,11.8c-6.2,2.5-13.6,6.8-20,11c-6.4,4.3-11.8,8.5-13.9,11.2
							c-4.2,5.5-6.4,17.2-6.1,18.7c0,0,0-0.6,1.2-2.6c1.2-2,3.6-5.3,8.5-10.8c0,0,4.4-3.3,10.9-7.5c6.5-4.1,15-9.1,23.3-12
							c13.8-4.6,25.6-15,29.4-19.4"/>
						<path class="st13" d="M508.9,528.9c2.7-0.3,7.6-2,12.4-4.4c2.4-1.2,4.9-2.5,7.1-3.8c2.2-1.3,4.1-2.5,5.5-3.5
							c1.7-1.3,3.4-2.8,4.8-4.6c1.2-1.5,2.4-3.1,2.8-3.9c0,0-2.1,5.1-5.8,11c-3.7,5.9-9.4,12.5-15.3,15.2"/>
					</g>
				</g>
			</g>
		</g>
	</g>
</g>
<g>
	<path class="st0" d="M407,226.5c13.2,9.2,26.4,18.5,39.6,27.7c0.5-0.5,0.4-0.4,1-0.9c-3.9-6-7.6-12.2-11.6-18.1
		c-9.8-14.4-20.5-28.3-29.6-43.2c-11.5-18.9-18.9-39.5-18.9-61.4c0-17.2,3.2-34.4,10.9-50.2c8-16.3,17.7-31.6,29.9-45.5
		c1-1.2,2.2-2.3,4.5-4.9c-0.5,4.6-0.8,7.6-1.2,10.6c-4.1,27.5,8.1,48.5,30.4,63.9c17.1,11.7,36,20.9,54.1,31.3
		c8,4.6,15.8,9.2,24.2,14c-0.8-12.4-5.8-23.4-10.8-34.7c56.7,22.3,82.7,68.3,100.3,120.8c1-5,1.6-10.1,2.6-15
		c0.9-4.2,2-8.3,4.6-12.8c2.6,5.2,5.5,10.3,7.7,15.6c11.4,26.8,19.5,54.5,23.2,83.2c1.8,14,2.3,28.2,2,42.3c-0.4,15.4-1.2,30.9-4,46
		c-4.3,23.3-12.5,45.7-23.1,67.2c-14.7,29.9-33.9,56.9-58.7,79.8c-33.7,31.2-57.8,51-105.8,73.4C457.1,625.7,443,631,423,634.9
		c-41,7.1-78.4,6.4-81,6.1c54,0,136.6-57.6,153-69c29.3-20.4,46.9-42.6,57.7-75.1c4.5-13.7,6.5-27.9,6.7-42.6
		c0.5-26.1-7.2-49.4-21-71.3c-12.7-20.1-29.7-36.7-49.8-50.1c-14.6-9.7-30.4-17.8-44.7-27.8c-22.4-15.8-33.7-38-37.4-64.1
		c-0.6-4.5-1-8.9-1.6-13.4C405.9,227.1,406,227,407,226.5z"/>
	<path class="st14" d="M583.6,493.7c-1.4,2.5-2.7,4.7-4,6.8l2.3-4.3C581.8,496.3,582.5,495.3,583.6,493.7z"/>
	<path class="st2" d="M430.1,37.6c0,0-46.9,35.4-4.9,113.6s106.6,130.1,106.6,130.1s8-34.3,12.8-67.1c4.1-28.3,2.2-58.5-2.1-61
		C459.3,105.5,423.9,99.7,430.1,37.6z"/>
	<path class="st2" d="M408.1,230.5c0,0-9.8,55.8,71.4,94.5c4.3,2,36.8,25.3,49,41.7c10.7,14.2,21.1,29.3,25.6,45.7
		c9.3,34.6,5.3,67.1,5.3,67.1s32.1-150.6-51.2-188C451.4,265.9,448,279.8,408.1,230.5z"/>
	<path class="st2" d="M597.8,375.8c0,0-43.2-51.2-21.3-135.1c21.9-84-42.7-121.3-42.7-121.3s66.2,17.7,96,123.4
		C637,268.4,577.1,316.7,597.8,375.8z"/>
	<path class="st2" d="M623.7,487.8c-1.6,2.9-3.1,5.9-4.6,8.9c-16.3,33.4-66.6,75.2-106.6,98.6c-16.4,9.6-31.1,15.2-45.8,23.4
		C432,638,370,638,370,638s68-12,110.6-41.7c29.3-20.5,73-58.7,93.8-88.4c1.3-1.8,2.6-3.9,4.1-6.3c1.3-2.1,2.6-4.4,4-6.9
		c0,0,0,0,0,0c5.6-8.5,19.5-21.6,27-46.7c3.1-10.3,5.3-20.3,6.4-42.7c2-42.8,7.5-72.1,22.4-114.8c9.3-26.5-1.3-77.3-1.3-77.3
		c11.4,12.9,27.9,75.2,28.6,99.5c0,1.4,0.5,2.8,0.6,4.2C674.5,413.7,644.9,448.4,623.7,487.8z"/>
	<path class="st4" d="M430,37.6c0,0-35.1,22.2,6.9,100.4s88.5,125,88.5,125s-6.9-23.1-2.1-55.9c4.1-28.3,23.4-51.4,19.1-53.9
		C459.2,105.5,423.7,99.7,430,37.6z"/>
	<path class="st4" d="M585,321.9c0,0-16.6-6.5,5.3-90.4c21.9-84-56.6-112.2-56.6-112.2s66.2,17.7,96,123.4
		C637,268.4,592.5,263,585,321.9z"/>
</g>
<path class="st2" d="M78,462c0,0,19,38,58,9c0,0,14-9,27,2s14,22,14,22s-23-24-50-10S78,462,78,462z"/>
<path class="st2" d="M219,466c0,0-2.6-20.3,18.7-37.2C259,412,266,400,267,394c0,0-1.7,11.5-6,22C254,433,224,442,219,466z"/>
<path class="st2" d="M494,143c0,0-7.3,86,31.3,120"/>
<path class="st2" d="M613,227c0,0-31.9,34.9-28,94.9"/>
<path class="st15" d="M370,638c24-5.5,66.5-16.5,108.7-40.1c36.1-20.2,63-53.5,80.7-90.9c10-21.3,21.2-48.2,27.1-73.5l-12-2
	c6-43.6,7.5-94.6-28-133l-9,6c-6.3-5.6-17.2-18.9-25-24l7-11c-114.6-87-111.9-172.9-111.9-172.9s-0.6-37.3,20.6-61.7"/>
<path class="st15" d="M533.8,119.3l3.9,5.9c1.6,2.5,3.3,4.8,5.1,7.1c7.6,9.7,39.3,41.2,12.8,162.1l-9,4"/>
<path class="st15" d="M637.1,213.2c11.4,49.3-23,98.2-28.6,138.3c-6,43,0.8,71.5-7,85l-15-3"/>
<path class="st8" d="M408.1,230.5c0,0,2.4,29,97.4,60l6.7-10.2"/>
<path class="st16" d="M508.2,277.7"/>
<path class="st4" d="M443,288c0,0,95-2,106,85"/>
<path class="st4" d="M655,296c0,0-39,66-23,112C632,408,670,392,655,296z"/>
<path class="st0" d="M57.6,283.4"/>
</svg>
