<?xml version="1.0" encoding="utf-8"?>
<!-- Generator: Adobe Illustrator 27.7.0, SVG Export Plug-In . SVG Version: 6.00 Build 0)  -->
<svg version="1.1" id="Layer_1" xmlns="http://www.w3.org/2000/svg" xmlns:xlink="http://www.w3.org/1999/xlink" x="0px" y="0px"
	 viewBox="0 0 715 668" style="enable-background:new 0 0 715 668;" xml:space="preserve">
<style type="text/css">
	.st0{fill:#803C27;stroke:#333031;stroke-width:4;stroke-miterlimit:10;}
	.st1{fill:#FF784E;}
	.st2{fill:#BF5A3B;stroke:#333031;stroke-width:4;stroke-miterlimit:10;}
	.st3{fill:none;}
	.st4{fill:#FF9371;}
	.st5{fill:#FFC9B8;}
	.st6{fill:#BF5A3B;stroke:#333031;stroke-width:4;stroke-linecap:round;stroke-miterlimit:10;}
	.st7{fill:#09594E;stroke:#000000;stroke-width:0.5;stroke-miterlimit:10;}
	.st8{fill:#09594E;}
	.st9{fill:#FFFFFF;stroke:#000000;stroke-width:0.5;stroke-linecap:round;stroke-linejoin:round;stroke-miterlimit:10;}
	.st10{fill:#13B29C;stroke:#000000;stroke-width:0.5;stroke-miterlimit:10;}
	.st11{fill:#F1675C;}
	.st12{fill:none;stroke:#000000;stroke-width:4;stroke-miterlimit:10;}
	.st13{fill:none;stroke:#000000;stroke-width:4;stroke-linecap:round;stroke-miterlimit:10;}
	.st14{fill:none;stroke:#000000;stroke-width:5;stroke-miterlimit:10;}
	.st15{fill:#8D4750;}
	.st16{fill:none;stroke:#C7B299;stroke-width:2;stroke-linecap:round;stroke-miterlimit:10;}
</style>
<path class="st0" d="M173.1,100.5L199,78c0,0-11,18-10,44s-18.7,22.6-18.7,22.6l-15.3-2.6c0,0,24-1.9,15-24.9
	S173.1,100.5,173.1,100.5z"/>
<path class="st1" d="M172,103l20-16.2c0,0-16,18.2-18,24.2s-2,6-2,6V103z"/>
<path class="st2" d="M369.7,635c0,0-14.5,3-35.5,5.8C191.6,639.3,67.8,525,49.5,370.7C34.8,246.8,92.4,127.5,187,69
	c-15,29-18.3,30.8-17,48c2.1,26.1-15.4,24.5-15,24.9c0.2,0.2,21.9-2.9,48,9.1c14,6.4,28.3,19.5,40,37c4,6,8,9,24,22
	c12.9,10.5,22,17,18,31c-3.5,12.2-9.7,7.8-16,12c-9.5,6.3-19,12-32,13c-2.3,0.2-18-3-24-5c0,0-23,6-46,15c0,0,5.9-1.1,24-1
	c0,0-10.4,54.3,38.4,64.4c48.8,10.1,91.5,15.1,111.3,26.2c19.9,11.1,67.8,24.6,99.2,101.5C471.2,544,459.9,598.8,369.7,635z"/>
<path class="st3" d="M288,531c16.2,1.2,32,1.4,45.2,1.2"/>
<path class="st1" d="M373,385c0,0-17.6,32.8,32,102s20,113,20,113s57.9-41.3,9-141C409,408,394,400,373,385z"/>
<path class="st4" d="M387.8,534.9c-0.1,1.8-0.4,3.7-0.7,5.5c-4.1,21.3-22.5,39.1-48.9,50.2c-22.3,9.3-50.4,13.8-80.6,11.5
	c-23.4-1.8-45-7.4-63.1-15.7c-10.6-5.5-20.4-11.6-29.2-18.1c-14.9-11-27-23.1-35.3-35.4c-4.8-8.8-8.8-17.8-11.9-26.6
	c-16.6-46.3-11.5-91.2,17.4-114.3c41.3-33.1,110.2-12.7,160.5,50c2.8,3.4,10.5,16.5,13,20C357.2,476,390.4,501.3,387.8,534.9z"/>
<path class="st1" d="M96,165c30-51,86-91,86-91c-20.1,19.1-66,50-46,77c0,0-70,34-82,186c0,0-0.3,46.8,2,61
	c2.5,15.8-14.6-42.7-3-118C58.6,243.4,73.6,203.1,96,165z"/>
<path class="st5" d="M350.6,535.4c-0.1,1.4-0.3,2.7-0.5,4c-3,15.7-16.5,28.7-35.9,36.9c-16.4,6.9-37,10.2-59.2,8.5
	c-17.2-1.3-33-5.4-46.4-11.6c-7.8-4.1-15-8.5-21.4-13.3c-11-8.1-19.8-16.9-25.9-26c-3.5-6.5-6.4-13-8.8-19.6
	c-12.2-34-8.4-66.9,12.8-83.9c30.3-24.3,80.9-9.4,117.9,36.7c2,2.5,7.7,12.1,9.5,14.7C328,492.2,352.4,510.7,350.6,535.4z"/>
<path class="st6" d="M138,282c15.8,1.4,100.3-17.6,93.6-16.5S205.5,255,205.5,255"/>
<path class="st4" d="M207,254c0,0,27,25,63-4c0,0,12-8,7-30l-10-8C267,212,226,204,207,254z"/>
<path class="st5" d="M221,262c0,0,22,11,49.2-12.6c0,0,11.8-7.4,6.8-29.4h-2C275,220,237,221,221,262z"/>
<g>
	<g>
		<g>
			<g>
				<path class="st7" d="M284.5,60.4c0.4-1.1,0.9-2.1,1.4-3.1c-1-0.6-2.1-1.3-3.1-1.8L284.5,60.4z"/>
				<g>
					<path class="st8" d="M435.7,94.1l-2,10.8c0,0.2,0.3,0.4,0.4,0.2l2.2-4.2C436,98.5,435.9,96.3,435.7,94.1z"/>
					<g>
						<path class="st7" d="M435.9,93.7c-8.5,3.2-17.7,8-26.1,12.9c-8.4,4.8-15.9,9.7-21.1,13c-7.8,4.8-13.1,6.4-16.5,6.8
							c-1.7,0.2-2.9,0.1-3.7,0c-0.8-0.2-1.2-0.4-1.2-0.4s1.5,2.4,2.8,2.9c0.7,0.2,3.7,1.2,8.6,1c4.9-0.2,11.7-1.6,20.1-6.2
							c4.5-2.4,9.9-5.6,15.9-9c6-3.3,12.4-6.9,19.1-9.8"/>
						<path class="st7" d="M425.2,71.5c-1.3-2.9-4.6-4.4-7.7-5.2c-3-0.8-5.8-0.8-5.8-0.8c-6.5,0.7-19.3,6.7-31.8,14.4
							c-6.3,3.8-12.5,8.1-18,12.1c-5.5,4-10.2,7.8-13.7,10.7c-7,5.7-11.5,7.9-14.5,8.6c-1.5,0.3-2.5,0.3-3.2,0.2
							c-0.7-0.1-1-0.3-1-0.3s0.5,0.7,1.2,1.4c0.7,0.7,1.5,1.4,2.1,1.6c0.7,0.1,3.2,0.7,7.5-0.1c4.3-0.8,10.3-3,18.1-8.5
							c6.7-4.8,17.6-12.6,28.3-19.2c10.7-6.7,21-12.1,25.4-13.2c8.8-2.2,7.6-2.1,11.4-1.8L425.2,71.5z"/>
						<path class="st7" d="M279.2,44.2c0,0,0.8-0.9,2.4-2.1c0.8-0.6,1.8-1.4,3-2.2c1.2-0.8,2.5-1.6,4.1-2.4c0.8-0.4,1.5-0.8,2.3-1.2
							c0.7-0.4,1.4-0.7,2.2-1.1c0.8-0.4,1.5-0.7,2.4-1.1c0.8-0.3,1.6-0.6,2.4-0.9c0.8-0.3,1.7-0.6,2.5-0.8c0.8-0.2,1.7-0.4,2.5-0.6
							c0.8-0.2,1.7-0.3,2.5-0.4c0.8-0.1,1.6-0.2,2.5-0.2c0,0,0.4-0.1,1.6,0.1c1.3,0.2,3.3,0.9,6.5,2.4c0,0-0.8,0-2.1,0.2
							c-1.3,0.2-3.2,0.6-5.6,1.6c-4.7,1.8-11.2,5.5-16.8,13c-1.9-0.8-3.9-1.7-5.9-2.4C283.5,45.4,281.4,44.7,279.2,44.2z"/>
						<path class="st9" d="M303.9,35.7l0.1,31c0,0.5-0.4,0.8-0.9,0.8c-0.5,0-0.9-0.4-0.9-0.8l-0.7-31c0-0.5,0.5-0.8,1.2-0.9
							C303.3,34.9,303.9,35.3,303.9,35.7z"/>
						<path class="st9" d="M324.7,37.7l-8,53.5c-0.1,0.5-0.5,0.8-0.8,0.7c-0.4-0.1-0.7-0.5-0.6-0.9l7.3-53.6
							c0.1-0.5,0.6-0.8,1.2-0.7C324.3,36.7,324.7,37.2,324.7,37.7z"/>
						<path class="st9" d="M337.9,54.3l-12.7,52.6c-0.1,0.4-0.5,0.7-0.9,0.6c-0.4-0.1-0.6-0.5-0.5-1L336,53.8
							c0.1-0.5,0.6-0.7,1.1-0.6C337.7,53.4,338,53.8,337.9,54.3z"/>
						<path class="st9" d="M347.7,78.6L336.8,113c-0.1,0.4-0.6,0.7-1,0.6c-0.4-0.1-0.6-0.6-0.5-1L346,78.1c0.1-0.4,0.6-0.7,1.1-0.5
							C347.6,77.7,347.8,78.2,347.7,78.6z"/>
						<path class="st9" d="M374.2,89.3L361.3,120c-0.2,0.4-0.7,0.6-1.1,0.5c-0.4-0.2-0.6-0.7-0.4-1.1l12.8-30.7
							c0.2-0.4,0.7-0.6,1.1-0.4C374.1,88.4,374.4,88.9,374.2,89.3z"/>
						<path class="st9" d="M395.4,79.5l-22.3,47.9c-0.2,0.4-0.7,0.6-1.1,0.4c-0.4-0.2-0.6-0.7-0.4-1.1l22.1-48
							c0.2-0.4,0.7-0.6,1.2-0.4S395.6,79.1,395.4,79.5z"/>
						<path class="st9" d="M416.7,72.4l-23.8,47.2c-0.2,0.4-0.7,0.6-1.1,0.4c-0.4-0.2-0.6-0.7-0.4-1.1l23.6-47.2
							c0.2-0.4,0.8-0.6,1.2-0.3C416.7,71.4,416.9,72,416.7,72.4z"/>
						<path class="st9" d="M432.1,78.5l-16.2,29.7c-0.2,0.4-0.7,0.6-1.2,0.3c-0.4-0.2-0.6-0.7-0.4-1.2l16.1-29.7
							c0.2-0.4,0.8-0.5,1.2-0.3C432.2,77.5,432.3,78.1,432.1,78.5z"/>
						<path class="st10" d="M337.7,41.9c0,0,0.9,1.2,2.3,3.2c0.7,1,1.5,2.3,2.3,3.7c0.8,1.4,1.7,3,2.6,4.8c3.5,7,6.7,16.2,7.2,24.9
							c0.6,8.7,2.9,18.2,4.8,25.4c2,7.3,3.8,12.4,3.8,12.4c3.6,5.9,5.9,9.1,7.4,10.9c1.5,1.7,2.1,2,2.2,2c-0.8,0-3.7-1.4-6.9-3.4
							c-3.2-2-6.6-4.6-8.5-7.4c-1.9-2.8-4.2-9-6.3-16.2c-2.1-7.2-4.2-15.3-5-22c-0.8-6.6-2.8-13.7-4.8-19.1c-1-2.7-2-5-2.7-6.6
							c-0.7-1.6-1.2-2.5-1.2-2.5c-1.6-2.7-5.6-7.3-9.6-11.1c-2-1.9-4-3.6-5.5-4.8c-1.6-1.2-2.5-2-2.5-2s-0.2-0.2-0.6-0.4
							c-0.4-0.3-0.9-0.6-1.7-1c-1.5-0.7-3.4-1.5-5.8-1.6c0,0,0.3,0,0.9,0c0.6,0,1.5,0,2.5,0.1c1,0.1,2.3,0.2,3.7,0.4
							c1.3,0.2,2.8,0.5,4.4,0.8C326.7,33.9,333.6,36.9,337.7,41.9z"/>
						<path class="st10" d="M282.4,55.3c0.9,0.4,2.1,1.1,3.6,2c1.4,0.9,3,2,4.7,3.5c3.4,2.9,6.4,7,9,12.2c0.7,1.5,1.6,3,2.4,4.6
							c0.9,1.6,1.7,3.3,2.6,4.9c1.8,3.3,3.6,6.7,5.2,9.9c3.3,6.3,6.1,11.9,8.1,14.1c2,2.3,5.3,4.1,8.4,5.5c3.1,1.4,5.9,2.3,6.6,2.2
							c0,0-0.6-0.1-2.1-1.5c-1.6-1.4-4-4.2-8.1-9.4c0,0-0.6-1.2-1.5-3.2c-0.9-2-2.2-4.8-3.8-8.1c-1.5-3.3-3.3-7.1-5.1-11.1
							c-1.8-4-3.7-8.2-5.2-12.3c-2.5-6.8-7-13-12.3-17.5c-1.4-1.1-2.6-2.2-4.2-3c-1.5-0.9-3-1.6-4.5-2.3c-2.9-1.2-5.5-2.1-7.3-2.5"
							/>
						<path class="st10" d="M436.1,101c-0.1-2.7-1.3-7.5-2.9-12.4c-1.6-4.9-3.6-9.8-5-12.7c-0.9-1.8-2-3.5-3.4-5.1
							c-1.1-1.3-2.5-2.6-3.1-3.1c0,0,4.3,2.5,9.1,6.6c2.4,2,4.9,4.4,7,7.1c2.2,2.6,3.9,5.4,5,8.4"/>
					</g>
				</g>
			</g>
			<g>
				<polygon class="st7" points="309.4,195.3 306.8,197.1 307.6,200.2 				"/>
				<g>
					<path class="st8" d="M275.1,53.3c1.5,1.2,3,2.5,4.4,3.8c1.4,1.3,2.8,2.7,4,4.1c0.2,0.2,0.5,0,0.5-0.2l-1.8-4.4
						c-1.1-0.6-2.3-1.2-3.4-1.8C277.5,54.3,276.3,53.8,275.1,53.3z"/>
					<g>
						<path class="st7" d="M274.8,52.9c-1.3,2.3-2.3,5-3.1,7.5c-0.4,1.3-0.7,2.6-1,3.9c-0.1,0.7-0.2,1.3-0.4,1.9
							c-0.1,0.7-0.2,1.3-0.2,2c-0.1,1.3-0.2,2.6-0.2,3.9c0,1.3,0.1,2.6,0.2,3.9c0.1,0.6,0.1,1.2,0.2,1.9c0.1,0.6,0.2,1.3,0.3,1.9
							c0.2,1.2,0.5,2.4,0.8,3.6c0.7,2.4,1.6,4.5,2.6,6.6c1,2,2.1,3.8,3.3,5.5c2.3,3.3,4.9,5.8,7,7.6c6.3,5.3,10.3,5.7,11.8,7.6
							c0.4,0.4,0.7,0.8,0.9,1.1c0.2,0.3,0.4,0.6,0.4,0.9c0.2,0.5,0.1,0.7,0.1,0.7s0.4-0.3,0.8-0.7c0.2-0.2,0.4-0.4,0.6-0.6
							c0.2-0.2,0.3-0.4,0.3-0.5c0-0.1,0-0.2-0.1-0.5c0-0.1-0.1-0.2-0.1-0.4c0-0.1-0.1-0.2-0.1-0.2c0,0,0-0.1-0.1-0.1l-0.1,0
							c-0.3-0.2-1-0.7-2.1-1.1c-1.1-0.5-2.5-1.5-4.4-3.1c-1.8-1.7-4.1-4.2-6.3-7.8c-0.6-0.9-1.3-2.1-1.8-3.2
							c-0.6-1.1-1.1-2.4-1.7-3.8c-0.5-1.3-0.9-2.7-1.3-4.3c-0.4-1.5-0.7-3-0.9-4.7c-0.9-6.6,0.1-13.9,3.2-21.1"/>
						<path class="st7" d="M240.5,60.8c-1.1,0.5-2.1,1.3-3.1,2.2c-1,0.9-1.9,2-2.7,3.2c-1.6,2.4-3,5.2-3.9,7.9
							c-0.4,1.3-0.8,2.6-1.1,3.8c-0.3,1.2-0.4,2.3-0.6,3.2c-0.3,1.8-0.4,2.9-0.4,2.9c0.1,2.6,0.5,5.8,1.5,9c1.1,3.1,2.4,6.7,4.5,9.5
							c3.9,5.9,9.5,11.2,15.5,15.7c1.6,1.1,3.1,2.2,4.7,3.2c1.6,1,3.1,2,4.8,2.8c1.6,0.9,3.3,1.6,4.8,2.3c0.8,0.3,1.6,0.7,2.4,1
							c0.8,0.3,1.6,0.6,2.4,0.8c3.2,1,6,1.8,8.8,2.2c2.8,0.4,5.1,0.7,7.3,0.7c2.1,0.1,3.9,0.1,5.4,0.1c1.6,0,2.9-0.1,4-0.1
							c1.1,0,2,0,2.8,0c0.8,0,1.4,0,1.8,0.1c1,0.1,1.5,0.3,1.8,0.6c0.3,0.2,0.3,0.4,0.3,0.4s0.2-0.6,0.4-1.2
							c0.2-0.6,0.3-1.2,0.1-1.4c-0.2-0.3-0.9-1-3.6-1.6c-2.6-0.7-7.3-1.3-15.8-3.6c-1.8-0.5-3.9-1.2-6.3-2.1
							c-0.6-0.2-1.2-0.5-1.8-0.7c-0.6-0.3-1.2-0.5-1.8-0.8c-1.2-0.6-2.5-1.2-3.8-1.8c-2.6-1.3-5.2-2.9-7.8-4.7
							c-2.7-1.8-5.2-3.7-7.6-5.8c-2.5-2.1-4.7-4.4-6.8-6.7c-2-2.5-3.8-5.1-5.2-7.8c-1.3-2.6-2.5-5.3-3.2-7.6
							c-0.7-2.3-1.1-4.4-1.2-6.1c-0.1-3.2-0.2-5.6-0.1-7.4c0.1-1.8,0.2-3,0.3-3.9c0.3-2,0.7-2.9,2-5.9
							C239.7,62.4,240,61.6,240.5,60.8z"/>
						<path class="st7" d="M303,211.1c0,0-0.9,0.2-2.3,0.5c-1.5,0.3-3.6,0.7-6,0.8c-4.9,0.4-11.4-0.2-16.9-2.7c0,0-0.4,0-1.3-0.8
							c-0.9-0.8-2.4-2.2-4.5-5.1c0,0,0.2,0.1,0.5,0.2c0.3,0.2,0.8,0.4,1.5,0.6c1.3,0.4,3.2,0.9,5.6,1.2c2.4,0.2,5.3,0.2,8.5-0.3
							c3.2-0.6,6.8-1.7,10.6-3.6C300,204.9,301.5,207.9,303,211.1z"/>
						<path class="st9" d="M283.2,207.4l14.9-27.3c0.2-0.4,0.8-0.5,1.2-0.3s0.6,0.8,0.4,1.2l-14.5,27.5c-0.2,0.4-0.8,0.5-1.4,0.2
							C283.2,208.4,283,207.8,283.2,207.4z"/>
						<path class="st9" d="M265.8,195.8l32.8-43.1c0.3-0.4,0.8-0.5,1-0.3c0.3,0.2,0.3,0.7,0,1.1l-31.9,43.7c-0.3,0.4-0.9,0.4-1.5,0
							C265.7,196.8,265.5,196.2,265.8,195.8z"/>
						<path class="st9" d="M261.2,173.1l39.9-36.6c0.3-0.3,0.8-0.4,0.9-0.2c0.2,0.2,0,0.6-0.3,0.9l-39,37.6c-0.3,0.3-1,0.2-1.4-0.2
							l0,0C260.9,174.1,260.9,173.5,261.2,173.1z"/>
						<path class="st9" d="M267.7,146.8l31.7-17.2c0.4-0.2,0.8-0.3,0.9-0.1c0.1,0.2-0.2,0.5-0.6,0.7l-31.2,18.2
							c-0.4,0.2-0.9,0.1-1.2-0.3S267.3,147.1,267.7,146.8z"/>
						<path class="st9" d="M261.2,119.6l33.2-1.4c0.5,0,0.9,0.2,0.9,0.4c0,0.2-0.4,0.5-0.8,0.5l-33.2,2.2c-0.5,0-0.9-0.3-0.9-0.8
							S260.8,119.6,261.2,119.6z"/>
						<path class="st9" d="M244.6,102l52.2,8.1c0.5,0.1,0.8,0.3,0.8,0.5c0,0.2-0.4,0.3-0.9,0.3l-52.4-6.7c-0.5-0.1-0.8-0.6-0.7-1.2
							C243.7,102.3,244.1,101.9,244.6,102z"/>
						<path class="st9" d="M237.5,73.8l45.9,26.6c0.4,0.2,0.6,0.6,0.6,0.8c-0.1,0.2-0.5,0.2-0.9,0l-47-24.6c-0.4-0.2-0.4-1,0-1.8
							C236.4,74,237.1,73.6,237.5,73.8z"/>
						<path class="st9" d="M254.3,51.5l20.8,26.6c0.3,0.4,0.2,0.9-0.1,1.2c-0.4,0.3-0.9,0.2-1.2-0.1l-21.9-25.7
							c-0.3-0.4,0-1.1,0.7-1.7C253.2,51.3,254,51.1,254.3,51.5z"/>
						<path class="st10" d="M255.1,184.1c0,0-0.3-1.7-0.6-4.5c-0.3-2.7-0.5-6.7-0.1-10.9c0.2-2.1,0.5-4.4,1-6.7
							c0.5-2.2,1.2-4.5,2-6.7c1.6-4.3,4.2-8.4,7.2-11.5c1.5-1.6,3-3.3,4.5-4.9c1.5-1.7,2.9-3.2,4.4-4.8c1.5-1.6,3-3,4.4-4.3
							c0.7-0.7,1.4-1.3,2.1-1.9c0.7-0.6,1.4-1.2,2.1-1.7c2.6-2.1,5.1-3.8,6.6-4.9c0.8-0.5,1.5-1,1.9-1.3c0.5-0.3,0.7-0.5,0.7-0.5
							c1-0.9,1.8-1.7,2.6-2.4c0.8-0.8,1.4-1.5,2-2.1c0.3-0.3,0.5-0.6,0.8-0.8c0.3-0.2,0.5-0.4,0.7-0.6c0.4-0.4,0.7-0.7,1-1
							c0.3-0.3,0.4-0.5,0.6-0.7c0.2-0.2,0.3-0.3,0.3-0.4c0.1-0.2,0.1-0.3,0.1-0.3c0.1,0.1,0.1,0.2,0.1,0.5c0,0.2,0,0.5-0.1,0.9
							c-0.1,0.7-0.3,1.6-0.6,2.9c-0.1,0.3-0.2,0.6-0.3,0.9c-0.1,0.3-0.2,0.6-0.3,0.9c-0.2,0.5-0.4,1-0.7,1.6
							c-0.3,0.5-0.6,1.1-0.9,1.5c-0.3,0.5-0.7,0.9-1.1,1.3c-0.9,0.9-2.3,2-4.3,3.7c-0.2,0.2-0.5,0.4-0.8,0.6
							c-0.2,0.2-0.5,0.4-0.7,0.7c-0.5,0.5-1,0.9-1.6,1.4c-1.1,1-2.3,2.2-3.4,3.4c-1.1,1.2-2.3,2.5-3.5,3.9c-1.1,1.4-2.2,2.8-3.4,4.3
							c-0.6,0.8-1.1,1.5-1.7,2.3c-0.5,0.7-1,1.5-1.5,2.2c-1,1.5-2,2.9-3,4.3c-2,2.7-3.5,5.8-4.9,9c-1.3,3.2-2.2,6.4-2.8,9.4
							c-0.6,2.9-0.9,5.5-1,7.4c-0.1,0.9-0.1,1.7-0.1,2.2c0,0.5,0,0.8,0,0.8c0.1,1.7,0.5,4.1,1.2,6.9c0.7,2.7,1.6,5.8,2.7,8.5
							c1,2.7,2.1,5.4,2.9,7.1c0.8,1.8,1.4,3,1.4,3s0.4,1,1.4,2.4c0.9,1.3,2.3,2.9,4.3,4.1c0,0-1.1-0.6-2.9-1.7
							c-1.7-1-4.1-2.8-6.7-4.9c-1.3-1.1-2.6-2.4-3.8-3.7c-0.6-0.7-1.3-1.3-1.9-2.1c-0.6-0.8-1.2-1.5-1.7-2.3
							C257.6,191.4,255.8,187.7,255.1,184.1z"/>
						<path class="st10" d="M307.6,200.5c-0.5-1.7-1.3-4.7-2-8.7c-0.7-4.1-1.1-9.1-0.8-14.9c0.1-1.7,0.1-3.4,0.1-5.2
							c0-1.8,0-3.7,0-5.6c-0.1-3.8-0.1-7.7-0.1-11.2c0.1-3.6,0.1-6.8,0.3-9.5c0.1-1.3,0.1-2.5,0.2-3.5c0.1-1,0.1-1.9,0.1-2.5
							c-0.1-1.3-0.3-2.5-0.7-3.6c-0.2-0.6-0.3-1.1-0.5-1.6c-0.2-0.5-0.4-0.9-0.5-1.4c-0.1-0.4-0.3-0.8-0.5-1.1
							c-0.2-0.3-0.3-0.6-0.4-0.9c-0.3-0.5-0.6-0.7-0.8-0.8c0,0,0,0,0.1,0.2c0,0.2,0,0.5-0.1,1.1c-0.1,0.3-0.2,0.7-0.3,1.2
							c-0.1,0.5-0.2,1.1-0.4,1.8c-0.2,0.7-0.4,1.6-0.5,2.6c-0.1,0.5-0.1,1.1-0.2,1.7c-0.1,0.6-0.2,1.3-0.2,1.9c0,0-0.3,1.1-0.8,3.1
							c-0.3,1-0.5,2.2-0.7,3.6c-0.2,1.4-0.5,3-0.7,4.8c-0.2,1.8-0.4,3.7-0.6,5.7c-0.2,2-0.3,4.1-0.5,6.3c-0.2,2.2-0.3,4.4-0.5,6.6
							c-0.2,2.2-0.4,4.5-0.7,6.6c-0.5,3.6-0.5,7.2-0.3,10.8c0.3,3.5,0.9,7,1.7,10.2c0.8,3.1,1.8,6,2.7,8.4c0.9,2.4,1.8,4.3,2.4,5.6"
							/>
						<path class="st10" d="M282.2,56.9c-1.2-0.8-3.3-1.7-5.9-2.4c-2.7-0.7-5.9-1.2-9.3-1.3c-1.7,0-3.5,0-5.2,0.1
							c-1.7,0.2-3.5,0.4-5.1,0.7c-1.7,0.3-3.2,0.7-4.7,1.1c-0.7,0.2-1.4,0.4-2.1,0.6c-0.6,0.2-1.3,0.5-1.8,0.7
							c-1.4,0.6-2.9,1.2-4.3,2.1c-1.4,0.9-2.8,1.9-4.2,3c-2.1,1.9-4.6,4.2-5.4,5.4c0,0,0.3-0.5,0.9-1.3c0.6-0.8,1.5-2,2.7-3.4
							c2.3-2.8,5.9-6.3,10.4-9.5c4.5-3.1,9.9-5.8,15.2-7.2c2.7-0.7,5.3-1.2,7.8-1.3c1.3-0.1,2.4-0.1,3.6,0c1.2,0.1,2.2,0.2,3.3,0.4"
							/>
					</g>
				</g>
			</g>
			<g>
				<path class="st7" d="M383.4,272.5c-0.6-0.8-1.2-1.6-1.8-2.4c-1,0-1.9,0-2.9,0L383.4,272.5z"/>
				<g>
					<path class="st8" d="M310.3,206.1c0-3.7,0.1-7.3,0.3-11c0-0.2-0.3-0.3-0.4-0.1l-1.5,4.5C309.1,201.7,309.7,203.9,310.3,206.1z"
						/>
					<g>
						<path class="st7" d="M310.1,206.5c8.2-4.4,16.5-10.7,23.8-17c7.3-6.3,13.7-12.5,18.3-16.7c6.7-6.2,11.8-8.7,15.3-9.7
							c1.7-0.5,3.1-0.6,4-0.5c0.9,0,1.4,0.2,1.4,0.2s-0.5-0.6-1.3-1.1c-0.7-0.6-1.6-1.2-2.4-1.3c-0.8-0.1-4.2-0.6-9.1,0.5
							c-4.9,1.1-11.3,3.8-18.5,9.9c-7.8,6.5-18.8,16.7-31.2,24.5"/>
						<path class="st7" d="M325.2,226.9c0.9,1.3,2.3,2.2,3.9,2.8c1.5,0.6,3.3,0.8,4.8,0.9c3.2,0.2,5.8-0.3,5.8-0.3
							c3-0.9,7.1-3.3,11.7-6.6c2.3-1.7,4.8-3.6,7.3-5.6c0.6-0.5,1.3-1,1.9-1.6c0.3-0.3,0.6-0.5,1-0.8l0.7-0.9c0.9-1.2,2-2.4,3.2-3.5
							c1.3-1.3,2.7-2.5,4.2-3.7c0.8-0.6,1.5-1.1,2.3-1.6c0.8-0.5,1.6-0.9,2.4-1.4c3.2-1.7,6.8-2.9,10.4-3.7c1.8-0.4,3.6-0.7,5.5-1
							c1.8-0.2,3.6-0.4,5.4-0.4c3.4-0.3,6.4-0.4,9.1-0.4c2.6,0,4.9,0.3,7.1,0.7c2.1,0.5,4,1.1,5.8,1.7c3.4,1.5,6,3.2,7.8,4.9
							c1.8,1.7,3,3.3,3.6,4.5c0.7,1.2,0.9,1.9,0.9,1.9s-0.1-1.4-0.4-3.1c-0.3-1.7-0.8-3.6-1.5-4.7c-0.3-0.5-1.2-1.9-2.7-3.7
							c-0.8-0.9-1.7-1.9-2.7-2.9c-1.1-1-2.4-2.1-3.8-3.1c-1.4-1-3.1-2-4.9-2.9c-1.8-0.9-3.8-1.7-5.9-2.3c-2.1-0.5-4.7-1.4-7.5-1.8
							c-2.7-0.5-5.6-0.6-8.4-0.3c-3.1,0.3-6.6,0.9-10.2,2.1c-1.8,0.6-3.6,1.3-5.4,2.3c-1.9,1-3.7,2.2-5.4,3.4
							c-3.8,2.7-6.8,5.7-10.1,8.6c-3.2,2.9-6.3,5.7-9.3,8.2c-5.9,5-11,8.9-13.8,10.3c-4.1,1.9-5.9,2.8-7.1,3.2
							c-1.2,0.4-1.9,0.5-3.8,0.7L325.2,226.9z"/>
						<path class="st7" d="M368.4,264.5c0,0-0.3-0.6-0.8-1.5c-0.5-0.9-1-2.2-1.8-3.4c-0.8-1.3-1.4-2.6-2.2-3.6
							c-0.4-0.5-0.6-1-0.8-1.5c-0.3-0.4-0.5-0.8-0.5-1.2c0,0-0.1-0.1,0.1-0.3c0.2-0.2,0.7-0.5,2.2-1.1c0,0,0,0.2,0.3,0.5
							c0.1,0.2,0.3,0.4,0.6,0.6c0.2,0.1,0.3,0.3,0.5,0.4c0.2,0.2,0.3,0.3,0.5,0.5c0.4,0.4,0.9,0.8,1.5,1.4c0.3,0.3,0.7,0.6,1,0.9
							c0.3,0.3,0.7,0.7,1.1,1.1c0.8,0.8,1.7,1.7,2.8,2.7c1,1.1,2.1,2.2,3.3,3.6C373.8,264.1,371,264.4,368.4,264.5z"/>
						<path class="st9" d="M366.6,255.2l30.1,7.5c0.4,0.1,0.7,0.6,0.6,1c-0.1,0.4-0.6,0.7-1.1,0.6l-29.9-8.4
							c-0.4-0.1-0.8-0.4-0.7-0.6C365.7,255.1,366.1,255,366.6,255.2z"/>
						<path class="st9" d="M367.4,249.8l54.1-3.1c0.5,0,0.9,0.5,0.9,1.2c0,0.7-0.3,1.2-0.8,1.3l-54.1,1.2c-0.5,0-0.9-0.1-0.9-0.2
							C366.6,250,366.9,249.9,367.4,249.8z"/>
						<path class="st9" d="M379.6,240.9l51.3-17.2c0.4-0.1,1,0.3,1.2,1.1c0.2,0.8,0.1,1.5-0.4,1.6l-51.9,15.5c-0.4,0.1-0.9,0-1-0.3
							C378.8,241.4,379.1,241,379.6,240.9z"/>
						<path class="st9" d="M392.6,220.5l30.2-19.7c0.4-0.3,1,0.1,1.4,0.7c0.4,0.6,0.4,1.4,0,1.6L393.5,222c-0.4,0.2-0.9,0.1-1.2-0.3
							S392.2,220.8,392.6,220.5z"/>
						<path class="st9" d="M372.3,200.3l13.4-30.5c0.1-0.2,0.4-0.3,0.7-0.4c0.2,0,0.4,0,0.6,0c0.1,0,0.2,0,0.3,0.1l0,0l0,0l0,0l0,0
							c0,0,0-0.1,0,0.1l0,0l0,0l0,0l0.1,0l0.2,0.1c0.8,0.3,1.4,1,1.1,1.4l-14.7,29.8c-0.2,0.4-0.7,0.6-1.2,0.4
							C372.3,201.2,372.1,200.7,372.3,200.3z"/>
						<path class="st9" d="M353,213.4l13.3-51.1c0.1-0.4,0.6-0.7,1-0.6s0.7,0.6,0.6,1l-13.3,51.1c-0.1,0.4-0.6,0.7-1.1,0.6
							C353.2,214.3,352.9,213.9,353,213.4z"/>
						<path class="st9" d="M333.6,224.5l14.5-50.8c0.1-0.4,0.6-0.7,1-0.6c0.4,0.1,0.7,0.6,0.6,1L335.4,225c-0.1,0.4-0.6,0.7-1.1,0.6
							C333.7,225.4,333.4,224.9,333.6,224.5z"/>
						<path class="st9" d="M316.8,221.1l10.8-32c0.1-0.4,0.6-0.7,1.1-0.5c0.5,0.2,0.7,0.6,0.6,1.1l-10.6,32.1
							c-0.1,0.4-0.7,0.7-1.2,0.5C317,222,316.7,221.5,316.8,221.1z"/>
						<path class="st10" d="M368.5,245.7c0,0,0.8-0.6,2.2-1.8c0.3-0.3,0.7-0.6,1.1-1c0.4-0.4,0.8-0.8,1.2-1.3c0.9-0.9,1.9-2,2.9-3.3
							c1-1.2,2.1-2.7,3.2-4.2c1-1.5,2.2-3.2,3.3-5c1.1-1.8,2.2-3.6,3.3-5.5c1.1-1.9,2.2-3.8,3.3-5.6c1.2-1.9,2.1-3.9,3-6
							c0.9-2.2,1.5-4.4,2-6.7c0.3-1.2,0.5-2.3,0.6-3.5c0.1-0.6,0.1-1.2,0.2-1.7c0-0.6,0.1-1.2,0.1-1.8c0-2.5-0.3-5-0.7-7.3
							c-0.8-4.8-2.3-9.1-3.7-12.1c-0.7-1.5-1.3-2.7-1.8-3.5c-0.5-0.8-0.7-1.2-0.7-1.2c-2.4-2.5-4.8-4.3-6.9-6
							c-1.6-1.1-3.2-2.1-4.6-2.9c-0.4-0.2-0.7-0.4-1.1-0.6c-0.2-0.1-0.3-0.2-0.5-0.3c-0.1-0.1-0.2-0.2-0.3-0.2
							c-0.3-0.3-0.6-0.6-0.9-0.8c-1.1-1-2-1.7-2.7-2.2c-1.4-1-1.9-1-2-1c0.5-0.1,1.8,0.2,3.6,0.8c0.4,0.1,0.9,0.3,1.4,0.5
							c0.3,0.1,0.5,0.2,0.8,0.3l0.4,0.1c0.1,0.1,0.2,0.1,0.6,0.2c2.2,0.7,4.4,1.5,6.7,2.3c1.6,0.7,3.2,1.5,4.7,2.3l1.1,0.6l0,0
							c0,0-0.1,0.2,0,0.1l0,0l0,0l0,0l0.1,0l0.1,0.1l0.3,0.2l0.6,0.3c0.7,0.4,1.4,1,2.1,1.5c2.6,2,4.8,4.3,6.3,6.4
							c0.9,1.3,1.8,2.8,2.7,4.6c0.9,1.8,1.7,3.8,2.3,6c0.3,1.1,0.7,2.2,0.9,3.3c0.1,0.6,0.2,1.1,0.3,1.7c0,0.5,0.1,1,0.1,1.6
							c0.2,2.1,0.1,4.3,0,6.5c-0.1,2.2-0.4,4.4-0.8,6.5c-0.4,2.1-1,4.2-1.6,6.2c-0.6,2-1.4,3.9-2.3,5.6c-0.4,0.9-0.9,1.7-1.3,2.4
							c-0.5,0.8-0.9,1.5-1.4,2.2c-1,1.4-2,2.8-2.9,4.2c-1,1.4-2,2.8-3,4.1c-1.9,2.6-4,5-5.8,6.9c-0.4,0.5-0.9,0.9-1.3,1.3
							c-0.4,0.4-0.9,0.8-1.2,1.2c-0.8,0.7-1.5,1.3-2.1,1.8c-0.6,0.5-1,0.9-1.3,1.1c-0.3,0.3-0.5,0.4-0.5,0.4c-1,0.8-2.2,2-3.6,3.2
							c-0.7,0.6-1.5,1.1-2.2,1.6c-0.4,0.3-0.7,0.5-1.1,0.7c-0.4,0.2-0.8,0.4-1.2,0.7c-0.8,0.4-1.5,0.8-2.1,1.1
							c-0.7,0.3-1.3,0.5-1.9,0.7c-1.1,0.4-1.7,0.5-1.7,0.5s-0.1,0-0.4,0.1c-0.2,0.1-0.6,0.2-0.9,0.3c-0.3,0.1-0.7,0.3-0.9,0.4
							c-0.3,0.2-0.4,0.3-0.5,0.5c0,0,0-0.1,0-0.2c0-0.1,0-0.3,0-0.5c0-0.2,0.1-0.4,0.2-0.6c0.1-0.2,0.2-0.5,0.4-0.8
							C363.5,249.9,365.1,248.4,368.5,245.7z"/>
						<path class="st10" d="M378.4,270.1c1.5,0,4.4-0.1,8.3-0.3c1.9-0.1,4.1-0.3,6.5-0.5c1.2-0.1,2.5-0.2,3.9-0.3
							c1.3-0.1,2.7-0.3,4.1-0.5c1.7-0.2,3.4-0.5,5.3-1.1c0.9-0.3,1.9-0.5,2.8-0.9c0.9-0.4,1.9-0.8,2.8-1.2c1.9-0.9,3.8-1.9,5.7-3.2
							c1.8-1.2,3.6-2.7,5.3-4.2c1.7-1.5,3.2-3.2,4.6-5c1.4-1.7,2.7-3.6,3.7-5.4c1-1.8,1.9-3.6,2.6-5.3c0.6-1.7,1.1-3.2,1.4-4.6
							c0.6-2.7,0.6-6.1,0.3-9.7c-0.1-1.8-0.5-3.6-0.8-5.4c-0.2-0.9-0.4-1.8-0.6-2.7c-0.2-0.9-0.5-1.7-0.7-2.5
							c-2-6.7-4.9-11.7-5.7-12.7c0,0,0.2,0.2,0.4,0.9c0.3,0.7,0.7,1.8,1.1,3.6c0.2,0.9,0.4,2,0.6,3.3c0.1,0.6,0.2,1.3,0.3,2.1
							c0.1,0.8,0.1,1.6,0.2,2.5c0.2,3.4,0.1,7.9-0.7,13.2c0,0-0.6,1.8-1.8,4.5c-0.6,1.4-1.5,3-2.4,4.7c-1,1.7-2.1,3.5-3.6,5.3
							c-1.4,1.8-2.9,3.6-4.7,5.2c-1.8,1.6-3.7,3.2-5.6,4.5c-2,1.3-4.1,2.4-6.2,3.3c-2.1,0.9-4.2,1.5-6.4,1.9c-1.8,0.3-3.5,0.7-5.3,1
							c-1.7,0.3-3.3,0.7-5,0.9c-1.7,0.3-3.3,0.5-4.8,0.7c-1.5,0.2-2.9,0.4-4.4,0.5c-2.9,0.3-5.2,0.5-7.3,0.6
							c-2.1,0.1-3.7,0.1-4.8,0.2"/>
						<path class="st10" d="M308.7,199.3c0.4,2.6,2.5,7.3,5,11.9c2.5,4.6,5.6,9.2,7.6,11.8c1.3,1.7,2.8,3.1,4.5,4.4
							c1.4,1.1,3,2.2,3.7,2.5c0,0-4.8-1.7-10.5-4.9c-5.7-3.2-12.3-8.1-15.2-13.6"/>
					</g>
				</g>
			</g>
			<g>
				<path class="st7" d="M265.6,304.9c0.6-0.9,1.2-1.9,1.8-2.8c-0.7-0.8-1.5-1.6-2.3-2.4L265.6,304.9z"/>
				<g>
					<path class="st8" d="M373.2,270.6c1.7,0.5,3.4,1,5.1,1.5c1.7,0.5,3.5,0.9,5.2,1.3c0.2,0,0.3-0.2,0.1-0.3l-4.3-2.1l-1.5-0.1
						l-1.6-0.1C375.3,270.8,374.2,270.7,373.2,270.6z"/>
					<g>
						<path class="st7" d="M372.8,270.4c1,1.8,2,3.7,3,5.7c0.9,2,1.9,4.1,2.8,6.3c0.5,1.1,0.9,2.2,1.4,3.3c0.4,1.1,0.8,2.2,1.2,3.4
							c0.8,2.3,1.5,4.6,2.3,6.9c0.4,1.2,0.7,2.3,1,3.5c0.3,1.1,0.6,2.3,0.9,3.4c0.6,2.3,1.1,4.5,1.5,6.6c0.9,4.4,1.5,8.2,1.8,11.5
							c0.5,4.8,0.3,9-0.2,12.1c-0.6,3.2-1.4,5.8-2.3,7.7c-0.9,2-1.8,3.2-2.5,3.9c-0.7,0.8-1.2,1.1-1.2,1.1s0.9-0.1,1.9-0.4
							c1-0.3,2.2-0.7,2.9-1.4c0.7-0.7,3.8-3.6,6.6-9.1c1.4-2.8,2.6-6.3,3.4-10.2c0.7-4.1,0.9-8.8,0.2-13.8c-0.4-2.8-1-5.8-1.8-8.9
							c-0.4-1.6-0.8-3.1-1.3-4.7c-0.5-1.6-1.1-3.3-1.7-5c-2.3-6.6-5.5-13.3-9-19.1"/>
						<path class="st7" d="M353.5,272.2c-1.3-0.1-2.3,0.3-3.1,1c-0.8,0.7-1.4,1.6-2,2.6c-1.1,1.9-1.6,4-1.6,4
							c-0.1,0.7-0.1,1.4-0.1,2.3c0,0.9,0,1.8,0,2.9c0.1,2.1,0.2,4.7,0.5,7.5c0.3,2.9,0.4,5.9,0.6,9.3c0.2,3.3,0.4,6.8,0.6,10.4
							c0.1,1.7,0.2,3.5,0.2,5.3c0,0.9,0,1.8,0,2.7c0,0.9-0.1,1.8-0.2,2.7c-0.1,1.8-0.3,3.6-0.6,5.5c-0.3,1.8-0.8,3.5-1.3,5.3
							c-0.3,0.9-0.5,1.8-0.8,2.6c-0.3,0.8-0.6,1.7-1,2.5c-0.7,1.6-1.4,3.2-2.3,4.8c-0.8,1.5-1.7,2.8-2.5,4.2
							c-0.9,1.3-1.7,2.6-2.6,3.6c-3.5,4.4-7.5,7.3-11.4,9.1c-1.9,0.9-3.8,1.6-5.6,2c-1.6,0.4-3.1,0.7-4.4,0.9
							c-0.7,0.1-1.3,0.1-1.9,0.2c-0.5,0-1,0-1.5,0c-0.9,0-1.7-0.1-2.4-0.2c-0.6-0.1-1.1-0.2-1.4-0.3c-0.3-0.1-0.4-0.2-0.4-0.2
							s0.1,0,0.2,0.1c0.1,0.1,0.3,0.2,0.5,0.4c0.4,0.3,1.1,0.7,1.8,1.1c1.4,0.8,3.1,1.7,4.5,1.8c0.7,0.1,2.4,0.3,5,0.3
							c2.9-0.1,6.6-0.3,10.8-1.5c2.1-0.5,4.3-1.4,6.5-2.5c2.2-1,4.4-2.4,6.4-4c2.1-1.6,4-3.6,5.7-5.7c0.4-0.5,0.9-1.1,1.3-1.7
							c0.4-0.6,0.8-1.2,1.1-1.8c0.7-1.2,1.4-2.5,2-3.9c1.1-2.3,1.8-5,2.4-7.9c0.7-2.8,1-5.9,1.2-9.1c0.2-3.1,0-6.3-0.2-9.4
							c-0.2-3.2-0.4-6.3-0.7-9.4c-0.2-3-0.6-6.1-1-8.9c-0.4-2.8-0.8-5.4-1.1-7.8c-0.3-2.3-0.7-4.4-1-6.2c-0.3-1.7-0.5-3.1-0.5-4.1
							c-0.1-3.9-0.4-5.6-0.5-6.6c-0.1-1,0.1-1.5,0.4-2.8L353.5,272.2z"/>
						<path class="st7" d="M264.4,287.9c0,0,0.8-0.6,2.2-1.5c1.4-1,3.5-2,6.1-3.2c0.6-0.3,1.3-0.6,2-0.9c0.7-0.3,1.4-0.5,2.2-0.7
							c1.5-0.5,3.1-0.9,4.8-1.3c3.3-0.6,6.8-1,10.1-0.6c0,0,0.4-0.1,1.6,0.3c1.2,0.4,3.2,1.3,6.1,3.4c0,0-0.8-0.1-2.1-0.1
							c-0.7,0-1.5,0-2.5,0.1c-1,0.1-2.1,0.3-3.4,0.6c-4.9,1-12,3.9-18.1,10.4c-1.4-1.1-2.9-2.3-4.4-3.4
							C267.6,289.9,266,288.9,264.4,287.9z"/>
						<path class="st9" d="M287.2,283.6l-4.4,30.7c-0.1,0.5-0.5,0.8-1,0.7c-0.5-0.1-0.8-0.5-0.8-0.9l3.8-30.8
							c0.1-0.5,0.7-0.8,1.3-0.7C286.8,282.7,287.3,283.1,287.2,283.6z"/>
						<path class="st9" d="M307.4,288.5l-15.4,51.9c-0.1,0.4-0.6,0.7-1,0.6c-0.4-0.1-0.6-0.6-0.5-1l14.9-52c0.1-0.4,0.7-0.7,1.2-0.5
							S307.5,288,307.4,288.5z"/>
						<path class="st9" d="M316.8,305.9l-15.9,51.7c-0.1,0.4-0.7,0.7-1.2,0.5c-0.5-0.2-0.8-0.7-0.7-1.1l16.3-51.6
							c0.1-0.4,0.6-0.7,1-0.6C316.7,305,316.9,305.4,316.8,305.9z"/>
						<path class="st9" d="M325.6,329l-3,36c0,0.5-0.8,0.8-1.8,0.7c-1-0.1-1.5-0.6-1.5-1l4.5-35.8c0.1-0.5,0.5-0.8,1-0.7
							C325.3,328.2,325.7,328.6,325.6,329z"/>
						<path class="st9" d="M353.2,322.1l18.5,27.7c0.3,0.4,0,1-0.7,1.5s-1.4,0.4-1.6,0l-17.7-28.2c-0.2-0.4-0.1-0.9,0.3-1.2
							C352.4,321.6,353,321.7,353.2,322.1z"/>
						<path class="st9" d="M354.3,299.3l33.5,40.9c0.3,0.4,0.2,1-0.3,1.3c-0.4,0.4-1,0.4-1.3,0l-33.1-41.2c-0.3-0.4-0.3-0.9,0.1-1.2
							C353.5,298.8,354,298.9,354.3,299.3z"/>
						<path class="st9" d="M353.5,279l37.2,37.5c0.3,0.3,0.3,0.9-0.1,1.3c-0.4,0.4-1,0.4-1.3,0.1l-36.7-38c-0.3-0.3-0.4-0.8-0.1-1.1
							C352.7,278.6,353.1,278.7,353.5,279z"/>
						<path class="st9" d="M359.6,269.6l26.7,20.7c0.4,0.3,0.5,0.8,0.1,1.2c-0.3,0.4-0.9,0.4-1.2,0.1l-26.4-21.2
							c-0.4-0.3-0.5-0.7-0.3-1C358.8,269.2,359.2,269.3,359.6,269.6z"/>
						<path class="st10" d="M318.1,293.7c0,0,0.1,0.3,0.4,0.8c0.2,0.5,0.6,1.3,1,2.3c0.3,1,0.8,2.2,1.3,3.5c0.1,0.3,0.2,0.7,0.4,1.1
							c0.1,0.3,0.2,0.7,0.3,1.1c0.2,0.7,0.5,1.5,0.7,2.3c1,3.2,2,6.9,3.2,10.8c0.3,1,0.6,2,1,2.9c0.3,1,0.7,2,1.1,3
							c0.7,2.1,1.6,4,2.4,6.1c0.8,2,1.9,4.1,3.3,5.9c0.7,0.9,1.4,1.9,2.2,2.7c0.4,0.4,0.8,0.9,1.3,1.3c0.4,0.4,0.9,0.8,1.3,1.2
							c3.7,3.2,8.2,5.6,12.7,7.2c2.2,0.7,4.5,1.3,6.6,1.7c2,0.4,3.7,0.7,5.3,0.8c1.5,0.2,2.8,0.3,3.6,0.3c0.8,0,1.3,0.1,1.3,0.1
							c2.5-0.4,4.7-0.8,6.8-1.3c1.7-0.3,3.1-0.5,4.3-0.7c2.5-0.5,4.4-1,5.8-1.4c2.7-0.8,3.4-1.5,3.5-1.6c-0.1,0.2-0.5,0.5-0.9,1
							c-0.5,0.4-1.1,0.9-1.8,1.4c-1.4,1-3.3,2.3-5.5,3.5c-0.5,0.3-1.1,0.6-1.6,0.9c-0.3,0.1-0.6,0.3-0.8,0.4
							c-0.4,0.2-0.7,0.4-1.1,0.6c-1.6,0.8-3.1,1.5-4.7,2.2c-0.8,0.3-1.5,0.6-2.4,0.9c-0.8,0.3-1.7,0.5-2.5,0.8
							c-1.6,0.5-3.1,0.8-4.5,1c-1.5,0.2-3.3,0.3-5.2,0.2c-1,0-2-0.1-3-0.2c-1-0.1-2.1-0.3-3.2-0.6c-4.4-0.9-9-2.7-13.1-5.2
							c-1-0.6-2-1.3-3-2c-1-0.7-1.9-1.4-2.7-2.2c-1.7-1.6-3.3-3.2-4.6-4.9c-1.3-1.7-2.4-3.5-3.3-5.2c-0.8-1.8-1.5-3.5-1.9-5.1
							c-0.9-3.2-1.8-6.6-2.6-9.8c-0.8-3.2-1.5-6.3-2.2-8.9c-0.7-2.7-1.2-4.9-1.7-6.5c-0.5-1.6-0.7-2.5-0.7-2.5
							c-0.5-1.3-1.5-3.3-2.7-5.3c-0.6-1-1.3-2.1-2.1-3.2c-0.7-1.1-1.5-2.2-2.3-3.3c-0.8-1.1-1.6-2.1-2.4-3c-0.8-0.9-1.6-1.8-2.2-2.5
							c-1.3-1.4-2.2-2.3-2.2-2.3s-0.2-0.2-0.5-0.5c-0.4-0.3-0.9-0.7-1.5-1.2c-1.3-0.9-3.2-2-5.6-2.5c0,0,0.3,0,0.9,0.1
							c0.6,0.1,1.5,0.2,2.5,0.5c1,0.2,2.2,0.5,3.6,0.9c1.4,0.4,2.7,0.9,4.2,1.5c0.7,0.3,1.5,0.6,2.2,0.9c0.7,0.3,1.4,0.7,2.1,1.1
							c0.7,0.4,1.4,0.8,2.1,1.2c0.6,0.4,1.3,0.8,1.9,1.3c0.6,0.5,1.2,0.9,1.8,1.4c0.5,0.5,1,1,1.5,1.5c0.5,0.5,0.9,1.1,1.3,1.7
							C317.4,292.5,317.7,293.1,318.1,293.7z"/>
						<path class="st10" d="M264.9,299.4c1.3,1.3,3.6,3.6,6,7c1.2,1.7,2.4,3.6,3.6,5.9c1.1,2.3,2.2,4.8,3.1,7.5
							c1,3.1,2.4,6.7,3.6,10.2c1.3,3.6,2.5,7.1,3.7,10.5c2.3,6.8,4.4,12.6,6.6,15.3c2.1,2.6,6.2,5.2,11.3,7.3
							c0.6,0.2,1.3,0.5,1.9,0.7c0.7,0.2,1.3,0.4,1.9,0.7c0.6,0.2,1.2,0.4,1.8,0.6c0.6,0.2,1.3,0.3,1.8,0.5c1.1,0.3,2.1,0.5,2.9,0.6
							c0.8,0.1,1.5,0.2,1.8,0.2c0,0-0.3,0-1.1-0.2c-0.8-0.2-1.8-0.7-3.4-1.5c-3.3-1.6-8.2-5-13.2-11.1c0,0-0.2-0.3-0.5-0.9
							c-0.3-0.6-0.7-1.4-1.2-2.5c-0.2-0.5-0.5-1.1-0.8-1.8c-0.3-0.6-0.5-1.3-0.8-2.1c-0.5-1.5-1.2-3.1-1.7-4.9
							c-0.6-1.7-1.2-3.7-1.8-5.6c-0.6-2-1.2-4-1.8-6.2c-1.2-4.2-2.4-8.6-3.3-12.9c-0.4-1.8-0.9-3.5-1.5-5.3c-0.6-1.7-1.3-3.4-2.2-5
							c-0.8-1.6-1.7-3.2-2.7-4.7c-1-1.5-2-2.9-3.1-4.2c-4.3-5.3-9.3-8.9-11.9-10.6"/>
						<path class="st10" d="M379.6,271.1c-1.2-0.1-2.9,0-4.9,0c-1,0-2,0.1-3,0.1c-1,0-2,0.1-3.2,0.1c-2.2,0.1-4.4,0.1-6.2,0.1
							c-2,0-3.7,0-4.9,0c-0.8,0-1.6,0.1-2.3,0.2c-0.4,0.1-0.7,0.1-1.1,0.2c-0.4,0.1-0.7,0.2-1.1,0.3c-1.2,0.4-2.4,0.8-2.9,1.1
							c0,0,0.6-0.5,1.7-1.3c1.2-0.8,2.5-1.8,4.2-2.8c0.4-0.3,0.9-0.5,1.4-0.8c0.4-0.3,0.9-0.5,1.3-0.7c0.9-0.5,1.9-0.9,3-1.3
							c1-0.4,2-0.7,3.1-1c1.1-0.3,2.4-0.4,3.4-0.5"/>
					</g>
				</g>
			</g>
			<g>
				<path class="st7" d="M143.3,402.6c-0.7-0.8-1.5-1.6-2.2-2.5c-1,0.5-2,1-3,1.6L143.3,402.6z"/>
				<g>
					<path class="st8" d="M259.4,295.6c0.9,1.6,1.8,3.2,2.7,4.9c0.9,1.7,1.7,3.3,2.5,5c0.1,0.2,0.5,0.1,0.5-0.1l-0.6-4.7
						c-0.8-0.9-1.6-1.7-2.5-2.6C261.1,297.2,260.3,296.4,259.4,295.6z"/>
					<g>
						<path class="st7" d="M259.3,295.2c-1.5,2-2.9,4-4.2,6.2c-1.3,2.2-2.5,4.5-3.5,6.8c-1.1,2.3-2,4.7-2.8,7
							c-0.8,2.4-1.6,4.7-2.2,7c-1.2,4.7-2.1,9.2-2.7,13.3c-0.6,4.1-0.9,7.8-1.2,10.7c-0.4,4.4-0.9,7.9-1.5,10.5
							c-0.6,2.6-1.3,4.7-2,6c-0.7,1.4-1.4,2.2-1.9,2.7c-0.5,0.5-0.9,0.7-0.9,0.7s0.7,0.1,1.4,0.1c0.8,0,1.7,0,2.2-0.3
							c0.3-0.2,0.9-0.6,1.8-1.6c0.4-0.5,0.9-1,1.5-1.7c0.5-0.6,1.1-1.4,1.6-2.3c0.6-0.9,1.1-1.9,1.7-3.2c0.6-1.2,1.1-2.4,1.6-4
							c0.5-1.5,1-3.2,1.5-5c0.5-1.8,0.9-3.8,1.4-6.1c0.2-1.2,0.5-2.5,0.8-3.8c0.3-1.3,0.6-2.7,0.9-4.1c0.7-2.9,1.5-6.1,2.6-9.2
							c2.1-6.4,5.1-13.2,9.3-19.5"/>
						<path class="st7" d="M232.2,286.7c-1.7-0.5-3.8-0.3-5.7,0.3c-1.9,0.6-3.7,1.6-5.3,2.6c-0.8,0.5-1.5,1-2.2,1.5
							c-0.7,0.5-1.2,1-1.6,1.4c-0.9,0.8-1.4,1.4-1.4,1.4c-1.1,1.5-2.2,3.4-3.3,5.8c-1,2.4-1.9,5.2-2.7,8.3
							c-1.7,6.1-2.7,13.4-3.3,20.7c-0.3,3.7-0.4,7.5-0.4,11.1c0,3.6,0,7.2,0.2,10.6c0.4,6.8,1,12.7,1.6,17.1
							c1.5,8.9,1.1,13.4,0.6,16.1c-0.6,2.6-1.8,3.2-1.8,3.2s0.8,0,1.7-0.2c0.9-0.1,1.8-0.4,2.2-0.8c0.2-0.2,0.7-0.7,1.2-1.7
							c0.6-0.9,1.4-2.3,2-4.2c1.1-3.9,2.4-9.7,1.8-19.2c-0.1-4.1-0.3-9.4-0.3-15.4c0-5.9,0.2-12.4,0.8-18.7c0.3-3.1,0.7-6.2,1.1-9.2
							c0.5-2.9,0.9-5.8,1.6-8.3c1.2-5,2.6-9.1,3.8-11.2c2.6-4.2,3.7-6.1,4.6-7.3c0.8-1.2,1.5-1.6,3.3-3L232.2,286.7z"/>
						<path class="st7" d="M126.6,399.3c0,0-0.4-0.9-0.8-2.6c-0.2-0.8-0.5-1.8-0.8-3c-0.3-1.2-0.6-2.5-0.7-3.9
							c-0.3-2.8-0.5-6.1-0.3-9.5c0.3-3.3,1.1-6.8,2.2-10c0,0,0-0.4,0.8-1.5c0.8-1,2.2-2.8,5.1-5.2c0,0-0.3,0.7-0.7,2.1
							c-0.4,1.4-0.8,3.4-1.1,6c-0.2,2.6,0,5.8,0.7,9.3c0.2,0.9,0.4,1.7,0.6,2.7c0.3,0.9,0.6,1.9,1,2.8c0.7,1.9,1.7,3.8,2.8,5.7
							c-0.8,0.5-1.5,1.1-2.3,1.6l-2.2,1.8C129.5,396.7,128,398,126.6,399.3z"/>
						<path class="st9" d="M128.7,375.9l28.4,12.6c0.4,0.2,0.6,0.7,0.4,1.2c-0.2,0.5-0.7,0.7-1.1,0.5l-28.7-12
							c-0.4-0.2-0.6-0.8-0.3-1.5C127.7,376.1,128.2,375.7,128.7,375.9z"/>
						<path class="st9" d="M139.7,356.9l44.6,30.7c0.4,0.3,0.5,0.7,0.3,1c-0.2,0.3-0.7,0.4-1.1,0.1l-45.2-29.8
							c-0.4-0.3-0.4-0.9,0-1.5S139.3,356.6,139.7,356.9z"/>
						<path class="st9" d="M161.3,351.7l40.2,36.3c0.3,0.3,0.4,0.8,0.2,1s-0.7,0.2-1.1-0.1L160,353.3c-0.3-0.3-0.3-0.9,0.1-1.3
							C160.4,351.5,161,351.4,161.3,351.7z"/>
						<path class="st9" d="M187.6,355l23.7,27.2c0.3,0.4,0.3,0.8,0.1,1.1c-0.2,0.2-0.7,0.2-1-0.2l-24-26.9c-0.3-0.3-0.3-0.9,0.1-1.2
							C186.7,354.6,187.3,354.7,187.6,355z"/>
						<path class="st9" d="M211,338.9l17.7,28.2c0.2,0.4,0.2,0.9-0.2,1.1s-0.8,0.1-1.1-0.3l-17.9-28.1c-0.2-0.4-0.1-0.9,0.3-1.2
							S210.8,338.5,211,338.9z"/>
						<path class="st9" d="M216,315.8l24.5,46.8c0.2,0.4,0.1,0.9-0.2,1.1c-0.3,0.2-0.8,0-1-0.4l-24.9-46.6c-0.2-0.4,0-0.9,0.5-1.2
							C215.2,315.2,215.8,315.4,216,315.8z"/>
						<path class="st9" d="M225.7,294l19.4,49.1c0.2,0.4,0,0.9-0.4,1.1c-0.4,0.1-0.8-0.1-1-0.5l-20.1-48.9c-0.2-0.4,0.1-1,0.7-1.2
							C224.9,293.4,225.5,293.6,225.7,294z"/>
						<path class="st9" d="M244.3,286.3l7.8,32.9c0.1,0.5-0.2,0.9-0.6,1c-0.5,0.1-0.9-0.1-1-0.6l-8.4-32.7c-0.1-0.4,0.3-1,0.9-1.1
							C243.6,285.6,244.2,285.8,244.3,286.3z"/>
						<path class="st10" d="M150.1,346.2c0,0,1.6-0.3,4.1-0.6c2.6-0.3,6.1-0.7,10.1-0.6c4,0.2,8.5,0.6,12.9,1.6
							c1.1,0.2,2.2,0.5,3.3,0.8c1.1,0.3,2.2,0.7,3.2,1.1c2.1,0.8,4.2,1.7,6.1,2.8c3.9,2.1,8,3.8,12.1,5.5c4.1,1.7,8.1,3.2,11.6,4.5
							c3.4,1.2,6.5,2.3,8.6,3c2.1,0.7,3.4,1.1,3.4,1.1c1.7,0.2,3.1,0.2,4.4,0.4c1.3,0.1,2.4,0.2,3.4,0.3c2,0.1,3.4,0.2,4.4,0.1
							c2,0,2.5-0.3,2.6-0.4c-0.8,0.9-9.8,5.5-16.3,5.4c-0.4,0-0.9-0.1-1.4-0.1c-0.5-0.1-1-0.1-1.5-0.3c-1.1-0.2-2.4-0.5-3.8-0.9
							c-2.8-0.7-6.1-1.8-9.6-2.9c-6.8-2.2-15-4.9-20.9-7.5c-6-2.7-13.4-4.6-19.1-5.2c-2.9-0.4-5.4-0.5-7.2-0.6
							c-1.8-0.1-2.9-0.1-2.9-0.1c-1.6,0.2-3.9,0.7-6.5,1.4c-1.3,0.4-2.7,0.8-4.1,1.3c-0.7,0.2-1.4,0.5-2.1,0.7
							c-0.7,0.3-1.4,0.6-2,0.9c-2.7,1.2-5.2,2.4-7,3.3c-0.9,0.5-1.7,0.8-2.2,1.1c-0.5,0.3-0.8,0.5-0.8,0.5s-1,0.5-2.3,1.6
							c-1.3,1.1-2.9,2.7-4.1,4.9c0,0,0.6-1.2,1.6-3.2c0.5-1,1.2-2.1,2-3.4c0.4-0.6,0.8-1.3,1.3-2c0.5-0.6,1-1.3,1.5-1.9
							c1.1-1.3,2.3-2.7,3.5-4c0.6-0.7,1.3-1.3,2-2c0.7-0.6,1.4-1.2,2.2-1.7c1.5-1.1,3-2.1,4.6-2.9c0.8-0.4,1.6-0.8,2.4-1.1
							C148.4,346.7,149.3,346.4,150.1,346.2z"/>
						<path class="st10" d="M137.8,401.8c1.6-0.9,4.5-2.6,8.4-4c4-1.4,9.1-2.6,14.7-2.9c3.3-0.1,7.1-0.4,10.8-0.7
							c3.6-0.3,7.6-0.4,11.1-0.5c3.4-0.1,6.8,0,9.5,0c1.3,0,2.5,0,3.5-0.1c1.1,0,2-0.1,2.7-0.2c1.4-0.2,2.7-0.8,4-1.4
							c1.4-0.6,2.7-1.4,3.9-2.3c0.6-0.4,1-0.8,1.6-1.2c0.5-0.4,1-0.8,1.4-1.1c0.8-0.7,1.3-1.3,1.4-1.6c0,0-0.3,0.4-2.1,0.8
							c-0.5,0.1-1,0.2-1.7,0.3c-0.6,0.1-1.4,0.2-2.3,0.4c-1.7,0.3-4.1,0.5-7.2,0.8c0,0-1.2-0.1-3.3-0.3c-1.1-0.1-2.3-0.2-3.8-0.3
							c-1.5-0.1-3.2-0.3-4.9-0.4c-1.8-0.1-3.7-0.2-5.7-0.3c-1,0-2.1-0.1-3.1-0.1c-1.1,0-2.2-0.1-3.2-0.1c-4.3-0.1-8.9-0.1-13.3-0.4
							c-3.6-0.2-7.2,0.1-10.8,0.7c-1.8,0.4-3.6,0.8-5.3,1.3c-1.7,0.6-3.3,1.2-4.8,1.9c-6.3,2.8-11,6.7-13.5,8.8"/>
						<path class="st10" d="M264.5,300.9c-1.7-2.2-6.1-5.3-11.3-8c-2.5-1.3-5.3-2.5-7.9-3.5c-2.5-0.9-4.9-1.6-6.7-2.1
							c-2.3-0.6-4.7-0.8-7.2-0.8c-2,0.1-4.4,0.2-5.3,0.4c0,0,0.4-0.1,1-0.3c0.7-0.2,1.7-0.4,2.9-0.7c2.5-0.6,5.8-1.3,9.8-1.7
							c1-0.1,2-0.2,3-0.2c0.5,0,1-0.1,1.5-0.1c0.5,0,1.1,0,1.6,0c2.2,0,4.3,0.2,6.4,0.4c2.1,0.3,4.2,0.8,6.1,1.3
							c0.9,0.3,1.8,0.6,2.7,1c0.9,0.4,1.7,0.8,2.4,1.3"/>
					</g>
				</g>
			</g>
			<g>
				<path class="st7" d="M221.7,538.9c-0.9,0.8-1.8,1.6-2.8,2.3c0.6,0.9,1.2,1.9,1.9,2.8L221.7,538.9z"/>
				<g>
					<path class="st8" d="M132.7,406.2c3.6-1,7.2-1.9,10.8-2.5c0.2,0,0.3-0.4,0-0.5l-4.7-0.6C136.7,403.7,134.8,404.9,132.7,406.2z"
						/>
					<g>
						<path class="st7" d="M132.3,406.2c0.7,1,1.5,2,2.3,3c0.8,1,1.6,1.9,2.6,2.8c1.8,1.8,3.7,3.6,5.7,5.2c1.9,1.6,4.1,3.1,6.2,4.5
							c2.1,1.4,4.2,2.6,6.3,3.7c2.2,1.1,4.3,2.1,6.4,3c1,0.4,2,0.8,3,1.2c1,0.4,2,0.7,3,1c3.9,1.3,7.3,2.2,10.2,2.9
							c2.1,0.5,3.9,0.9,5.5,1.4c1.7,0.4,3.1,0.8,4.3,1.2c1.2,0.4,2.2,0.8,3.1,1.1c0.9,0.4,1.7,0.7,2.3,1.1c1.2,0.7,1.9,1.3,2.3,1.8
							c0.4,0.5,0.5,0.8,0.5,0.8s0.2-0.6,0.3-1.2c0.1-0.7,0.3-1.4,0-1.9c-0.1-0.2-0.4-0.8-1.2-1.6c-0.4-0.4-0.8-0.9-1.3-1.3
							c-0.5-0.5-1.2-1-2-1.6c-3-2.2-8.1-4.7-16.3-7.9c-1.1-0.4-2.3-0.9-3.6-1.5c-1.2-0.5-2.5-1.1-3.8-1.7c-1.3-0.6-2.7-1.3-4.1-2.1
							c-0.7-0.4-1.4-0.8-2.1-1.2c-0.7-0.4-1.4-0.8-2.1-1.3c-1.4-0.9-2.8-1.8-4.3-2.9c-1.4-1-2.9-2.1-4.3-3.3c-2.7-2.3-5.5-5-8-7.8"
							/>
						<path class="st7" d="M117.5,431.9c-1.7,3.6-0.7,8.5,0.8,12.4c1.6,3.8,3.5,6.6,3.5,6.6c1.2,1.5,3.2,3,5.4,4.6
							c1.1,0.8,2.3,1.6,3.7,2.3c1.3,0.7,2.8,1.4,4.3,2.1c1.5,0.7,3,1.4,4.7,2c1.6,0.6,3.3,1.2,5.1,1.7c3.4,1.1,7.1,1.9,10.8,2.6
							c7.3,1.4,14.9,1.9,21.6,2c3.4,0,6.6-0.1,9.4-0.2c2.9-0.2,5.5-0.4,7.7-0.6c8.9-0.8,13.6-0.2,16.4,0.8c1.4,0.5,2.2,1.1,2.7,1.6
							c0.5,0.5,0.7,0.8,0.7,0.8s0-0.8-0.2-1.8c-0.1-1-0.4-2-0.8-2.5c-0.5-0.5-2.2-2.3-6-3.9c-3.9-1.6-9.7-2.8-18.9-2.8
							c-4.1,0-9.3-0.1-15.2-0.5c-2.9-0.2-6-0.6-9.1-1c-3.1-0.5-6.2-1-9.4-1.7c-6.2-1.4-12.2-3.3-17-5.6c-4.9-2.1-8.6-4.5-10.6-6.3
							c-2-1.7-3.3-3.1-4.3-4.1c-1-1-1.6-1.7-2.1-2.3c-1-1.2-1.4-1.9-2.3-4.2L117.5,431.9z"/>
						<path class="st7" d="M218.4,555.6c0,0-1.1,0.4-3.2,0.9c-2,0.5-5,1.1-8.5,1.3c-3.5,0.2-7.6-0.1-11.8-1.3
							c-4.1-1.1-8.3-3.1-11.7-5.9c0,0-0.1-0.1-0.4-0.3c-0.3-0.2-0.7-0.6-1.2-1.3c-1.1-1.3-2.9-3.8-4.9-8.4c0,0,0.7,0.8,2.2,2
							c1.4,1.2,3.6,2.7,6.5,4.1c2.9,1.3,6.5,2.4,10.7,2.6c4.2,0.2,8.9-0.5,13.5-2.6C212,549.9,215,552.9,218.4,555.6z"/>
						<path class="st9" d="M190,550.3l17.5-25.7c0.3-0.4,0.8-0.4,1.2-0.1c0.4,0.3,0.5,0.9,0.3,1.3l-16.3,26.4
							c-0.2,0.4-1.1,0.3-1.8-0.2C190.1,551.4,189.7,550.7,190,550.3z"/>
						<path class="st9" d="M172.5,530.9l42.4-33.7c0.4-0.3,0.9-0.2,1.3,0.2c0.3,0.4,0.3,1-0.1,1.3l-42.6,33.4
							c-0.4,0.3-0.9,0.3-1.1-0.1C172.1,531.7,172.2,531.2,172.5,530.9z"/>
						<path class="st9" d="M175,512.7l40.5-35.9c0.4-0.3,0.8-0.3,1.1,0c0.3,0.3,0.3,0.9-0.1,1.2l-40.4,36.1
							c-0.3,0.3-0.9,0.3-1.2-0.1C174.6,513.6,174.6,513,175,512.7z"/>
						<path class="st9" d="M180.8,487.2l28.6-22c0.4-0.3,0.9-0.3,1.1,0c0.2,0.3,0.1,0.8-0.2,1.1l-28.4,22.2
							c-0.4,0.3-0.9,0.2-1.2-0.2C180.4,488,180.5,487.5,180.8,487.2z"/>
						<path class="st9" d="M166.2,462.8l29.6-15.1c0.4-0.2,0.9-0.1,1.1,0.2c0.2,0.3,0,0.7-0.4,1L167,464.4c-0.4,0.2-0.9,0-1.2-0.4
							C165.6,463.6,165.7,463.1,166.2,462.8z"/>
						<path class="st9" d="M143.6,455l49.8-17.8c0.4-0.2,0.9,0,1,0.3c0.1,0.3-0.2,0.7-0.6,0.8l-49.5,18.6c-0.4,0.2-0.9-0.1-1.1-0.7
							C143,455.7,143.2,455.1,143.6,455z"/>
						<path class="st9" d="M123.5,440.6l51.9-9.6c0.5-0.1,0.9,0.1,0.9,0.5s-0.3,0.7-0.7,0.8l-51.7,10.7c-0.5,0.1-0.9-0.4-1-1
							C122.8,441.3,123.1,440.7,123.5,440.6z"/>
						<path class="st9" d="M119.8,419.1l33.8,0.3c0.5,0,0.9,0.4,0.9,0.9c0,0.5-0.4,0.9-0.8,0.9l-33.8,0.5c-0.5,0-0.9-0.6-0.9-1.3
							C119,419.7,119.4,419.1,119.8,419.1z"/>
						<path class="st10" d="M167.9,522.9c0,0,0-1.4,0.1-3.7c0.1-1.2,0.1-2.6,0.3-4.2c0.1-1.6,0.3-3.4,0.6-5.3
							c1-7.7,3.6-17.2,8.2-24.6c4.6-7.5,8.3-16.4,11.3-23c1.6-3.4,2.8-6.2,3.8-8.1c0.9-2,1.5-3.1,1.5-3.1c0.2-0.8,0.3-1.5,0.5-2.1
							c0.2-0.7,0.3-1.3,0.5-1.9c0.3-1.2,0.5-2.2,0.7-3c0.5-1.7,0.8-3,0.9-3.8c0.1-0.9,0.2-1.4,0.2-1.7c0-0.3-0.1-0.4-0.1-0.5
							c0.4,0.4,1.2,2.5,1.9,5.3c0.7,2.8,1.3,6.3,0.8,9.2c-0.2,1.5-1,3.7-1.9,6.4c-0.5,1.3-1,2.8-1.6,4.4c-0.6,1.6-1.2,3.2-1.9,4.9
							c-2.6,6.8-5.6,14.7-8.7,20.6c-3.2,5.9-5.5,12.9-6.9,18.4c-0.7,2.8-1.2,5.2-1.6,6.9c-0.3,1.7-0.6,2.7-0.6,2.7
							c-0.1,0.7-0.2,1.6-0.3,2.6c-0.1,0.9-0.2,2-0.4,3c-0.3,2.1-0.6,4.5-0.8,6.6c-0.1,1.1-0.3,2.1-0.4,3.1c0,0.2-0.1,0.5-0.1,0.7
							c0,0.1,0,0.1,0,0.2l0.1,0.3c0,0.2,0.1,0.4,0.1,0.5c0.2,0.7,0.3,1.4,0.4,2c0.1,0.6,0.3,1.2,0.4,1.6c0.1,0.5,0.3,1,0.4,1.3
							c0.2,0.7,0.3,1.1,0.3,1.1s0.1,0.4,0.3,1c0.2,0.6,0.5,1.5,1,2.5c0.9,2.1,2.5,4.7,4.9,7c0,0-0.3-0.3-0.9-0.9
							c-0.6-0.5-1.5-1.4-2.5-2.5c-1-1.1-2.2-2.5-3.4-4.1c-1.2-1.6-2.6-3.5-3.7-5.3c-0.3-0.5-0.6-0.9-0.9-1.4l-0.2-0.3l-0.1-0.2
							l-0.2-0.4c-0.2-0.5-0.4-1-0.6-1.5c-0.4-1-0.7-2-0.9-3.1c-0.2-1.1-0.4-2.2-0.5-3.4c0-0.3,0-0.6,0-0.9c0-0.3-0.1-0.7-0.1-1
							C167.9,524.3,168,523.6,167.9,522.9z"/>
						<path class="st10" d="M221,544.3c-0.6-0.8-1.3-1.8-2.2-3.2c-0.8-1.4-1.7-3-2.5-4.9c-0.4-1-0.7-2-1-3.1
							c-0.3-1.1-0.6-2.3-0.8-3.4c-0.2-1.2-0.3-2.5-0.4-3.8c-0.1-1.3,0-2.8,0.2-4.2c0.4-3.4,0.8-7.2,1.7-11c0.9-3.8,2.2-7.4,3.7-10.4
							c0.7-1.5,1.6-2.8,2.3-4.1c0.4-0.6,0.7-1.2,1.1-1.8c0.1-0.9,0.2-1.8,0.2-2.6c0.2-3.4,0-6.4-0.6-8.4c-0.2-1-0.7-2.1-1.1-3.2
							c-0.2-0.5-0.5-1.2-0.8-1.7c-0.2-0.5-0.5-1-0.8-1.5c-0.2-0.5-0.5-0.9-0.7-1.4c-0.2-0.4-0.5-0.9-0.7-1.3
							c-0.4-0.8-0.9-1.6-1.4-2.4c-1.8-3-3.6-5.2-4.2-5.5c0,0,0.1,0.1,0.3,0.4c0.2,0.3,0.4,0.9,0.6,1.9c0.2,1,0.5,2.4,0.7,4.5
							c0.1,1,0.3,2.2,0.4,3.6c0.1,0.7,0.2,1.4,0.3,2.2c0.1,0.8,0.2,1.6,0.4,2.6c0,0,0,0.4,0,1c-0.1,0.6-0.1,1.7-0.1,3
							c-0.1,2.6-0.3,6.2-1,10.2c-0.3,2-0.8,4.1-1.3,6.2c-0.8,1.7-1.7,3.6-2.6,5.6c-1.7,4-3.3,8.7-4.7,13.1
							c-1.1,3.6-1.7,7.6-1.4,11.4c0.2,3.9,1.3,7.5,2.8,10.8c3,6.6,7.9,11.3,10.7,13.6"/>
						<path class="st10" d="M139.1,402.7c-1.3,0.5-2.9,1.7-4.8,3.3c-0.9,0.8-1.9,1.7-2.9,2.7c-0.5,0.5-1,1-1.5,1.5
							c-0.5,0.5-0.9,1.1-1.4,1.6c-1.9,2.2-3.8,4.7-5.3,7.1c-1.5,2.4-2.7,4.6-3.6,6.4c-0.3,0.6-0.5,1.1-0.8,1.7
							c-0.2,0.6-0.4,1.2-0.6,1.8c-0.4,1.2-0.7,2.5-0.9,3.9c-0.2,1.1-0.4,2.3-0.5,3.3c-0.1,1-0.1,1.9-0.1,2.4c0,0,0-0.4-0.1-1.2
							c0-0.4-0.1-0.8-0.1-1.4c0-0.5,0-1.2-0.1-1.9c0-2.8-0.1-6.5,0.5-10.8c0.1-1.1,0.3-2.1,0.5-3.2c0.2-1.1,0.4-2.2,0.7-3.3
							c0.6-2.2,1.2-4.4,2-6.4c0.4-1,0.8-2,1.3-3c0.5-1,1-1.9,1.5-2.8c1.1-1.7,2.1-3.3,3.5-4.5"/>
					</g>
				</g>
			</g>
			<g>
				<polygon class="st7" points="361.4,565.8 358.6,567.3 358.8,570.4 				"/>
				<g>
					<path class="st8" d="M226.5,549.1c-1.5-3.5-2.6-7.1-3.5-10.6c-0.1-0.2-0.5-0.2-0.5,0l-0.6,4.7
						C223.2,545.1,224.8,547.2,226.5,549.1z"/>
					<g>
						<path class="st7" d="M226.4,549.5c1.1-0.8,2.2-1.7,3.3-2.5l0.4-0.3c0.1-0.1,0.2-0.2,0.3-0.3l0.6-0.7c0.4-0.5,0.8-0.9,1.2-1.4
							c1.6-1.9,3-3.8,4.5-5.9c2.9-4,5.6-8.2,8.1-12.3c5.1-8.2,9.5-16,12.9-21.3c9.8-15.6,17.5-15.3,17.5-15.3s-2.6-1.6-4.2-1.4
							c-0.8,0.1-4.3,0.5-8.9,2.9c-4.6,2.4-10.3,6.8-15.7,14.8c-2.9,4.3-6.1,9.7-9.8,15.4c-1.8,2.9-3.8,5.8-5.9,8.8
							c-1.1,1.5-2.3,2.9-3.7,4.4c-1.3,1.4-2.8,2.8-4.4,4.2"/>
						<path class="st7" d="M247.6,564.3c2.4,2,5.9,1.7,8.8,1c2.9-0.7,5.2-1.9,5.2-1.9c5.2-3.5,13.3-14.6,21.4-26.7c1-1.5,2-3,3-4.6
							c1-1.5,2-3,3-4.5c1-1.5,2.1-3,3.1-4.5c1.1-1.4,2.1-2.8,3.2-4.2s2.2-2.7,3.3-4c1.1-1.3,2.2-2.4,3.2-3.6c2.1-2.3,4.1-4.4,5.9-6
							c1.8-1.7,3.6-3.1,5.3-4.3c1.7-1.2,3.3-2,4.9-2.7c1.5-0.7,3-1.2,4.3-1.6c1.3-0.3,2.5-0.5,3.6-0.6c1.1-0.1,2-0.1,2.9-0.1
							c0.8,0.1,1.5,0.2,2,0.3c1.1,0.2,1.6,0.5,1.6,0.5s-0.9-0.8-2-1.7c-1.1-0.9-2.6-1.7-3.6-2c-0.5-0.1-1.9-0.4-3.8-0.6
							c-2-0.1-4.6-0.1-7.7,0.4c-6.2,1.1-14.1,4.2-21,12c-1.5,1.6-3.1,3.6-4.8,5.8c-0.8,1.1-1.7,2.2-2.5,3.4
							c-0.4,0.6-0.9,1.2-1.3,1.8c-0.4,0.6-0.8,1.2-1.2,1.9c-3.2,5.1-6.7,10.6-10,15.9c-6.7,10.6-13,20.1-16.3,23.1
							c-6.5,6-5.5,5.4-8.9,6.9L247.6,564.3z"/>
						<path class="st7" d="M352.9,580.5c0,0-0.8,0.1-2.2,0.3c-1.4,0.2-3.4,0.3-5.5,0.4c-4.4,0.1-9.5-0.1-13.2-1.7c0,0-0.3,0-0.8-0.5
							c-0.3-0.3-0.6-0.7-1.1-1.3c-0.4-0.6-0.9-1.4-1.5-2.5c0,0,0.4,0.2,1.3,0.3c0.4,0.1,1,0.1,1.6,0.1c0.7,0,1.5,0,2.3,0
							c3.5-0.2,9.1-1.2,16.5-4.5C351.1,574.2,351.9,577.4,352.9,580.5z"/>
						<path class="st9" d="M336.4,576.8l15.7-26.8c0.2-0.4,0.8-0.5,1.2-0.3c0.4,0.2,0.6,0.8,0.3,1.2l-15.8,26.7
							c-0.2,0.4-0.7,0.5-1.1,0.3C336.3,577.7,336.2,577.2,336.4,576.8z"/>
						<path class="st9" d="M324.8,570.1l24.2-48.4c0.2-0.4,0.8-0.6,1.3-0.3c0.5,0.2,0.7,0.8,0.5,1.2l-24.7,48.2
							c-0.2,0.4-0.7,0.6-1,0.4C324.7,571,324.6,570.5,324.8,570.1z"/>
						<path class="st9" d="M320.3,553l19.1-50.7c0.2-0.4,0.8-0.6,1.4-0.4c0.6,0.2,0.9,0.8,0.7,1.2l-19.8,50.4
							c-0.2,0.4-0.6,0.7-1,0.5C320.3,553.9,320.1,553.5,320.3,553z"/>
						<path class="st9" d="M313,529.2l8-35.2c0.1-0.5,0.7-0.7,1.3-0.6c0.6,0.2,1.1,0.7,0.9,1.1l-8.5,35.1c-0.1,0.5-0.6,0.7-1,0.6
							C313.2,530.1,312.9,529.6,313,529.2z"/>
						<path class="st9" d="M284.5,525.7l-0.6-33.3c0-0.5,0.4-0.8,0.9-0.9c0.1,0,0.2,0,0.3,0.1c0.1,0,0.3,0.1,0.4,0.2
							c0.2,0.2,0.3,0.4,0.3,0.6l0.4,33.3c0,0.5-0.4,0.8-0.9,0.8C284.9,526.5,284.5,526.2,284.5,525.7z"/>
						<path class="st9" d="M269.6,543.6l-1-52.8c0-0.5,0.4-0.8,0.9-0.9c0.5,0,0.9,0.4,0.9,0.8l1,52.8c0,0.5-0.4,0.8-0.9,0.9
							C270,544.4,269.6,544,269.6,543.6z"/>
						<path class="st9" d="M254.5,559.5l-0.7-52.8c0-0.5,0.4-0.8,0.9-0.9c0.5,0,0.9,0.4,0.9,0.8l0.8,52.8c0,0.5-0.4,0.8-0.9,0.9
							C254.9,560.4,254.5,560,254.5,559.5z"/>
						<path class="st9" d="M238.3,561.3l0.3-33.8c0-0.5,0.4-0.8,0.9-0.8c0.5,0,0.9,0.4,0.9,0.8l-0.2,33.8c0,0.5-0.4,0.8-0.9,0.8
							S238.3,561.8,238.3,561.3z"/>
						<path class="st10" d="M317.9,565c0,0-0.3-1.1-0.8-3.1c-0.3-1-0.6-2.2-0.9-3.5c-0.2-0.7-0.4-1.4-0.6-2.2
							c-0.2-0.8-0.4-1.5-0.6-2.4c-0.5-1.7-0.9-3.5-1.5-5.4c-0.5-1.9-1.1-3.9-1.7-5.9c-1.1-4.1-2.3-8.4-3.2-12.7
							c-0.8-4.2-2.5-8.6-4.6-12.8c-2.1-4-4.8-8-7.4-11.1c-1.3-1.6-2.6-3.1-3.8-4.4c-1.2-1.3-2.3-2.3-3.3-3.2
							c-1.9-1.8-3.2-2.8-3.2-2.8c-0.5-0.3-1-0.5-1.4-0.7c-0.4-0.2-0.7-0.5-1.1-0.7c-0.7-0.4-1.4-0.8-2-1.2c-1.3-0.8-2.4-1.4-3.4-1.9
							c-2-1.1-3.5-1.8-4.7-2.3c-2.3-0.9-3-0.8-3.1-0.8c0.8-0.3,4.3-0.3,8.5,0.2c1,0.1,2.1,0.3,3.2,0.5c0.5,0.1,1.1,0.2,1.6,0.3
							c0.6,0.1,1.1,0.3,1.7,0.4c2.7,0.6,5.2,1.3,7.2,2.3c2,1,4.5,2.9,7.1,5.3c1.3,1.2,2.6,2.6,3.9,4.1c1.3,1.5,2.6,3.1,3.8,4.8
							c2.4,3.4,4.6,7.1,6.2,10.9c0.8,1.9,1.5,3.7,2.1,5.5c0.6,1.8,1,3.6,1.3,5.2c0.3,1.7,0.6,3.3,0.9,5c0.3,1.7,0.6,3.4,1,5
							c0.6,3.3,1.2,6.3,1.7,9c0.5,2.7,0.8,4.9,1.1,6.5c0.2,1.6,0.4,2.5,0.4,2.5c0.3,1.3,0.9,3.2,1.5,5.2c0.6,2.1,1.3,4.3,2,6.3
							c1.3,4.2,2.3,7.6,2.3,7.6s0.2,0.8,0.7,1.8c0.2,0.5,0.6,1,1,1.5c0.4,0.5,0.9,1,1.6,1.4c0,0-0.7-0.3-1.9-1
							c-0.5-0.3-1.2-0.7-1.9-1.2c-0.3-0.2-0.7-0.5-1.1-0.8c-0.4-0.3-0.7-0.5-1.1-0.8c-1.5-1.2-3-2.6-4.3-4.4
							c-0.6-0.8-1.3-1.8-1.8-2.8C318.7,567.3,318.2,566.2,317.9,565z"/>
						<path class="st10" d="M358.8,570.7c-0.2-1.7-0.5-4.8-0.6-8.8c-0.1-4,0.1-9.1,0.8-14.8c0.8-6.6,0.4-15.2-1.3-23
							c-0.8-3.9-2-7.6-3.3-10.8c-1.4-3.2-2.8-5.8-4.2-7.4c-1.4-1.6-3.3-3.4-5.6-4.9c-1.1-0.8-2.3-1.5-3.6-2.2
							c-1.3-0.7-2.5-1.3-3.8-1.9c-5-2.4-9.7-3.7-10.8-3.6c0,0,0.2,0,0.8,0.3c0.6,0.3,1.5,0.7,2.8,1.6c1.3,0.9,3.1,2.2,5.2,4.1
							c2.1,2,4.7,4.5,7.5,8c0,0,0.2,0.3,0.5,1c0.3,0.6,0.8,1.6,1.3,2.8c1,2.4,2.4,5.8,3.4,9.7c2.2,7.9,3.4,17.8,2.1,26.4
							c-1,7.1-1,14.4-0.4,20.6c0.3,3.1,0.7,5.9,1.1,8.3c0.5,2.4,1,4.3,1.3,5.6"/>
						<path class="st10" d="M221.9,543c0.7,1.2,2.1,2.8,4.1,4.5c1,0.9,2.1,1.8,3.4,2.7c0.7,0.5,1.1,0.9,1.6,1.4
							c0.5,0.4,1,0.9,1.4,1.3c1,0.9,2,1.8,2.9,2.6c1,0.8,1.9,1.7,2.9,2.4c1.8,1.5,3.5,2.9,4.8,3.8c1.6,1.2,3.4,2.2,5.3,2.9
							c1.5,0.6,3.3,1.2,4,1.3c0,0-1.2-0.1-3.1-0.3c-1-0.1-2.1-0.3-3.4-0.5c-1.3-0.2-2.7-0.5-4.3-0.8c-3.1-0.7-6.4-1.6-9.8-2.9
							c-0.4-0.2-0.8-0.3-1.2-0.5l-0.6-0.3c-0.1,0-0.2-0.1-0.4-0.1l-0.5-0.2c-1.2-0.4-2.4-0.9-3.6-1.3c-2.2-1-4.2-2.1-5.8-3.2"/>
					</g>
				</g>
			</g>
			<g>
				<polygon class="st7" points="502.3,524.9 503.9,527.6 507,527 				"/>
				<g>
					<path class="st8" d="M360.5,576.6c0.6-3.6,1.3-7.2,1.9-10.8c0-0.2-0.3-0.3-0.4-0.2l-2.2,4.2
						C360.1,572.1,360.3,574.3,360.5,576.6z"/>
					<g>
						<path class="st7" d="M360.3,577c8.6-3.2,18.2-8,26.1-13.5c2-1.3,3.9-2.8,5.6-4.2c1.8-1.4,3.4-2.8,4.9-4.2
							c1.5-1.4,2.9-2.7,4.1-4c1.2-1.3,2.3-2.5,3.3-3.6c2.8-3.2,4.9-5.7,6.5-7.6c0.8-0.9,1.5-1.7,2.2-2.3c0.6-0.6,1.2-1.2,1.7-1.6
							c0.5-0.4,0.9-0.7,1.2-0.9c0.4-0.2,0.7-0.4,0.9-0.5c0.5-0.2,0.7-0.1,0.7-0.1s-0.3-0.4-0.8-0.8c-0.2-0.2-0.4-0.4-0.7-0.5
							c-0.2-0.2-0.4-0.3-0.6-0.3c-0.2,0-0.7,0-1.6,0.4c-0.4,0.1-0.9,0.3-1.5,0.6c-0.6,0.3-1.2,0.7-2,1.1c-3,1.8-7.5,5-14.6,10.6
							c-1.9,1.5-4.1,3.2-6.5,4.9c-2.4,1.7-5.1,3.5-8,5.3c-5.8,3.6-12.3,7.1-18.9,10.1"/>
						<path class="st7" d="M374.4,599.9c2.1,3,6.8,4.5,11,5.1c2.1,0.2,4,0.3,5.4,0.3c1.4-0.1,2.3-0.2,2.3-0.2c2-0.4,4.4-1.2,7-2.5
							c1.3-0.6,2.6-1.4,4-2.2c1.3-0.8,2.7-1.8,4.1-2.8c5.5-4,10.9-9.7,15.2-15.8c2.2-3.1,4.1-6.3,5.9-9.5c1.7-3.3,3.1-6.5,4.1-9.6
							c2.1-6.2,2.8-12,2.9-16.1c0.2-4.2,0.1-7.2,0.2-9.5c0-0.6,0-1.1,0.1-1.5c0-0.5,0-0.9,0.1-1.3c0.1-0.8,0.2-1.4,0.3-1.9
							c0.2-1.1,0.5-1.6,0.8-1.9c0.1-0.1,0.3-0.2,0.4-0.3c0.1-0.1,0.2-0.1,0.2-0.1s-0.6-0.2-1.3-0.4c-0.7-0.2-1.4-0.3-1.6-0.1
							c-0.3,0.2-1.2,1-2,3.8c-0.9,2.7-1.6,7.5-3.8,15.9c-0.5,1.8-1.1,3.9-2,6.3c-0.9,2.3-2.1,4.8-3.4,7.4
							c-2.7,5.2-6.1,10.7-10.2,15.7c-2,2.5-4.2,4.8-6.4,7c-2.2,2.2-4.5,4-6.6,5.7c-4.3,3.2-8.3,5.5-10.8,6.3
							c-5.1,1.7-7.3,2.2-8.8,2.5c-1.5,0.3-2.3,0.2-4.7,0.1L374.4,599.9z"/>
						<path class="st7" d="M517.6,532.3c0,0,0.8,3.5,0.7,8.5c0,4.9-0.9,11.4-3.9,16.6c0,0-0.1,0.4-0.8,1.2c-0.8,0.9-2.4,2.2-5.4,4
							c0,0,0.4-0.6,0.9-1.9c0.5-1.2,1.1-3.1,1.5-5.4c0.8-4.7,0.7-11.5-2.6-19.3C511.2,534.9,514.4,533.6,517.6,532.3z"/>
						<path class="st9" d="M512.6,551.8l-26.2-16.7c-0.4-0.2-0.5-0.8-0.2-1.2h0c0.3-0.4,0.8-0.6,1.2-0.3l26.4,16.3
							c0.4,0.2,0.5,0.9,0.1,1.4C513.6,551.9,513,552.1,512.6,551.8z"/>
						<path class="st9" d="M500.2,568.2L459,533.1c-0.4-0.3-0.4-0.8-0.2-1.1c0.2-0.3,0.7-0.3,1.1,0l41.8,34.4
							c0.4,0.3,0.3,0.9-0.1,1.4C501.2,568.3,500.6,568.5,500.2,568.2z"/>
						<path class="st9" d="M477.7,571.3l-35.1-41.2c-0.3-0.4-0.4-0.8-0.2-1c0.2-0.2,0.6-0.1,0.9,0.3l36,40.4c0.3,0.3,0.2,1-0.3,1.4
							C478.7,571.7,478,571.7,477.7,571.3z"/>
						<path class="st9" d="M451.7,564.1l-17-31.9c-0.2-0.4-0.2-0.8-0.1-0.9c0.2-0.1,0.5,0.1,0.7,0.5l17.8,31.4
							c0.2,0.4,0.1,0.9-0.3,1.2C452.5,564.6,452,564.5,451.7,564.1z"/>
						<path class="st9" d="M424.4,570.7l-1.9-33.2c0-0.5,0.2-0.9,0.5-0.9c0.3,0,0.6,0.3,0.6,0.8l2.6,33.2c0,0.5-0.3,0.9-0.8,0.9
							C424.9,571.5,424.5,571.1,424.4,570.7z"/>
						<path class="st9" d="M407.3,587.7l6.6-52.4c0.1-0.5,0.3-0.8,0.6-0.8c0.3,0,0.4,0.4,0.4,0.9l-5.4,52.6c0,0.5-0.6,0.8-1.1,0.7
							C407.7,588.6,407.3,588.1,407.3,587.7z"/>
						<path class="st9" d="M384.6,598.6l16.3-50.3c0.1-0.4,0.5-0.7,0.9-0.6c0.3,0.1,0.5,0.5,0.4,1l-15.3,50.6
							c-0.1,0.4-0.8,0.7-1.4,0.5C384.8,599.6,384.4,599.1,384.6,598.6z"/>
						<path class="st9" d="M365.2,592.5l15-30.3c0.2-0.4,0.7-0.6,1.2-0.4s0.6,0.7,0.4,1.1l-14.6,30.5c-0.2,0.4-0.8,0.5-1.4,0.3
							S365,592.9,365.2,592.5z"/>
						<path class="st10" d="M488.3,578c0,0-0.4,0-1.2,0.1c-0.8,0.1-1.8,0.2-3.2,0.2c-2.7,0.1-6.5,0.1-10.7-0.4
							c-1.1-0.1-2.1-0.3-3.2-0.5c-1.1-0.2-2.2-0.5-3.3-0.7s-2.2-0.6-3.3-0.9c-1.1-0.4-2.2-0.8-3.3-1.2c-4.3-1.7-8.3-4.3-11.4-7.3
							c-3.2-3.1-6.6-5.9-9.7-9c-0.8-0.7-1.5-1.5-2.3-2.2c-0.7-0.8-1.4-1.5-2.1-2.2c-1.4-1.4-2.6-2.8-3.7-4.2c-1.1-1.4-2-2.5-2.9-3.7
							c-0.8-1.1-1.5-2.1-2.1-2.9c-0.5-0.8-1.1-1.5-1.4-1.9c-0.3-0.5-0.5-0.7-0.5-0.7c-1.1-1-2-1.7-2.8-2.5c-0.8-0.8-1.4-1.4-2-2
							c-0.6-0.5-1-1-1.4-1.4c-0.4-0.4-0.7-0.7-1-1c-0.6-0.5-0.9-0.7-1.2-0.9c-0.2-0.1-0.3-0.1-0.4-0.1c0.2-0.1,0.7-0.1,1.5,0
							c0.8,0,1.7,0.3,2.9,0.5c0.6,0.1,1.1,0.3,1.7,0.5c0.6,0.2,1.3,0.4,1.9,0.6c0.3,0.1,0.6,0.3,0.9,0.4l0.5,0.2
							c0.1,0.1,0.2,0.1,0.3,0.2c0.5,0.3,0.9,0.7,1.3,1.1c1.6,1.6,4.9,6.2,9.9,10.7c2.5,2.3,5.4,4.7,8.4,6.8c0.8,0.6,1.5,1.1,2.3,1.7
							c0.7,0.5,1.5,1,2.2,1.6c1.5,1,2.9,2,4.3,3c2.7,1.9,5.7,3.6,8.9,5c3.1,1.3,6.4,2.4,9.2,3.1c2.9,0.7,5.5,1.1,7.3,1.4
							c1.8,0.2,2.9,0.3,2.9,0.3c3.4,0,9.8-1.2,15.4-2.8c2.7-0.8,5.4-1.7,7.2-2.4c1.8-0.7,3-1.2,3-1.2s1-0.3,2.4-1.2
							c1.3-0.8,3-2.1,4.3-3.9c0,0-0.1,0.3-0.5,0.7c-0.3,0.5-0.8,1.1-1.4,2c-0.6,0.8-1.3,1.8-2.2,2.8c-0.9,1.1-1.9,2.2-3,3.4
							c-2.3,2.3-5.1,4.8-8.4,6.7c-1.6,1-3.3,1.9-5,2.6C491.9,577.2,490.1,577.7,488.3,578z"/>
						<path class="st10" d="M507.4,527c-3.4,0.8-12.3,2.7-23.8,1.2c-6.6-0.8-15-0.9-22.1-1.4c-3.6-0.2-6.9-0.5-9.6-0.8
							c-2.7-0.2-4.8-0.5-6.2-0.4c-2.7,0.1-5.3,1.1-7.2,1.8c-0.5,0.2-0.9,0.4-1.3,0.6c-0.4,0.2-0.7,0.4-1,0.5c-0.6,0.3-0.9,0.6-1,0.9
							c0,0,0.2-0.3,1.5,0c1.4,0.2,3.9,0.9,9.7,1.3c0,0,0.3,0.1,0.8,0.2c0.5,0.1,1.3,0.3,2.3,0.6c1,0.2,2.3,0.6,3.7,0.8
							c1.4,0.3,3,0.6,4.8,0.9c1.8,0.3,3.7,0.5,5.7,0.8c2,0.3,4.1,0.5,6.3,0.8c2.2,0.3,4.4,0.5,6.6,0.9c2.2,0.3,4.5,0.7,6.6,1.1
							c7.1,1.5,14.6,1.2,21,0c6.4-1.2,11.7-3.1,14.3-4.2"/>
						<path class="st10" d="M360,569.7c0,1.3,0.3,3.2,0.9,5.3c0.5,2.2,1.4,4.6,2.3,7.1c1,2.5,2.1,5,3.3,7.3c1.2,2.3,2.4,4.3,3.5,5.8
							c1.3,1.9,2.9,3.7,5,5.3c0.8,0.7,1.7,1.3,2.6,1.9c0.8,0.6,1.6,1,2.1,1.2c0,0-1.6-0.6-3.9-1.8c-1.1-0.6-2.6-1.3-4-2.2
							c-1.4-0.9-3-1.8-4.5-2.9c-1.5-1.1-3.1-2.3-4.5-3.5c-1.4-1.3-2.8-2.6-4-3.9c-1.2-1.4-2.3-2.8-3.2-4.2c-0.9-1.4-1.6-2.9-2-4.3"
							/>
					</g>
				</g>
			</g>
			<g>
				<path class="st7" d="M533.4,374l2.7,1.8c0.9-0.6,1.7-1.2,2.6-1.9L533.4,374z"/>
				<g>
					<path class="st8" d="M513.2,524.7c-3.7-0.3-7.3-0.6-11-1c-0.2,0-0.3,0.3-0.1,0.4l4.4,1.8C508.7,525.6,510.9,525.2,513.2,524.7z
						"/>
					<g>
						<path class="st7" d="M513.6,524.9c-3.8-8.5-9.6-17.3-15.5-24.9c-5.9-7.6-11.9-14.2-16-18.8c-6-6.8-8.5-11.5-9.6-14.7
							c-0.5-1.6-0.6-2.8-0.6-3.6c0-0.8,0.1-1.2,0.1-1.2s-2.1,1.8-2.4,3.2c-0.1,0.7-0.5,3.7,0.5,8.3c1.1,4.6,3.6,10.7,9.4,18.2
							c6.1,7.9,15.7,19.5,22.6,32.5"/>
						<path class="st7" d="M534.9,510.5c2.8-1.8,3.9-5.6,4.2-8.9c0.4-3.3,0-6.1,0-6.1c-0.8-3.3-3.2-7.9-6.7-13
							c-3.4-5.1-7.9-10.8-12.8-16.3c-9.8-11-21.1-21.3-27.9-27.4c-6.8-6-9.6-10.5-10.7-13.5c-1.1-3-0.5-4.6-0.5-4.6
							s-2.5,2.7-2.5,4.1c0,0.7-0.3,3.7,1.2,8c1.5,4.4,4.7,10.1,11.4,16.8c5.9,5.8,15.6,15.1,23.9,24.5c8.4,9.3,15.4,18.8,17.1,23.2
							c1.7,4.3,2.5,6.2,2.9,7.5c0.4,1.3,0.4,2,0.4,4L534.9,510.5z"/>
						<path class="st7" d="M550.4,374.1c0,0,0.1,0.2,0.4,0.6c0.2,0.3,0.6,0.8,1,1.4c0.8,1.2,1.9,2.9,3,4.9c2.2,4,4.4,9.2,4.5,14.2
							c0,0,0.5,1.2-2.5,6.2c0,0-0.1-2.4-1.8-6.1c-1.7-3.7-5.1-8.8-11.5-14c1.2-1.1,2.4-2.3,3.5-3.5
							C548.1,376.7,549.3,375.5,550.4,374.1z"/>
						<path class="st9" d="M554.9,391.9l-31-1.9c-0.5,0-0.8-0.4-0.8-0.9c0-0.5,0.4-0.9,0.9-0.8l31,1.8c0.5,0,0.8,0.5,0.8,1
							C555.7,391.5,555.3,391.9,554.9,391.9z"/>
						<path class="st9" d="M553.3,408.6l-53.9-5c-0.5,0-0.8-0.5-0.8-0.9c0-0.5,0.5-0.8,0.9-0.8l53.9,4.9c0.5,0,0.8,0.5,0.8,1
							S553.7,408.6,553.3,408.6z"/>
						<path class="st9" d="M538,421.6l-53.8-6.5c-0.5-0.1-0.8-0.5-0.7-0.9c0.1-0.4,0.5-0.8,0.9-0.7l53.8,6.3c0.5,0.1,0.8,0.5,0.7,1
							C538.9,421.3,538.5,421.7,538,421.6z"/>
						<path class="st9" d="M515.3,434.2l-35.7-5.5c-0.5-0.1-0.8-0.5-0.7-0.9c0.1-0.4,0.5-0.7,0.9-0.7l35.7,5.3
							c0.5,0.1,0.8,0.5,0.7,1C516.2,433.9,515.8,434.3,515.3,434.2z"/>
						<path class="st9" d="M509.3,462.1l-32.5-7.3c-0.5-0.1-0.7-0.5-0.6-1c0.1-0.4,0.5-0.7,1-0.6l32.5,7.1c0.5,0.1,0.7,0.6,0.6,1
							C510.2,461.9,509.8,462.2,509.3,462.1z"/>
						<path class="st9" d="M522.7,481.4l-51-13.8c-0.4-0.1-0.7-0.6-0.6-1c0.1-0.4,0.6-0.6,1-0.5l51.1,13.5c0.4,0.1,0.7,0.6,0.6,1.1
							S523.1,481.5,522.7,481.4z"/>
						<path class="st9" d="M533,501.8l-50.2-16.5c-0.4-0.1-0.7-0.6-0.6-1c0.1-0.4,0.6-0.7,1-0.5l50.3,16.2c0.4,0.1,0.7,0.7,0.5,1.2
							C533.9,501.6,533.4,501.9,533,501.8z"/>
						<path class="st9" d="M528.6,518.9l-31.4-12.6c-0.4-0.2-0.6-0.7-0.5-1.1c0.2-0.4,0.7-0.7,1.1-0.5l31.5,12.4
							c0.4,0.2,0.6,0.7,0.4,1.3C529.5,518.8,529,519.1,528.6,518.9z"/>
						<path class="st10" d="M550.3,420.2c0,0-4.2,3.7-10.6,7.8c-6.4,4.1-15,8.6-23.5,10.5c-8.5,1.9-17.4,5.9-24.3,9.2
							c-3.4,1.6-6.3,3.1-8.4,4.2c-2,1.1-3.2,1.7-3.2,1.7c-5.2,4.6-8,7.3-9.4,9.1c-1.4,1.7-1.5,2.4-1.5,2.4c-0.1-0.7,0.7-3.7,2.1-7.2
							c1.4-3.4,3.4-7.3,5.8-9.7c2.4-2.4,8.2-5.8,14.9-9.3c6.7-3.4,14.5-6.9,20.9-8.7c6.4-1.8,13.2-4.7,18.3-7.2
							c5.1-2.5,8.6-4.6,8.6-4.6c2.5-1.8,6.6-5.7,10.1-9.3c3.5-3.6,6.3-6.8,6.3-6.8s2.6-2.7,3-6.3c0,0,0,4-1.1,9
							C557.1,410,554.8,416.1,550.3,420.2z"/>
						<path class="st10" d="M538.9,373.7c-2.8,2.3-10,7.3-20.8,11.4c-6.3,2.4-13.6,6.5-20,10.6c-6.4,4.1-11.8,8.2-13.9,10.9
							c-2.1,2.7-3.7,6.9-4.8,10.6c-1,3.7-1.5,6.9-1.3,7.7c0,0,0-0.6,1.2-2.6c1.2-1.9,3.6-5.1,8.5-10.5c0,0,4.5-3.2,10.9-7.2
							c6.5-4,15-8.8,23.3-11.5c13.8-4.4,25.7-14.5,29.5-18.9"/>
						<path class="st10" d="M506.2,525.9c1.3-0.1,3.2-0.6,5.3-1.4c2.1-0.8,4.5-1.8,6.9-2.9c2.4-1.2,4.8-2.4,6.9-3.7
							c2.2-1.2,4-2.4,5.4-3.4c1.8-1.2,3.3-2.7,4.7-4.4c1.2-1.4,2.3-3,2.7-3.8c0,0-2,5-5.6,10.7c-3.6,5.7-9,12.1-14.7,14.7"/>
					</g>
				</g>
			</g>
		</g>
	</g>
</g>
<path class="st0" d="M247,389c0,0,12.5,16.9-12,37c-39.9,32.6-27.2,62.2-3.3,63c21.3,0.7,34.3-20,52.3-48
	C299.4,417.1,247,389,247,389z"/>
<path class="st0" d="M71,452c4,12,9,25.1,15,33c6.1,8,7.1,9.1,13,17.2c8.5,11.6,16.9,16.4,30,22.8c11,5.4,21.4,7.1,32,3
	c4.1-1.6,10.3-2.8,13.5-5.6c9-7.8,7-18.3,4.1-27.6c-2.6-8.7-7-17.1-14.4-23.1c-7.5-6.1-15.4-7.7-24.2-3.7
	c-5.4,2.4-11.1,5.4-16.2,8.4c-13.3,7.5-25.2,5.7-33.8-3.4C80.8,464.8,76,456.5,71,452z"/>
<g>
	<path class="st11" d="M583.6,493.7c-1.4,2.5-2.7,4.7-4,6.8l2.3-4.3C581.8,496.3,582.5,495.3,583.6,493.7z"/>
	<path class="st2" d="M407,226.5c13.2,9.2,26.4,18.5,39.6,27.7c0.5-0.5,0.4-0.4,1-0.9c-3.9-6-7.6-12.2-11.6-18.1
		c-9.8-14.4-20.5-28.3-29.6-43.2c-11.5-18.9-18.9-39.5-18.9-61.4c0-17.2,3.2-34.4,10.9-50.2c8-16.3,17.7-31.6,29.9-45.5
		c1-1.2,2.2-2.3,4.5-4.9c-0.5,4.6-0.8,7.6-1.2,10.6c-4.1,27.5,8.1,48.5,30.4,63.9c17.1,11.7,36,20.9,54.1,31.3
		c8,4.6,15.8,9.2,24.2,14c-0.8-12.4-5.8-23.4-10.8-34.7c56.7,22.3,82.7,68.3,100.3,120.8c1-5,1.6-10.1,2.6-15
		c0.9-4.2,2-8.3,4.6-12.8c2.6,5.2,5.5,10.3,7.7,15.6c11.4,26.8,19.5,54.5,23.2,83.2c1.8,14,2.3,28.2,2,42.3c-0.4,15.4-1.2,30.9-4,46
		c-4.3,23.3-12.5,45.7-23.1,67.2c-14.7,29.9-33.9,56.9-58.7,79.8c-33.7,31.2-57.8,51-105.8,73.4c-21.3,10.2-45.8,17.3-55.4,19.3
		c-5.3,2-78.4,6.4-81,6.1c11.5-3.4,61.8-9.2,91.7-26.4c37.3-20.3,43-26.6,59.3-38c29.3-20.4,48.9-47.1,59.7-79.6
		c4.5-13.7,6.5-27.9,6.7-42.6c0.5-26.1-7.2-49.4-21-71.3c-12.7-20.1-29.7-36.7-49.8-50.1c-14.6-9.7-30.4-17.8-44.7-27.8
		c-22.4-15.8-33.7-38-37.4-64.1c-0.6-4.5-1-8.9-1.6-13.4C405.9,227.1,406,227,407,226.5z"/>
	<path class="st1" d="M430.1,37.6c0,0-46.9,35.4-4.9,113.6s106.6,130.1,106.6,130.1s8-34.3,12.8-67.1c4.1-28.3,2.2-58.5-2.1-61
		C459.3,105.5,423.9,99.7,430.1,37.6z"/>
	<path class="st1" d="M408.1,230.5c0,0-9.8,55.8,71.4,94.5c4.3,2,36.8,25.3,49,41.7c10.7,14.2,21.1,29.3,25.6,45.7
		c9.3,34.6,5.3,67.1,5.3,67.1s32.1-150.6-51.2-188C451.4,265.9,448,279.8,408.1,230.5z"/>
	<path class="st1" d="M597.8,375.8c0,0-43.2-51.2-21.3-135.1c21.9-84-42.7-121.3-42.7-121.3s66.2,17.7,96,123.4
		C637,268.4,577.1,316.7,597.8,375.8z"/>
	<path class="st1" d="M623.7,487.8c-1.6,2.9-3.1,5.9-4.6,8.9c-16.3,33.4-66.6,75.2-106.6,98.6c-16.4,9.6-31.1,15.2-45.8,23.4
		C432,638,370,638,370,638s68-12,110.6-41.7c29.3-20.5,73-58.7,93.8-88.4c1.3-1.8,2.6-3.9,4.1-6.3c1.3-2.1,2.6-4.4,4-6.9
		c0,0,0,0,0,0c5.6-8.5,19.5-21.6,27-46.7c3.1-10.3,5.3-20.3,6.4-42.7c2-42.8,7.5-72.1,22.4-114.8c9.3-26.5-1.3-77.3-1.3-77.3
		c11.4,12.9,27.9,75.2,28.6,99.5c0,1.4,0.5,2.8,0.6,4.2C674.5,413.7,644.9,448.4,623.7,487.8z"/>
	<path class="st4" d="M430,37.6c0,0-35.1,22.2,6.9,100.4s88.5,125,88.5,125s-6.9-23.1-2.1-55.9c4.1-28.3,23.4-51.4,19.1-53.9
		C459.2,105.5,423.7,99.7,430,37.6z"/>
	<path class="st4" d="M585,321.9c0,0-16.6-6.5,5.3-90.4c21.9-84-56.6-112.2-56.6-112.2s66.2,17.7,96,123.4
		C637,268.4,592.5,263,585,321.9z"/>
</g>
<path class="st1" d="M78,462c0,0,19,38,58,9c0,0,14-9,27,2s14,22,14,22s-23-24-50-10S78,462,78,462z"/>
<path class="st1" d="M212,470c0,0-2.6-20.3,18.7-37.2C252,416,259,404,260,398c0,0-1.7,11.5-6,22C247,437,217,446,212,470z"/>
<path class="st1" d="M494,143c0,0-7.3,86,31.3,120"/>
<path class="st1" d="M613,227c0,0-31.9,34.9-28,94.9"/>
<path class="st12" d="M371.5,636.5c24-5.5,65-15,107.2-38.6c36.1-20.2,63-53.5,80.7-90.9c10-21.3,21.2-48.2,27.1-73.5l-12-2
	c6-43.6,7.5-94.6-28-133l-9,6c-6.3-5.6-17.2-18.9-25-24l7-11c-114.6-87-111.9-172.9-111.9-172.9s-0.6-37.3,20.6-61.7"/>
<path class="st12" d="M533.8,119.3l3.9,5.9c1.6,2.5,3.3,4.8,5.1,7.1c7.6,9.7,39.3,41.2,12.8,162.1l-9,4"/>
<path class="st12" d="M637.1,213.2c11.4,49.3-23,98.2-28.6,138.3c-6,43,0.8,71.5-7,85l-15-3"/>
<path class="st13" d="M408.1,230.5c0,0,2.4,29,97.4,60l6.7-10.2"/>
<path class="st14" d="M508.2,277.7"/>
<path class="st4" d="M443,288c0,0,95-2,106,85"/>
<path class="st4" d="M655,296c0,0-39,66-23,112C632,408,670,392,655,296z"/>
<path class="st15" d="M277,220c0,0,3,2,7,10c1,2,1,12-3,16c-3.8,3.8-11,4-11,4S268,231,277,220z"/>
<path class="st16" d="M242,244c0,0-28,1-68,42"/>
<path class="st16" d="M239.7,250.1c0,0-27.4,5.9-59.6,53.2"/>
<path class="st16" d="M245.3,254.6c0,0-27.4,5.9-59.6,53.2"/>
<path class="st1" d="M182.8,191.9c-27.8,26.1-43,14-43,14l0.2,0.1C143,202,184.9,189.9,182.8,191.9z"/>
<path class="st13" d="M183,194c-27,24-43,14-43,14"/>
</svg>
