<?xml version="1.0" encoding="utf-8"?>
<!-- Generator: Adobe Illustrator 27.7.0, SVG Export Plug-In . SVG Version: 6.00 Build 0)  -->
<svg version="1.1" id="Layer_1" xmlns="http://www.w3.org/2000/svg" xmlns:xlink="http://www.w3.org/1999/xlink" x="0px" y="0px"
	 viewBox="0 0 698.9 668" style="enable-background:new 0 0 698.9 668;" xml:space="preserve">
<style type="text/css">
	.st0{fill:#56D2C0;stroke:#000000;stroke-width:8;stroke-miterlimit:10;}
	.st1{fill:#0A594E;}
	.st2{fill:#FF784E;stroke:#000000;stroke-width:3;stroke-linecap:round;stroke-miterlimit:10;}
	.st3{fill:#FF784E;stroke:#FF784E;stroke-linecap:round;stroke-miterlimit:10;}
	.st4{fill:#E53F0C;}
	.st5{fill:#BF5A3B;}
	.st6{fill:#FF9371;stroke:#000000;stroke-width:3;stroke-linecap:round;stroke-miterlimit:10;}
	.st7{fill:#FFA98D;stroke:#000000;stroke-width:3;stroke-miterlimit:10;}
	.st8{fill:#FF784E;stroke:#000000;stroke-width:3;stroke-miterlimit:10;}
	.st9{fill:#B7573A;}
	.st10{fill:#BF5A3B;stroke:#333031;stroke-width:4;stroke-miterlimit:10;}
	.st11{fill:none;stroke:#000000;stroke-width:4;stroke-miterlimit:10;}
	.st12{fill:none;stroke:#000000;stroke-width:3;stroke-linecap:round;stroke-miterlimit:10;}
	.st13{fill:#FF9371;}
	.st14{fill:#8D4750;}
	.st15{fill:#FF784E;}
	.st16{fill:#0A594E;stroke:#FFFFFF;stroke-width:2;stroke-miterlimit:10;}
	.st17{fill:#13B29C;stroke:#FFFFFF;stroke-width:2;stroke-miterlimit:10;}
	.st18{fill:#FFE4DA;}
	.st19{fill:#803C27;}
	.st20{opacity:0.5;fill:#FF9371;}
	.st21{fill:none;stroke:#000000;stroke-width:2;stroke-linecap:round;stroke-miterlimit:10;}
	.st22{fill:#0E8575;}
	.st23{fill:#0A594E;stroke:#FFFFFF;stroke-width:3;stroke-miterlimit:10;}
</style>
<circle class="st0" cx="358.1" cy="343.5" r="319.8"/>
<path class="st1" d="M223.2,634.1l242,9C465.2,643.1,383.6,687.5,223.2,634.1z"/>
<g>
	<path class="st2" d="M538.8,189.6c10.3-9.3,8-34.2,0.2-54.1C524.4,98.6,474,75.2,474,75.2"/>
	<path class="st3" d="M516.5,177.2c0,0,10.8-29.1-10.9-55.9c-25.2-31.1-49.7-24.5-49.7-24.5S518,115.2,516.5,177.2z"/>
	<path class="st4" d="M528.8,179.4c0,0,14.4-20.7-5.9-53.5c-20.3-32.7-57.7-44.1-57.7-44.1S515.9,116.2,528.8,179.4z"/>
	<path class="st5" d="M524,183.7c0,0,8.2-29.9-15.9-54.7c-27.9-28.7-51.7-19.9-51.7-19.9S519.9,121.8,524,183.7z"/>
	<path class="st5" d="M524.6,187.6c0,0,2.3-31-26.1-50.6c-32.8-22.8-54.6-9.6-54.6-9.6S508.7,127.6,524.6,187.6z"/>
	<path class="st4" d="M532.9,176.2c0,0,8-19.6-19.1-40.2c-27.1-20.6-64.5-20.5-64.5-20.5S504.9,130.1,532.9,176.2z"/>
	<path class="st3" d="M533.6,191.8c0,0-0.5-31-30.5-48.1c-34.8-19.7-55.2-4.7-55.2-4.7S512.4,133.4,533.6,191.8z"/>
</g>
<g>
	<path class="st6" d="M533.5,184.8c8.4-11.1,1.4-35.1-10-53.2c-21.2-33.5-75.1-47-75.1-47"/>
	<path class="st3" d="M509.3,176.9c0,0,5.2-30.6-21.2-52.9c-30.6-25.8-53.4-14.7-53.4-14.7S499.1,115.6,509.3,176.9z"/>
	<path class="st4" d="M521.8,176.7c0,0,10.2-23.1-15.9-51.4c-26.1-28.3-65-32.4-65-32.4S497.2,117.1,521.8,176.7z"/>
	<path class="st5" d="M517.9,181.8c0,0,2.4-30.9-25.9-50.7c-32.8-22.9-54.5-9.8-54.5-9.8S502.3,121.8,517.9,181.8z"/>
	<path class="st5" d="M519.2,185.6c0,0-3.6-30.8-35.1-44.8c-36.5-16.2-55.4,0.8-55.4,0.8S492.3,129.6,519.2,185.6z"/>
	<path class="st4" d="M525.2,172.8c0,0,4.2-20.8-26.3-35.9c-30.5-15.2-67.2-8-67.2-8S489,132.7,525.2,172.8z"/>
	<path class="st3" d="M528.9,187.9c0,0-6.4-30.4-39-41.5c-37.9-12.8-55.1,5.8-55.1,5.8S497.1,134.6,528.9,187.9z"/>
</g>
<path class="st7" d="M541.4,334.5c2.1,23.2-4.7,37.6-21.7,77.9c-7.7,18.3-10.2,34.2-10.2,34.2h-94.2V328.7l109.5-22l61.4,10.8
	L541.4,334.5z"/>
<path class="st8" d="M462.3,541.8l-132.1-0.3V389.2h85v59l94.2-1.5C481.4,496.9,488.6,507.1,462.3,541.8L462.3,541.8z"/>
<path class="st9" d="M586.7,411.3c0,0,7.3-31.1-12.4-32.1c-19.7-1-60.9,12.8-71.1,10.9c22-18.3,22-51.8,18.2-81.1
	c-0.3-2,3.4-2.2,5.4-1.6c14.9,4.4,105.6,28,128.8-36.7c0.5-1.4,0.4-3-0.4-4.3c-7.6-13.2-70.4-84.2-128.1-84.6
	c-2.9,0-0.4-1.7-0.4-4.5c0.1-10.5,8.5-18.6-33.5-49c-1.2-0.9-2.9-0.5-3.6,0.7c-6.3,10.7-11.3,16.4-4.4,64.9c0.1,0.7-0.3,1.4-1,1.6
	c-6,2-19.6,10.6-32,47.1c0,0-28.7,27.4-91.2,52.9C293.3,322.8,265.1,318,223,383c-70.2,108.5,1.2,242.5,47.5,258.4c0,0,0,0,0,0
	c0.1,0,160.4-0.6,191.8-0.3c3.1,0,5.9-0.2,5.6-3.2c-0.8-7-3.2-18.3-17.7-32.3c-12.6-12.2-22.5-4-49-8.3c8.3-4.6,43.9-28.9,61.1-55.4
	l-10.8,0H330.1V387.6h85v-59h45.4c3.7,0,9.3-0.4,7.8,2.9c0,0-5.8,9.6-7.4,14.3c-2,5.9-2.4,12.3-2.4,12.7c0,31.7,15.9,51,27.6,53.3
	c3,0.6,6.3,0.9,10.2,0.8c25.6-0.3,60.2-12.6,68.9-10.4c0,0,0.1,0,0.1,0.1c0.8,1.2,4.3,5.5,16,8.1c0.1,0,0.3,0.1,0.4,0.1L586.7,411.3
	z"/>
<path class="st10" d="M451.4,546.8"/>
<polyline class="st11" points="509.4,446.6 415.2,446.6 415.2,442.4 415.2,387.6 415.2,328.7 468.4,328.7 "/>
<path class="st11" d="M415.2,387.6h-85v154.2l132.1,0c0,0-23.8,39.5-63,56.4l9.1,0.1c0,0,28.7-2,41.8,7.2
	c19.8,13.9,18.2,35.5,18.2,35.5H270.5"/>
<line class="st11" x1="330.1" y1="459" x2="256.4" y2="459"/>
<path class="st12" d="M586,247.2c-21.3,16.8-28.1-5.3-28.1-5.3"/>
<path class="st9" d="M102.1,260.6c0,0-25.5-81.6,25.5-137.7s139.6-44.7,165.2-24.3s74.3,47.7,51.8,148.8c0,0-6.7,36.9-58.7,78.8
	c-51.2,41.2-90.3,58.6-85.2,148.9c5.1,90.3,36.7,131.4,69.9,166.2c0,0-146.3-15.7-150.7-184.7c-0.7-28.8,5.2-57.4,17.2-83.7
	c11.4-25,29.8-60.1,57-95.9c0,0,36-67-30.6-75C96.7,194.1,102.1,260.6,102.1,260.6z"/>
<path class="st13" d="M622.7,273.2c0,0-4.1,35.4,9.8,28c0,0,19.8-9.7,23.7-32l-6.1-11.2C650.1,258,632,243,622.7,273.2z"/>
<path class="st14" d="M650.1,258c0,0-0.8,1.3,4.6,8.4c1.3,1.8-0.5,9.7-3.9,14.5c-3.2,4.5-6.4,5.9-6.4,5.9S642.9,270.5,650.1,258z"/>
<path class="st15" d="M100.3,250.2c0,0-32.8-137.6,98.2-164.5c107-21.9,143.3,67.5,143.3,67.5S281.6,84.6,203.6,104
	C139.2,119.9,101.2,191.4,100.3,250.2z"/>
<rect x="339.5" y="367.9" class="st16" width="16.8" height="37.9"/>
<rect x="369" y="367.9" class="st17" width="16.8" height="37.9"/>
<rect x="339.5" y="523.4" class="st16" width="16.8" height="37.9"/>
<rect x="369" y="523.4" class="st16" width="16.8" height="37.9"/>
<rect x="434.7" y="309.7" class="st17" width="16.8" height="37.9"/>
<rect x="433.4" y="427.5" class="st16" width="16.8" height="37.9"/>
<rect x="469.3" y="427.5" class="st17" width="16.8" height="37.9"/>
<rect x="397.7" y="523.4" class="st17" width="16.8" height="37.9"/>
<rect x="273.3" y="440.1" class="st16" width="16.8" height="37.9"/>
<rect x="302.8" y="440.1" class="st16" width="16.8" height="37.9"/>
<path class="st15" d="M200.2,268.2c0,0-34.6,48.9-55.7,88.9c-64.3,122.4,12.8,207.8,12.8,207.8s-50.6-91.7,3.8-197
	C189.7,312.8,200.2,268.2,200.2,268.2z"/>
<path class="st18" d="M102.1,260.6c0,0-28-111.5,50.4-157.8c3.7-2.2,7.3-4.6,10.8-7.1c7.5-5.4,27.9-15.4,73.9-11.6
	C237.1,84.2,74.4,96.4,102.1,260.6z"/>
<path class="st18" d="M191.4,284c0,0-93.5,107.6-66.9,207C124.6,491,135.9,343.8,191.4,284z"/>
<path class="st11" d="M102.1,260.6c0,0-25.5-81.6,25.5-137.7s134.4-47.2,165.2-24.3c20,14.8,74.3,47.7,51.8,148.8
	c0,0-6.7,36.9-58.7,78.8c-51.2,41.2-90.3,58.6-85.2,148.9c5.1,90.3,36.7,131.4,69.9,166.2c0,0-146.3-15.7-150.7-184.7
	c-0.7-28.8,5.2-57.4,17.2-83.7c11.4-25,29.8-60.1,57-95.9c0,0,36-67-30.6-75C96.7,194.1,102.1,260.6,102.1,260.6z"/>
<path class="st19" d="M461,345.9c0,0-20.5,69.5,41.5,66.4C502.5,412.3,459.8,397.8,461,345.9z"/>
<path class="st20" d="M536.2,254.3c6.5-5.7,9,23.2,43.9,14.6c0,0,10.8,21.9,27.1,24.7c16.3,2.8,14.9,13.1,14.9,13.1
	s-32.7,14.7-97.6,0C524.6,306.7,517.1,270.9,536.2,254.3z"/>
<path class="st21" d="M639.2,273.1c0,0-26.2-9.9-79,12.4"/>
<path class="st21" d="M639.2,284.8c0,0-27.8,3.6-63.9,48.1"/>
<path class="st21" d="M634.6,278.2c0,0-28-0.1-69.7,39.2"/>
<path class="st11" d="M586.7,411.3c0,0,7.3-31.1-12.4-32.1c-19.7-1-68.7,10.7-68.7,10.7s17.4-27,19.4-47c1.9-18.7-6.4-35.1-0.3-36.2
	c0,0,107.8,35.2,131.6-38.4c0,0-63-90.8-129.3-86.7c0,0,3.3-26.8-14.8-40.7c-8-6.2-14.5-16.9-26.1-6.4c0,0-9.4,19.6,1.2,60.2
	c0,0-21.4,11.1-35.2,47.7c0,0-27.2,31.4-91.2,52.9c-71.2,23.9-142.5,56.9-155.1,134.5c-15.8,97,9.5,165.1,64.8,211.5"/>
<path class="st19" d="M497.4,192.9c0,0-12.6-22.4-9.8-29.6c2.8-7.2,0.4-20.8,2.4-22.2c2-1.4,8.2-5.3,25.4,15.9c0,0-6,24.8,1.9,27
	c0,0,3.9,23.1,0.2,21.7c-4.2-1.6-12.3-28.3-15.4-22.1C499.2,189.3,497.4,192.9,497.4,192.9z"/>
<path class="st4" d="M339.5,159.7c0,0,46.3,101-66.3,172.2C273.3,331.9,333.2,258.7,339.5,159.7z"/>
<path class="st4" d="M273.3,601.1c0,0,56.9-59.3,117.7-0.6"/>
<path class="st13" d="M398.5,600.5c0,0,64.2-14.2,68,38.8C466.4,639.3,444.3,598.5,398.5,600.5z"/>
<path class="st4" d="M302.8,320.8c0,0-129.5,37.3-93,207.7C209.8,528.4,217.5,405.7,302.8,320.8z"/>
<path class="st4" d="M520.7,306.7c0,0-4.6,55.8-20.2,86.5C500.6,393.1,533.5,361.5,520.7,306.7z"/>
<path class="st4" d="M586.7,411.3c0,0,3.2-29.7-10.8-29.7"/>
<g>
	
		<ellipse transform="matrix(0.7071 -0.7071 0.7071 0.7071 -182.1067 540.4937)" class="st22" cx="561.4" cy="490.1" rx="51.6" ry="43.8"/>
	<path class="st23" d="M584.3,548.9c0,0-0.7-2.8-6.7-2.1l-2.5-4.5c8.7-5.3,14.3-11.4,14.3-11.4c0.6-0.6,1.2-1.3,1.8-1.9l3.4,3.7
		c-2.5,5.5,0,7,0,7c5.2,3.8,10.7-3.3,10.7-3.3c5.6-9.6-5.8-6.6-5.8-6.6l-0.5-0.6l-3.7-4.7c4.3-4.9,7.8-9.6,10.7-14l3.8,2.8
		c-1.4,5.9,1.2,6.9,1.2,6.9c5.9,2.8,9.9-5.2,9.9-5.2c3.7-10.5-6.9-5.4-6.9-5.4l-4.1-3.6l-0.7-0.6c4-6.9,6.4-13.1,7.7-18.4l6.9,1.5
		c1.1,6,4,5.8,4,5.8c6.5,0.1,6.8-8.8,6.8-8.8c-0.9-11.1-8.6-2.1-8.6-2.1l-8.1-2.4c0.6-4.8,0.4-8.7-0.1-11.6l8.8-2.5
		c3.8,4.7,6.3,3.2,6.3,3.2c5.8-3,1.8-11,1.8-11c-6.1-9.3-8.5,2.2-8.5,2.2l-0.7,0.1l-9.5,2c-3.5-9.6-7.6-16.9-12-22.1l4.9-6.3
		c5.9,1.6,6.9-1.1,6.9-1.1c2.9-5.8-5-10-5-10c-10.4-4-5.6,6.8-5.6,6.8l-0.5,0.5l0,0l-5,5.5c-5.1-4.6-10.4-7-15.7-8l-0.2-5.2
		c0,0,10.6-5.2,0-8.8c0,0-8.8-1.8-10.2,4.5c0,0-0.8,2.7,4.7,5.3l-0.1,3.7c-4,0-7.9,0.7-11.5,1.8l-3.6-7.2c0,0,9.3-8.4-3.6-8.3
		c0,0-10.3,1.2-9.2,7.7c0,0,0.2,2.9,7.3,3.4l2.8,6.8c-7.3,3.2-12.6,7.4-13.9,8.4l-6-5.5l-0.5-0.5c0,0,3.8-11.2-6.2-6.3
		c0,0-5.9,3.9-4.8,8.7c0,0.1,0.1,0.2,0.1,0.3c0.1,0.5,0.4,1,0.7,1.5c0,0,1.3,2.5,7,0.4l4.3,4.6c-4.8,2.8-8.8,5.4-12.1,7.7l-5.8-5.3
		l-0.5-0.5c0,0,1.6-4.8-0.1-6.7c-0.9-1-2.7-1.2-6.1,0.5c0,0-7.5,4.9-4,10.4c0,0,1.3,2.5,7,0.4l4.6,4.8c-4.9,3.8-7.8,6.8-9.4,9
		l-5.8-2.5l-0.7-0.3c0,0-0.1-11.8-7.9-3.8c0,0-5.4,7.1-0.4,11.2c0,0,2.1,1.9,6.8-1.9l6.3,3.2l0,0c0,0.1,0.1,0.1,0.1,0.1
		c-2.7,3.1-4.4,6.7-5.3,10.5l-7.4,0.2l-0.7,0c0,0-5-10.7-8.8-0.2c0,0-2,8.8,4.3,10.3c0,0,2.7,0.9,5.4-4.6l6.4,0.3
		c-0.2,6,0.9,12.2,2.6,18.1l-7.7,1.6c0,0-6.9-9.6-8.7,1.4c0,0-0.4,9,6.1,9.4c0,0,2.8,0.4,4.4-5.4l7.7-1.1c2,5.5,4.3,10.2,5.9,13.3
		l-0.7,0.5l-5.6,4.3c0,0-9.6-6.6-7,4.8c0,0,3.1,8.8,8.8,6.6c0,0,2.6-0.7,1.8-7.1l5.8-3.8c3.2,4.8,6.5,8.6,9.9,11.5l-3.7,6.2
		l-0.4,0.6c0,0-11.7-1.5-4.9,7.3c0,0,6.3,6.4,11,1.9c0,0,2.2-1.8-1-7l3.8-5.4c5.1,3.2,10.3,4.6,15.3,4.9l0.2,8.1l0,0.7
		c0,0-10.7,5-0.2,8.8c0,0,8.8,2,10.3-4.3c0,0,0.9-2.7-4.6-5.4l0.4-8.3c4.7-0.6,9.2-2.2,13.2-4.1l0.3,0.5l2.9,4.2l0.4,0.6
		c0,0-6.3,10,4.5,7.5C577.9,558,586.3,555,584.3,548.9z M563.7,522c-5.8,4.1-20.9,4.3-28.6-6.5c-7.7-10.8-1.4-21,2-23
		c5.5-3.2,8.6-3.4,12.5-4.2c0,0,5.1-1.3,6.4-3.5c0.5-0.9,1.9-3.2,1.9-3.2l1.3-2.2c0,0,2.8-6.3,3.8-16.5c1.5-15,20.5-14.9,24.7-11.3
		s11.5,11.9,3.6,22c-5.9,7.6-11.6,10.8-14,11.9c-0.5,0.2-1,0.4-1.6,0.6c-1.4,0.4-7.5,2.9-7,13.1C569.4,510.7,569.5,517.9,563.7,522z
		"/>
</g>
<path class="st4" d="M524,183.7c0,0,44.2-9.4,101.3,51.9C625.4,235.6,570.4,189.6,524,183.7z"/>
<rect x="425" y="523.4" class="st17" width="16.8" height="37.9"/>
<path class="st18" d="M530.6,382.4c0,0,7.1-44.2,3.7-58.8c0,0,21.1,4.1,43.3-4.6L540,333.8C540,333.8,544.1,353.6,530.6,382.4z"/>
</svg>
